<svg id="arrows-expand" xmlns="http://www.w3.org/2000/svg" width="15.224" height="17.763" viewBox="0 0 15.224 17.763">
  <path id="Path_54" data-name="Path 54" d="M4.5,11.13a.634.634,0,0,1,.634-.634H19.089a.634.634,0,1,1,0,1.269H5.134A.634.634,0,0,1,4.5,11.13Zm7.612-1.9a.634.634,0,0,0,.634-.634V2.884a.634.634,0,0,0-1.269,0V8.593A.634.634,0,0,0,12.112,9.227Z" transform="translate(-4.5 -2.249)" fill="#fff" fill-rule="evenodd"/>
  <path id="Path_55" data-name="Path 55" d="M18.532,5.869a.634.634,0,0,0,0-.9L15.995,2.434a.634.634,0,0,0-.9,0L12.559,4.971a.635.635,0,0,0,.9.9L15.546,3.78l2.088,2.09a.634.634,0,0,0,.9,0Zm-2.986,7.163a.634.634,0,0,1,.634.634v5.709a.634.634,0,0,1-1.269,0V13.666A.634.634,0,0,1,15.546,13.032Z" transform="translate(-7.934 -2.247)" fill="#fff" fill-rule="evenodd"/>
  <path id="Path_56" data-name="Path 56" d="M18.532,27.184a.634.634,0,0,1,0,.9L15.995,30.62a.634.634,0,0,1-.9,0l-2.537-2.537a.635.635,0,0,1,.9-.9l2.088,2.089,2.088-2.09a.634.634,0,0,1,.9,0Z" transform="translate(-7.934 -13.043)" fill="#fff" fill-rule="evenodd"/>
</svg>
