<svg id="arrows-collapse" xmlns="http://www.w3.org/2000/svg" width="15.148" height="17.672" viewBox="0 0 15.148 17.672">
  <path id="Path_48" data-name="Path 48" d="M4.5,11.086a.631.631,0,0,1,.631-.631H19.017a.631.631,0,1,1,0,1.262H5.131A.631.631,0,0,1,4.5,11.086ZM12.074,2.25a.631.631,0,0,1,.631.631v5.68a.631.631,0,0,1-1.262,0V2.881A.631.631,0,0,1,12.074,2.25Z" transform="translate(-4.5 -2.25)" fill="#fff" fill-rule="evenodd"/>
  <path id="Path_49" data-name="Path 49" d="M18.5,8.058a.631.631,0,0,1,0,.894l-2.525,2.525a.631.631,0,0,1-.894,0L12.558,8.952a.632.632,0,0,1,.894-.894l2.078,2.079,2.078-2.079a.631.631,0,0,1,.894,0ZM15.53,22.39a.631.631,0,0,0,.631-.631v-5.68a.631.631,0,0,0-1.262,0v5.68A.631.631,0,0,0,15.53,22.39Z" transform="translate(-7.956 -4.718)" fill="#fff" fill-rule="evenodd"/>
  <path id="Path_50" data-name="Path 50" d="M18.5,24.976a.631.631,0,0,0,0-.894l-2.525-2.525a.631.631,0,0,0-.894,0l-2.525,2.525a.632.632,0,0,0,.894.894L15.53,22.9l2.078,2.079a.631.631,0,0,0,.894,0Z" transform="translate(-7.956 -10.644)" fill="#fff" fill-rule="evenodd"/>
</svg>
