<svg xmlns="http://www.w3.org/2000/svg" width="1505.006" height="549.168" viewBox="0 0 1505.006 549.168">
  <g id="Path_73" data-name="Path 73" transform="translate(16.006 1.026)" fill="none">
    <path d="M0-.344s185.148-1.535,282.709,0,104.325,6.075,161.54,6.075S593.54-.344,593.54-.344L909.029,9.718,1483.834-.344s11.623,33.815,0,90.047c-8.187,39.6-6.225,164.664-6.225,221.883,0,136.56,6.225,234.31,6.225,234.31s-178.338-10.984-549.3-10.984c-191.044,0-445.942,8.149-636.511,10.984C119.8,548.548,0,545.9,0,545.9V436.729C0,384.016-16.006,299.167-16.006,189.9S0-.344,0-.344Z" stroke="none"/>
    <path d="M 166.053955078125 -0.02667236328125 C 87.6824951171875 -0.02667236328125 9.6461181640625 0.57861328125 0.8275146484375 0.64910888671875 C 0.0557861328125 4.728759765625 -3.4991455078125 24.1671142578125 -7.0133056640625 53.94549560546875 C -9.3336181640625 73.60971069335938 -11.1826171875 93.86849975585938 -12.5086669921875 114.1591186523438 C -14.1658935546875 139.5205078125 -15.0062255859375 165.0031127929688 -15.0062255859375 189.8993225097656 C -15.0062255859375 218.5709228515625 -13.90869140625 248.034912109375 -11.6505126953125 279.9753112792969 C -9.6868896484375 307.751708984375 -7.126708984375 333.463134765625 -4.86767578125 356.1479187011719 C -1.71923828125 387.7667236328125 0.9998779296875 415.0735168457031 0.9998779296875 436.7286987304688 L 0.9998779296875 544.9168090820312 C 8.657470703125 545.0737915039062 60.69873046875 546.0745239257812 141.5489501953125 546.0745239257812 C 192.8173828125 546.0745239257812 245.458984375 545.6781005859375 298.01171875 544.8963012695312 C 367.7105712890625 543.859130859375 444.91748046875 542.1357421875 526.65771484375 540.3110961914062 C 667.6089477539062 537.1649169921875 813.3589477539062 533.9114990234375 934.5375366210938 533.9114990234375 C 1019.156494140625 533.9114990234375 1100.691650390625 534.4888916015625 1176.878295898438 535.6279296875 C 1237.828491210938 536.5391235351562 1295.51171875 537.8096923828125 1348.325561523438 539.404296875 C 1430.444458007812 541.8836669921875 1475.261474609375 544.3928833007812 1482.7666015625 544.8309326171875 C 1482.44677734375 539.5593872070312 1481.076782226562 516.1115112304688 1479.722290039062 479.988525390625 C 1478.818481445312 455.88330078125 1478.098510742188 430.9324951171875 1477.581909179688 405.8287048339844 C 1476.9365234375 374.4495239257812 1476.609130859375 342.7415161132812 1476.609130859375 311.5859069824219 C 1476.609130859375 303.2359008789062 1476.566528320312 293.2483215332031 1476.521362304688 282.6741027832031 C 1476.2509765625 219.2589111328125 1475.842163085938 123.4251098632812 1482.85498046875 89.50051879882812 C 1485.491088867188 76.74652099609375 1487.133178710938 64.10391235351562 1487.735717773438 51.92388916015625 C 1488.2177734375 42.1805419921875 1488.039306640625 32.70953369140625 1487.20556640625 23.773681640625 C 1486.014404296875 11.00958251953125 1483.803588867188 2.97509765625 1483.10546875 0.6685791015625 L 909.021728515625 10.71832275390625 L 908.9971313476562 10.717529296875 L 593.557861328125 0.65667724609375 C 592.3556518554688 0.735595703125 569.5787963867188 2.22308349609375 540.4005126953125 3.69189453125 C 490.5067138671875 6.2034912109375 460.5739135742188 6.730712890625 444.2491455078125 6.730712890625 C 417.3861083984375 6.730712890625 401.9512939453125 5.75128173828125 382.41015625 4.51153564453125 C 361.0555419921875 3.15673828125 334.4788818359375 1.4703369140625 282.6934814453125 0.655517578125 C 253.92333984375 0.20294189453125 214.68017578125 -0.02667236328125 166.053955078125 -0.02667236328125 M 166.0538330078125 -1.026611328125 C 207.9417724609375 -1.026611328125 250.18505859375 -0.8560791015625 282.7093505859375 -0.34429931640625 C 380.2703857421875 1.19073486328125 387.0341796875 5.730712890625 444.2491455078125 5.730712890625 C 501.464111328125 5.730712890625 593.5403442382812 -0.34429931640625 593.5403442382812 -0.34429931640625 L 909.0289306640625 9.7181396484375 L 1483.834106445312 -0.34429931640625 C 1483.834106445312 -0.34429931640625 1495.457275390625 33.4700927734375 1483.834106445312 89.70291137695312 C 1475.647583007812 129.3061218261719 1477.609130859375 254.3673095703125 1477.609130859375 311.5859069824219 C 1477.609130859375 448.1461181640625 1483.834106445312 545.8961181640625 1483.834106445312 545.8961181640625 C 1483.834106445312 545.8961181640625 1305.49609375 534.9114990234375 934.5375366210938 534.9114990234375 C 743.493896484375 534.9114990234375 488.595703125 543.0604858398438 298.0264892578125 545.8961181640625 C 238.62158203125 546.7799072265625 185.699462890625 547.0745849609375 141.5489501953125 547.0745849609375 C 53.239990234375 547.0745849609375 -0.0001220703125 545.8961181640625 -0.0001220703125 545.8961181640625 L -0.0001220703125 548.1416625976562 C -0.0001220703125 548.1416625976562 -0.0001220703125 534.1893920898438 -0.0001220703125 436.7286987304688 C -0.0001220703125 384.0165100097656 -16.0062255859375 299.1675109863281 -16.0062255859375 189.8993225097656 C -16.0062255859375 80.63092041015625 -0.0001220703125 -0.34429931640625 -0.0001220703125 -0.34429931640625 C -0.0001220703125 -0.34429931640625 82.2933349609375 -1.026611328125 166.0538330078125 -1.026611328125 Z" stroke="none" fill="#707070"/>
  </g>
</svg>
