<svg xmlns="http://www.w3.org/2000/svg" width="28.711" height="28.573" viewBox="0 0 28.711 28.573">
  <g id="box" transform="translate(0 -0.173)">
    <path id="Path_104" data-name="Path 104" d="M14.69,2.032a.9.9,0,0,0-.668,0L3.313,6.316l11.043,4.416L25.4,6.316Zm12.227,5.61L15.253,12.307V26.523l11.664-4.666V7.643ZM13.458,26.525V12.306L1.794,7.642V21.859Zm-.1-26.16a2.692,2.692,0,0,1,2,0L28.148,5.483a.9.9,0,0,1,.563.833V21.859a1.794,1.794,0,0,1-1.129,1.665L14.69,28.682a.9.9,0,0,1-.668,0L1.13,23.525A1.794,1.794,0,0,1,0,21.859V6.316a.9.9,0,0,1,.564-.833Z" transform="translate(0 0)" fill="#1cadad" fill-rule="evenodd"/>
  </g>
</svg>
