<svg xmlns="http://www.w3.org/2000/svg" width="13.945" height="13.88" viewBox="0 0 13.945 13.88">
  <g id="box" transform="translate(0.25 0.25)">
    <path id="Path_104" data-name="Path 104" d="M6.879,1.043a.42.42,0,0,0-.313,0L1.551,3.049,6.722,5.117l5.171-2.068ZM12.6,3.67,7.142,5.855v6.657L12.6,10.328V3.671ZM6.3,12.513V5.854L.84,3.67v6.658ZM6.254.263a1.26,1.26,0,0,1,.936,0l5.99,2.4a.42.42,0,0,1,.264.39v7.279a.84.84,0,0,1-.528.78L6.879,13.523a.42.42,0,0,1-.313,0L.529,11.108A.84.84,0,0,1,0,10.328V3.049a.42.42,0,0,1,.264-.39Z" transform="translate(0 -0.173)" fill="#1cadad" fill-rule="evenodd"/>
    <path id="Path_104_-_Outline" data-name="Path 104 - Outline" d="M6.723-.077a1.5,1.5,0,0,1,.561.108l5.99,2.4a.667.667,0,0,1,.421.622v7.279a1.085,1.085,0,0,1-.686,1.012L6.972,13.755a.673.673,0,0,1-.5,0L.436,11.34A1.085,1.085,0,0,1-.25,10.328V3.049a.667.667,0,0,1,.421-.622l5.99-2.4A1.5,1.5,0,0,1,6.723-.077Zm0,13.381a.169.169,0,0,0,.063-.012l6.038-2.415a.588.588,0,0,0,.371-.548V3.049a.169.169,0,0,0-.107-.158L7.1.495a1.015,1.015,0,0,0-.751,0l-5.99,2.4a.169.169,0,0,0-.107.158v7.279a.587.587,0,0,0,.372.548l6.037,2.415A.17.17,0,0,0,6.723,13.3Zm0-12.54a.667.667,0,0,1,.249.048l5.595,2.238L6.722,5.386.878,3.049,6.473.811A.667.667,0,0,1,6.723.763Zm4.5,2.286L6.786,1.275a.171.171,0,0,0-.127,0L2.225,3.049l4.5,1.8Zm1.634.252v7.2L6.892,12.882v-7.2Zm-.5,6.857V4.04L7.392,6.024v6.119ZM.59,3.3,6.552,5.685v7.2L.59,10.5ZM6.052,6.024,1.09,4.04v6.119l4.962,1.985Z" transform="translate(0 -0.173)" fill="#1cadad"/>
  </g>
</svg>
