<svg xmlns="http://www.w3.org/2000/svg" width="32" height="29" viewBox="0 0 32 29">
  <g id="Group_199" data-name="Group 199" transform="translate(-392 -350.203)">
    <rect id="Rectangle_94" data-name="Rectangle 94" width="32" height="29" transform="translate(392 350.203)" fill="none"/>
    <path id="Path_123" data-name="Path 123" d="M407.464,355.644a1.884,1.884,0,0,1,.7.135l7.786,3.11a.793.793,0,0,1,.5.739v9.461a1.336,1.336,0,0,1-.844,1.246l-7.847,3.142a.8.8,0,0,1-.592,0l-7.847-3.138a1.334,1.334,0,0,1-.845-1.246v-9.461a.79.79,0,0,1,.5-.743l7.786-3.11A1.884,1.884,0,0,1,407.464,355.644Zm0,17.39a.3.3,0,0,0,.11-.021l7.847-3.142a.838.838,0,0,0,.53-.782v-9.461a.3.3,0,0,0-.186-.275l-7.786-3.11a1.4,1.4,0,0,0-1.032,0l-7.786,3.11a.294.294,0,0,0-.186.277v9.463a.837.837,0,0,0,.53.782l7.847,3.138A.3.3,0,0,0,407.464,373.034Zm0-16.3a.793.793,0,0,1,.3.057l7.1,2.844-7.394,2.957-7.394-2.958,7.1-2.843A.793.793,0,0,1,407.464,356.732Zm6.047,2.9-5.937-2.38a.3.3,0,0,0-.22,0l-5.939,2.379,6.048,2.42Zm1.848.433v9.191l-7.6,3.04v-9.191Zm-.5,8.852V360.8l-6.6,2.64v8.113Zm-15.292-8.848,7.6,3.039V372.3l-7.6-3.041Zm7.1,3.378-6.6-2.639v8.115l6.6,2.641Z" fill="#1d9f9d"/>
  </g>
</svg>
