<svg xmlns="http://www.w3.org/2000/svg" width="12" height="13.333" viewBox="0 0 12 13.333">
  <path id="calendar" d="M7.833,4.333h5.333V3H14.5V4.333h.667A1.333,1.333,0,0,1,16.5,5.667V15a1.333,1.333,0,0,1-1.333,1.333H5.833A1.333,1.333,0,0,1,4.5,15V5.667A1.333,1.333,0,0,1,5.833,4.333H6.5V3H7.833ZM5.833,7v8h9.333V7ZM7.167,9H8.5v1.333H7.167ZM9.833,9h1.333v1.333H9.833ZM12.5,9h1.333v1.333H12.5Zm0,2.667h1.333V13H12.5Zm-2.667,0h1.333V13H9.833Zm-2.667,0H8.5V13H7.167Z" transform="translate(-4.5 -3)" fill="#fff" fill-rule="evenodd"/>
</svg>
