<svg xmlns="http://www.w3.org/2000/svg" width="25.653" height="21.378" viewBox="0 0 25.653 21.378">
  <path id="Path_121" data-name="Path 121" d="M499.655,361.646a1.055,1.055,0,0,0-.067-.206l-2.523-5.89a3.856,3.856,0,0,0-3.61-2.24H480.246a3.856,3.856,0,0,0-3.61,2.24l-2.526,5.89a1.051,1.051,0,0,0-.086.421v11.756a1.069,1.069,0,0,0,1.068,1.069h2.141a1.07,1.07,0,0,0,1.069-1.069v-1.069h17.1v1.069a1.069,1.069,0,0,0,1.068,1.069h2.138a1.07,1.07,0,0,0,1.069-1.069V361.861a1.111,1.111,0,0,0-.021-.215Zm-20.285,6.627a2.138,2.138,0,1,1,2.138-2.137,2.137,2.137,0,0,1-2.138,2.137m14.963,0a2.138,2.138,0,1,1,2.137-2.137,2.138,2.138,0,0,1-2.137,2.137m-17.617-7.481,1.886-4.4a1.757,1.757,0,0,1,1.644-.945h13.211a1.757,1.757,0,0,1,1.644.945l1.886,4.4Z" transform="translate(-474.024 -353.308)" fill="#fff"/>
</svg>
