<svg xmlns="http://www.w3.org/2000/svg" width="27.003" height="22.503" viewBox="0 0 27.003 22.503">
  <path id="Path_105" data-name="Path 105" d="M416.779,16.2a1.1,1.1,0,0,0-.07-.217l-2.656-6.2a4.061,4.061,0,0,0-3.8-2.358h-13.9a4.058,4.058,0,0,0-3.8,2.358l-2.659,6.2a1.091,1.091,0,0,0-.091.443V28.8a1.125,1.125,0,0,0,1.125,1.125h2.253A1.125,1.125,0,0,0,394.3,28.8V27.679h18V28.8a1.125,1.125,0,0,0,1.125,1.125h2.25A1.125,1.125,0,0,0,416.8,28.8V16.429a1.138,1.138,0,0,0-.022-.226Zm-21.352,6.976a2.25,2.25,0,1,1,2.25-2.25,2.25,2.25,0,0,1-2.25,2.25m15.75,0a2.25,2.25,0,1,1,2.25-2.25,2.25,2.25,0,0,1-2.25,2.25M392.633,15.3l1.985-4.63a1.848,1.848,0,0,1,1.731-.995h13.906a1.85,1.85,0,0,1,1.731.995l1.985,4.63Z" transform="translate(-389.799 -7.426)" fill="#fff"/>
</svg>
