<svg xmlns="http://www.w3.org/2000/svg" width="13.006" height="8.231" viewBox="0 0 13.006 8.231">
  <g id="check-all" transform="translate(-4.682 -10.56)">
    <path id="Path_57" data-name="Path 57" d="M12.695,8.784l.316-.187.684.177a.707.707,0,0,1,.01,1L8.423,16.565a.707.707,0,0,1-1.018.019L4.911,14.09a.707.707,0,1,1,1-1l1.974,1.973L12.676,8.8l.019-.021Zm-2.386,6.933.867.867a.707.707,0,0,0,1.017-.019l5.282-6.791A.707.707,0,1,0,16.447,8.8l-4.793,6.259-.457-.458-.889,1.111Z" transform="translate(0 2)" fill="#fff" fill-rule="evenodd"/>
  </g>
</svg>
