<svg xmlns="http://www.w3.org/2000/svg" width="35.359" height="36.703" viewBox="0 0 35.359 36.703">
  <path id="chrome" d="M17.617,0A17.453,17.453,0,0,0,3.92,6.828l5.444,8.686a9.092,9.092,0,0,1,9.453-6.242l14.644.81A18,18,0,0,0,26.52,2.46,17.1,17.1,0,0,0,17.617,0ZM2.887,8.3A18.77,18.77,0,0,0,0,18.353,18.161,18.161,0,0,0,14.943,36.485l4.523-9.236A9.028,9.028,0,0,1,9.533,21.87Zm31.287,3.444-9.969.551a9.729,9.729,0,0,1,.48,11.618l-8,12.759a17.073,17.073,0,0,0,9.829-2.43,18.7,18.7,0,0,0,7.657-22.5Zm-16.5.417a6.079,6.079,0,0,0-5.962,6.189,6.079,6.079,0,0,0,5.962,6.189,6.079,6.079,0,0,0,5.962-6.189A6.079,6.079,0,0,0,17.678,12.163Z" transform="translate(0 0)" fill="#fff"/>
</svg>
