<svg xmlns="http://www.w3.org/2000/svg" width="17.326" height="13" viewBox="0 0 17.326 13">
  <path id="code" d="M5.668,11l-.473.473a.3.3,0,0,1-.435,0L.347,7.057a.3.3,0,0,1,0-.435L4.759,2.209a.3.3,0,0,1,.435,0l.473.473a.3.3,0,0,1,0,.435L1.947,6.839,5.668,10.56a.3.3,0,0,1,0,.435Zm5.6-10.1L7.731,13.116a.309.309,0,0,1-.147.185.264.264,0,0,1-.222.024l-.587-.161a.309.309,0,0,1-.185-.147.283.283,0,0,1-.023-.232L10.1.562a.309.309,0,0,1,.147-.185.263.263,0,0,1,.222-.023l.587.161a.309.309,0,0,1,.185.147A.282.282,0,0,1,11.263.893Zm6.221,6.164-4.412,4.412a.3.3,0,0,1-.435,0L12.163,11a.3.3,0,0,1,0-.435l3.721-3.721L12.163,3.118a.3.3,0,0,1,0-.435l.473-.473a.3.3,0,0,1,.435,0l4.412,4.412a.3.3,0,0,1,0,.435Z" transform="translate(-0.252 -0.339)" fill="#fff"/>
</svg>
