<svg id="filter" xmlns="http://www.w3.org/2000/svg" width="24.28" height="20.766" viewBox="0 0 24.28 20.766">
  <path id="filter_icon" data-name="filter icon" d="M26.08,4.816a1.971,1.971,0,0,0-1.9-1.969v0H3.879v.005c-.035,0-.071-.005-.106-.005A1.973,1.973,0,0,0,2.535,6.352L11.682,15.5v5.692h.005a1.03,1.03,0,0,0,.519.85l0,.005,2.389,1.379c.02.013.042.024.062.037l.008.005h0a1.031,1.031,0,0,0,1.553-.9c0-.027-.007-.054-.008-.079h.008V15.506l9.232-9.232-.008-.008a1.964,1.964,0,0,0,.641-1.45ZM8.553,6.789h.005v.005Z" transform="translate(-1.8 -2.843)" fill="#fff"/>
</svg>
