<svg xmlns="http://www.w3.org/2000/svg" width="35.36" height="35.577" viewBox="0 0 35.36 35.577">
  <path id="firefox" d="M17.819,36.039a16.851,16.851,0,0,1-9.955-3.082,18.544,18.544,0,0,1-6.5-8.163A17.972,17.972,0,0,1,.039,18.629a26.7,26.7,0,0,1,2.7-13.2A16.906,16.906,0,0,1,6.275.462L6.058,6.217Q6.275,5.931,7.4,5.9t1.381.317a6.685,6.685,0,0,1,3.167-2.826,10.734,10.734,0,0,1,4.628-1.208,13.155,13.155,0,0,0-2.358,3.041,5.842,5.842,0,0,0-1.154,3.348,7.573,7.573,0,0,0,1.234.276q.741.112,1.244.154t1.342.082q.839.04,1,.061.3.1.188.932a3.487,3.487,0,0,1-.6,1.548,3.214,3.214,0,0,1-.325.379,5.648,5.648,0,0,1-1.115.727,6.553,6.553,0,0,1-1.993.7l.3,3.871-2.742-1.372a2.606,2.606,0,0,0-.148,1.669,3.311,3.311,0,0,0,.71,1.362,3,3,0,0,0,1.293.85,3.12,3.12,0,0,0,1.6.134,6.2,6.2,0,0,0,1.934-.707q.927-.522,1.647-.922a2.655,2.655,0,0,1,1.451-.36,2.586,2.586,0,0,1,1.766.676,1.372,1.372,0,0,1,.385,1.332q-.02.041-.049.112A1.537,1.537,0,0,1,22,20.33a1.236,1.236,0,0,1-.356.317,2.013,2.013,0,0,1-.622.215,2.832,2.832,0,0,1-.917.02,7.085,7.085,0,0,1-2.851,2.775,7.63,7.63,0,0,1-4.134.6,7.846,7.846,0,0,0,3.207,1.689,7.46,7.46,0,0,0,3.325.123A11.834,11.834,0,0,0,22.7,25.01a10.01,10.01,0,0,0,2.525-1.792,8,8,0,0,0,1.588-2.13,8.591,8.591,0,0,0,.769-3.943,12.416,12.416,0,0,0-.74-3.861,6.252,6.252,0,0,0-1.549-2.56A11.3,11.3,0,0,1,28,12.352a5.44,5.44,0,0,1,1.52,2.3A15.154,15.154,0,0,0,28.385,7.63a14.565,14.565,0,0,0-4.133-5.817,14.785,14.785,0,0,1,8.13,5.725,18.487,18.487,0,0,1,2.979,10.6,16.248,16.248,0,0,1-.8,5.223,17.686,17.686,0,0,1-2.437,4.874,20.834,20.834,0,0,1-3.73,4.015,16.565,16.565,0,0,1-4.884,2.775A16.377,16.377,0,0,1,17.819,36.039Z" transform="translate(-0.003 -0.462)" fill="#fff"/>
</svg>
