<svg xmlns="http://www.w3.org/2000/svg" width="41.018" height="41.018" viewBox="0 0 41.018 41.018">
  <g id="GPU_icon" data-name="GPU icon" transform="translate(-173.875 -253.492)">
    <g id="hardware-chip-outline" transform="translate(171.625 251.242)">
      <path id="Path_81" data-name="Path 81" d="M10.1,5.625H33.955A4.473,4.473,0,0,1,38.428,10.1V33.955a4.473,4.473,0,0,1-4.473,4.473H10.1a4.473,4.473,0,0,1-4.473-4.473V10.1A4.473,4.473,0,0,1,10.1,5.625Z" transform="translate(0.732 0.732)" fill="none" stroke="#fff" stroke-linejoin="round" stroke-width="2.25"/>
      <path id="Path_82" data-name="Path 82" d="M11.616,10.125H29.509A1.491,1.491,0,0,1,31,11.616V29.509A1.491,1.491,0,0,1,29.509,31H11.616a1.491,1.491,0,0,1-1.491-1.491V11.616A1.491,1.491,0,0,1,11.616,10.125Z" transform="translate(2.196 2.196)" fill="none" stroke="#fff" stroke-linejoin="round" stroke-width="2.25"/>
      <path id="Path_83" data-name="Path 83" d="M18,6.357V3.375" transform="translate(4.759 0)" fill="none" stroke="#fff" stroke-linecap="round" stroke-linejoin="round" stroke-width="2.25"/>
      <path id="Path_84" data-name="Path 84" d="M23.625,6.357V3.375" transform="translate(6.589 0)" fill="none" stroke="#fff" stroke-linecap="round" stroke-linejoin="round" stroke-width="2.25"/>
      <path id="Path_85" data-name="Path 85" d="M12.375,6.357V3.375" transform="translate(2.928 0)" fill="none" stroke="#fff" stroke-linecap="round" stroke-linejoin="round" stroke-width="2.25"/>
      <path id="Path_86" data-name="Path 86" d="M18,33.357V30.375" transform="translate(4.759 8.785)" fill="none" stroke="#fff" stroke-linecap="round" stroke-linejoin="round" stroke-width="2.25"/>
      <path id="Path_87" data-name="Path 87" d="M23.625,33.357V30.375" transform="translate(6.589 8.785)" fill="none" stroke="#fff" stroke-linecap="round" stroke-linejoin="round" stroke-width="2.25"/>
      <path id="Path_88" data-name="Path 88" d="M12.375,33.357V30.375" transform="translate(2.928 8.785)" fill="none" stroke="#fff" stroke-linecap="round" stroke-linejoin="round" stroke-width="2.25"/>
      <path id="Path_89" data-name="Path 89" d="M30.375,18h2.982" transform="translate(8.785 4.759)" fill="none" stroke="#fff" stroke-linecap="round" stroke-linejoin="round" stroke-width="2.25"/>
      <path id="Path_90" data-name="Path 90" d="M30.375,23.625h2.982" transform="translate(8.785 6.589)" fill="none" stroke="#fff" stroke-linecap="round" stroke-linejoin="round" stroke-width="2.25"/>
      <path id="Path_91" data-name="Path 91" d="M30.375,12.375h2.982" transform="translate(8.785 2.928)" fill="none" stroke="#fff" stroke-linecap="round" stroke-linejoin="round" stroke-width="2.25"/>
      <path id="Path_92" data-name="Path 92" d="M3.375,18H6.357" transform="translate(0 4.759)" fill="none" stroke="#fff" stroke-linecap="round" stroke-linejoin="round" stroke-width="2.25"/>
      <path id="Path_93" data-name="Path 93" d="M3.375,23.625H6.357" transform="translate(0 6.589)" fill="none" stroke="#fff" stroke-linecap="round" stroke-linejoin="round" stroke-width="2.25"/>
      <path id="Path_94" data-name="Path 94" d="M3.375,12.375H6.357" transform="translate(0 2.928)" fill="none" stroke="#fff" stroke-linecap="round" stroke-linejoin="round" stroke-width="2.25"/>
    </g>
    <path id="Path_95" data-name="Path 95" d="M12974.224,17068.441h-12.509l3.258-7.283,2.862,1.838,2.3-4.494.413,1Zm-10.966-1h9.474l-2.692-6.553-1.817,3.545-.464-.3-2.348-1.508Z" transform="translate(-12773.598 -16789.816)" fill="#fff"/>
    <path id="Path_96" data-name="Path 96" d="M12964.889,17070.125l2.789-6.07,2.5,3.9,1.391,2.17Z" transform="translate(-12776 -16792)" fill="#fff"/>
  </g>
</svg>
