<svg xmlns="http://www.w3.org/2000/svg" width="35.999" height="34.878" viewBox="0 0 35.999 34.878">
  <g id="minecart-loaded" transform="translate(0 -1.122)">
    <path id="Path_99" data-name="Path 99" d="M9,33.75A2.25,2.25,0,1,0,6.75,31.5,2.25,2.25,0,0,0,9,33.75ZM9,36a4.5,4.5,0,1,0-4.5-4.5A4.5,4.5,0,0,0,9,36Zm18-2.25a2.25,2.25,0,1,0-2.25-2.25A2.25,2.25,0,0,0,27,33.75ZM27,36a4.5,4.5,0,1,0-4.5-4.5A4.5,4.5,0,0,0,27,36ZM.259,7.155a1.125,1.125,0,0,1,.866-.405h33.75a1.125,1.125,0,0,1,1.1,1.332l-3.375,18A1.125,1.125,0,0,1,31.5,27H4.5a1.125,1.125,0,0,1-1.105-.918L.02,8.082a1.125,1.125,0,0,1,.238-.925ZM2.48,9,5.434,24.75H30.567L33.521,9Z" fill="#fff" fill-rule="evenodd"/>
    <path id="Path_100" data-name="Path 100" d="M13.5,3.375a5.621,5.621,0,0,1,9,0A5.622,5.622,0,0,1,27,5.625a5.618,5.618,0,0,1,3.89,1.561L29.333,8.81A3.359,3.359,0,0,0,27,7.875a2.262,2.262,0,0,1-1.8-.9,3.369,3.369,0,0,0-2.7-1.35,2.262,2.262,0,0,1-1.8-.9,3.368,3.368,0,0,0-5.4,0,2.262,2.262,0,0,1-1.8.9A3.373,3.373,0,0,0,10.737,7.06,5.962,5.962,0,0,1,9.31,8.487a3.4,3.4,0,0,0-.592.531L7.03,7.528a5.625,5.625,0,0,1,.983-.88A3.667,3.667,0,0,0,8.9,5.764,5.621,5.621,0,0,1,13.5,3.375Z" fill="#fff" fill-rule="evenodd"/>
  </g>
</svg>
