<svg xmlns="http://www.w3.org/2000/svg" width="7.934" height="17.318" viewBox="0 0 7.934 17.318">
  <g id="help-info-solid" transform="translate(-10.633 -2)">
    <path id="Path_75" data-name="Path 75" d="M21.093,4.172A2.172,2.172,0,1,1,18.922,2a2.172,2.172,0,0,1,2.172,2.172Z" transform="translate(-2.796)" fill="#fff"/>
    <path id="Path_76" data-name="Path 76" d="M18.346,19.685a.543.543,0,0,0-.76.157A9.012,9.012,0,0,1,15.68,21.89c-.179.136-.847.651-1.129.543-.2-.06-.081-.445-.043-.608l.288-.852c.119-.347,2.2-6.515,2.427-7.221.337-1.032.19-2.047-1.346-1.8-.418.043-4.658.592-4.734.6a.544.544,0,0,0,.071,1.086s1.629-.212,1.808-.228a.478.478,0,0,1,.461.239,1.341,1.341,0,0,1-.038.928c-.141.543-2.372,6.83-2.443,7.193a1.509,1.509,0,0,0,.641,1.629,2.715,2.715,0,0,0,1.672.451,4.631,4.631,0,0,0,1.678-.337A8.841,8.841,0,0,0,18.5,20.386a.543.543,0,0,0-.152-.7Z" transform="translate(0 -4.531)" fill="#fff"/>
  </g>
</svg>
