<svg xmlns="http://www.w3.org/2000/svg" width="30.642" height="26.811" viewBox="0 0 30.642 26.811">
  <path id="jcow" d="M26.811,7.66h-3.83a87.168,87.168,0,0,1-.419,9.455,20.078,20.078,0,0,1-1.392,5.865,6.475,6.475,0,0,1-2.349,2.993,6.642,6.642,0,0,1-3.5.838,13.218,13.218,0,0,1-3.68-.509A8.064,8.064,0,0,1,8.768,24.9,2.506,2.506,0,0,1,7.66,22.981q0-.778.015-1.167t.1-1.047a3.4,3.4,0,0,1,.284-1.047,3.848,3.848,0,0,1,.584-.823,3.078,3.078,0,0,1,.928-.7q-.18-.808-.763-2.618A24.306,24.306,0,0,1,7.946,12a27.766,27.766,0,0,1-.284-4.339H3.83A7.82,7.82,0,0,1,1,7.257,1.5,1.5,0,0,1,0,5.745,3.811,3.811,0,0,1,1.167,3.187,3.533,3.533,0,0,1,3.83,1.915a5.528,5.528,0,0,1,2.02.464A9.281,9.281,0,0,1,7.96,3.561,5.248,5.248,0,0,1,10.653,1a10.429,10.429,0,0,1,4.668-1,10.429,10.429,0,0,1,4.668,1,5.248,5.248,0,0,1,2.693,2.559,9.257,9.257,0,0,1,2.11-1.182,5.533,5.533,0,0,1,2.02-.464,3.533,3.533,0,0,1,2.663,1.272,3.811,3.811,0,0,1,1.167,2.559,1.5,1.5,0,0,1-1,1.511A7.85,7.85,0,0,1,26.811,7.66ZM14.363,1.915a7.325,7.325,0,0,0-1.556.134,1.616,1.616,0,0,0-.868.434,1.622,1.622,0,0,0-.359.584,2.624,2.624,0,0,0-.089.763,3.4,3.4,0,0,0,.3,1.287q.3.718.658,1.556a13.626,13.626,0,0,1,.658,3.112,43.305,43.305,0,0,1,.3,5.536,9.451,9.451,0,0,1-.314,2.439,2.623,2.623,0,0,1-.643,1.392q-2.873,1.406-2.873,2.873,0,1.287,1.93,2.079a11.637,11.637,0,0,0,4.443.793,3.612,3.612,0,0,0,.359-.344,4.441,4.441,0,0,0,.569-.973,3.557,3.557,0,0,0,.359-1.556,66.8,66.8,0,0,1,.479-7.242q.479-4.28.958-7.481t.479-3.471q0-.808-1.406-1.362A9.218,9.218,0,0,0,14.363,1.915Z" fill="#fff"/>
</svg>
