<svg xmlns="http://www.w3.org/2000/svg" width="17.231" height="17.542" viewBox="0 0 17.231 17.542">
  <g id="Group_350" data-name="Group 350" transform="translate(-15.464 94.728)">
    <path id="Exclusion_1" data-name="Exclusion 1" d="M-523.7-11244.909l0,0,2.851-3.513a8.3,8.3,0,0,1-2.263-5.7,8.332,8.332,0,0,1,8.319-8.327,8.334,8.334,0,0,1,8.322,8.327,8.336,8.336,0,0,1-8.322,8.33,6.7,6.7,0,0,1-3.072-.616l-.171-.065-5.663,1.565Zm7.451-7.754v2.922h2.917v-2.922h2.92v-2.921h-2.92v-2.92h-2.917v2.92h-2.917v2.921Z" transform="translate(539.164 11167.724)" fill="#fff"/>
  </g>
</svg>
