<svg xmlns="http://www.w3.org/2000/svg" width="19.576" height="21.766" viewBox="0 0 19.576 21.766">
  <path id="Path_129" data-name="Path 129" d="M98.585,352.05h-.821c-.672-.746-2.786-.846-5.3-.846-2.96,0-5.6.424-6.492,1.22a3.154,3.154,0,0,0-.7.821c-1.493.547-4.1,1.617-4.1,5.472,0,5.572,3.781,9.2,3.781,10.024v1.99a2.248,2.248,0,0,0,2.165,2.239h7.686a2.387,2.387,0,0,0,2.263-1.965l1.069-13.259c.249-2.388,2.612-5.7,2.612-5.7ZM84.954,364.861c-1.244,0-3.334-8.806,0-9.3Zm9.95,2.96a.374.374,0,1,1-.747,0V356.453a.374.374,0,1,1,.747,0Z" transform="translate(-81.173 -351.204)" fill="#fff"/>
</svg>
