<svg id="show_simple_language" data-name="show simple language" xmlns="http://www.w3.org/2000/svg" width="22.123" height="20.767" viewBox="0 0 22.123 20.767">
  <g id="language">
    <g id="language-line" opacity="0.6">
      <path id="Path_51" data-name="Path 51" d="M21.982,3H10.564V6.568h1.427V4.427h9.991a.674.674,0,0,1,.714.714v7.85a.674.674,0,0,1-.714.714H12.7v5H8.922l-2.64,2.07V18.7H4.141a.674.674,0,0,1-.714-.714v-7.85a.674.674,0,0,1,.714-.714h9.277V8H4.141A2.1,2.1,0,0,0,2,10.136v7.85a2.1,2.1,0,0,0,2.141,2.141h.714v3.64l4.5-3.64h4.781v-5h7.85a2.1,2.1,0,0,0,2.141-2.141V5.141A2.1,2.1,0,0,0,21.982,3Z" transform="translate(-2 -3)"/>
      <path id="Path_52" data-name="Path 52" d="M6.2,20.351H7.913l.428-1.142h2.212l.428,1.142h1.713L10.268,14H8.555Zm3.211-4.567L10.125,18H8.7Z" transform="translate(-3.203 -6.15)"/>
      <path id="Path_53" data-name="Path 53" d="M20,13.85a6.7,6.7,0,0,0,2.855-.714,6.955,6.955,0,0,0,2.855.714V12.423a4.89,4.89,0,0,1-1.5-.285,5.424,5.424,0,0,0,1.5-4V7.427H23.568V6H22.141V7.427H20V8.855h4.21a3.587,3.587,0,0,1-1.356,2.569,4.171,4.171,0,0,1-1.142-1.5h-1.5A5.188,5.188,0,0,0,21.5,12.137a4.1,4.1,0,0,1-1.5.285V13.85Z" transform="translate(-7.155 -3.859)"/>
    </g>
  </g>
</svg>
