<svg xmlns="http://www.w3.org/2000/svg" width="29.332" height="22.47" viewBox="0 0 29.332 22.47">
  <g id="computer-line" transform="translate(-1 -5)">
    <path id="Path_101" data-name="Path 101" d="M9.383,21V10.383H22.173L23.539,9H8V21H9.383Z" transform="translate(-0.95 -0.543)" fill="#fff"/>
    <path id="Path_102" data-name="Path 102" d="M5.728,6.728H26.47V20.556H28.2V6.3A1.3,1.3,0,0,0,26.9,5H5.3A1.3,1.3,0,0,0,4,6.3v14.26H5.728Z" transform="translate(-0.407)" fill="#fff"/>
    <path id="Path_103" data-name="Path 103" d="M1,25v2.938a2.247,2.247,0,0,0,2.247,2.247H28.085a2.247,2.247,0,0,0,2.247-2.247V25Zm27.655,2.938a.519.519,0,0,1-.519.519H3.212a.519.519,0,0,1-.519-.519V26.322h8.6a1.417,1.417,0,0,0,1.3.864h6.162a1.417,1.417,0,0,0,1.3-.864h8.608Z" transform="translate(0 -2.715)" fill="#fff"/>
  </g>
</svg>
