<svg id="link" xmlns="http://www.w3.org/2000/svg" width="19.486" height="19.488" viewBox="0 0 19.486 19.488">
  <path id="Path_60" data-name="Path 60" d="M10.908,15.908a3.507,3.507,0,0,1,4.844,0l.807.807L18.173,15.1l-.807-.807a5.706,5.706,0,0,0-8.074,0L6.871,16.716a5.709,5.709,0,0,0,8.074,8.075l.807-.807-1.615-1.615-.807.807A3.426,3.426,0,0,1,8.485,18.33l2.423-2.422Z" transform="translate(-5.202 -6.971)" fill="#fff"/>
  <path id="Path_61" data-name="Path 61" d="M16.987,6.87l-.807.807,1.615,1.615.807-.807a3.426,3.426,0,1,1,4.845,4.845l-2.423,2.422a3.507,3.507,0,0,1-4.844,0l-.808-.808-1.615,1.615.807.807a5.706,5.706,0,0,0,8.074,0l2.423-2.422a5.71,5.71,0,1,0-8.075-8.075Z" transform="translate(-7.245 -5.2)" fill="#fff"/>
</svg>
