<svg xmlns="http://www.w3.org/2000/svg" width="29.813" height="20.25" viewBox="0 0 29.813 20.25">
  <g id="list" transform="translate(1.125 1.125)">
    <path id="Path_40" data-name="Path 40" d="M31.5,11.813H11.25a1.688,1.688,0,0,1,0-3.375H31.5a1.688,1.688,0,0,1,0,3.375Z" transform="translate(-4.5 -9)" fill="#fff"/>
    <path id="Path_41" data-name="Path 41" d="M31.5,19.688H11.25a1.688,1.688,0,0,1,0-3.375H31.5a1.688,1.688,0,0,1,0,3.375Z" transform="translate(-4.5 -9)" fill="#fff"/>
    <path id="Path_42" data-name="Path 42" d="M31.5,27.563H11.25a1.688,1.688,0,0,1,0-3.375H31.5a1.688,1.688,0,0,1,0,3.375Z" transform="translate(-4.5 -9)" fill="#fff"/>
    <path id="Path_43" data-name="Path 43" d="M5.625,7.875a2.25,2.25,0,1,1-2.25,2.25A2.253,2.253,0,0,1,5.625,7.875Z" transform="translate(-4.5 -9)" fill="#fff"/>
    <path id="Path_44" data-name="Path 44" d="M5.625,15.75A2.25,2.25,0,1,1,3.375,18,2.253,2.253,0,0,1,5.625,15.75Z" transform="translate(-4.5 -9)" fill="#fff"/>
    <path id="Path_45" data-name="Path 45" d="M5.625,23.625a2.25,2.25,0,1,1-2.25,2.25A2.253,2.253,0,0,1,5.625,23.625Z" transform="translate(-4.5 -9)" fill="#fff"/>
  </g>
</svg>
