<svg xmlns="http://www.w3.org/2000/svg" width="23.793" height="19.978" viewBox="0 0 23.793 19.978">
  <g id="Map_view" data-name="Map view" transform="translate(-10.2 4.87)">
    <path id="Map_icon" data-name="Map icon" d="M25.28,6.817,19.1,8.742v3.019H17.614V9L10.922,5.575V8.043H9.435V5.27L2.245,8.244A.394.394,0,0,0,2,8.6V23.992a.394.394,0,0,0,.55.364l6.885-2.84V18.453h1.487v3.368l6.692,3.428V22.17H19.1v2.818l6.417-2.008a.394.394,0,0,0,.275-.379V7.2a.394.394,0,0,0-.513-.379ZM10.922,16.966H9.435V13.991h1.487Zm0-4.461H9.435V9.53h1.487ZM19.1,20.683H17.614V17.709H19.1Zm0-4.461H17.614V13.248H19.1Z" transform="translate(8.2 -10.14)" fill="#fff"/>
  </g>
</svg>
