<svg id="money" xmlns="http://www.w3.org/2000/svg" width="16.875" height="13.5" viewBox="0 0 16.875 13.5">
  <path id="Path_27" data-name="Path 27" d="M15.75,4.5H1.125V15.75H15.75ZM14.625,14.625H2.25v-9H14.625Z" transform="translate(-1.125 -4.5)" fill="#fff"/>
  <path id="Path_28" data-name="Path 28" d="M19.688,10.125v9.563H6.75v1.125H20.813V10.125Z" transform="translate(-3.938 -7.313)" fill="#fff"/>
  <path id="Path_29" data-name="Path 29" d="M13.219,15.76a2.653,2.653,0,0,0,2.531-2.753,2.653,2.653,0,0,0-2.531-2.753,2.653,2.653,0,0,0-2.531,2.753A2.653,2.653,0,0,0,13.219,15.76Zm0-4.382a1.532,1.532,0,0,1,1.406,1.628,1.532,1.532,0,0,1-1.406,1.628,1.532,1.532,0,0,1-1.406-1.628,1.532,1.532,0,0,1,1.406-1.628Z" transform="translate(-5.906 -7.377)" fill="#fff"/>
  <path id="Path_30" data-name="Path 30" d="M5.625,9.563H6.75V15.75H5.625Z" transform="translate(-3.375 -7.031)" fill="#fff"/>
  <path id="Path_31" data-name="Path 31" d="M23.625,9.563H24.75V15.75H23.625Z" transform="translate(-12.375 -7.031)" fill="#fff"/>
</svg>
