<svg xmlns="http://www.w3.org/2000/svg" width="18.878" height="30.607" viewBox="0 0 18.878 30.607">
  <path id="Path_125" data-name="Path 125" d="M324.88,346.868a1.322,1.322,0,0,1,1.135-.49l3.224,3.475.132-.005.133.005,3.243-3.475a1.3,1.3,0,0,1,1.118.49c.4.566.161-.985-.727-.985h-7.532C324.718,345.882,324.475,347.432,324.88,346.868Zm4.492-.485h2.657l-2.607,2.722v-.016l-.05.057-.049-.057v.016l-2.544-2.722Zm-7.88,30.106h1.63l1.291-2.6h-.907Zm12.981-2.6,1.2,2.6H337.3l-1.926-2.6Zm-8.164-1.017h6.241v-1.813h-6.241Zm12.515-19.606c0-1.6-6.6-1.716-6.6-1.716l-1.109-1.184-3.426-.019-1.43,1.193s-5.483.1-6.281,1.725c0,0,.023,16.048.023,16.876s1.622,2.733,2.731,2.733c1.6,0,2.686.008,2.686.008l-.024-2.7h8.118v2.718s1.422-.027,2.777-.027,2.568-2.392,2.568-2.726C338.857,368.933,338.824,353.263,338.824,353.263Zm-12.225.143a.431.431,0,0,0,.006.063.509.509,0,0,1,.5-.449h4.59a.51.51,0,0,1,.5.449.468.468,0,0,0,.007-.063v.125a.408.408,0,0,0-.007-.061.551.551,0,0,1-.5.5h-4.59a.549.549,0,0,1-.5-.5.4.4,0,0,0-.006.061Zm-3.431,16.117a.732.732,0,1,1,.723-.732.727.727,0,0,1-.723.732m5.845-6.666a1.018,1.018,0,0,1-1.02,1.019h-6.047a1.019,1.019,0,0,1-1.02-1.019v-6.969a1.018,1.018,0,0,1,1.02-1.019h6.047a1.02,1.02,0,0,1,1.02,1.019Zm6.771,6.722a.732.732,0,1,1,.723-.731.727.727,0,0,1-.723.731m2.229-6.722a1.019,1.019,0,0,1-1.02,1.019h-6.075a1.018,1.018,0,0,1-1.019-1.019V355.89a1.018,1.018,0,0,1,1.019-1.02h6.076a1.02,1.02,0,0,1,1.02,1.02Z" transform="translate(-319.98 -345.882)" fill="#fff" fill-rule="evenodd"/>
</svg>
