<svg id="people" xmlns="http://www.w3.org/2000/svg" width="13.963" height="10.238" viewBox="0 0 13.963 10.238">
  <path id="Path_36" data-name="Path 36" d="M11.1,7.468a2.033,2.033,0,0,1-1.481-.683,2.64,2.64,0,0,1-.688-1.614,2.211,2.211,0,0,1,.559-1.687,2.257,2.257,0,0,1,3.216,0,2.2,2.2,0,0,1,.562,1.683,2.653,2.653,0,0,1-.688,1.614A2.028,2.028,0,0,1,11.1,7.468ZM12.842,5.14Z" transform="translate(-1.678 -2.813)" fill="#fff"/>
  <path id="Path_37" data-name="Path 37" d="M13.906,13.934H6.933a.733.733,0,0,1-.582-.282.8.8,0,0,1-.139-.682,3.483,3.483,0,0,1,1.6-2.144,5.007,5.007,0,0,1,2.612-.7,4.965,4.965,0,0,1,2.611.689,3.468,3.468,0,0,1,1.6,2.157.8.8,0,0,1-.141.682.732.732,0,0,1-.581.281Z" transform="translate(-0.689 -3.696)" fill="#fff"/>
  <path id="Path_38" data-name="Path 38" d="M4.565,7.852A1.989,1.989,0,0,1,2.74,5.923a1.865,1.865,0,0,1,.476-1.418,1.816,1.816,0,0,1,1.349-.567,1.811,1.811,0,0,1,1.347.57,1.848,1.848,0,0,1,.476,1.416A1.988,1.988,0,0,1,4.566,7.852Z" transform="translate(-1.1 -3.092)" fill="#fff"/>
  <path id="Path_39" data-name="Path 39" d="M5.764,10.134a4.017,4.017,0,0,0-1.736-.342,4.092,4.092,0,0,0-2.131.572A2.872,2.872,0,0,0,.584,12.128a.725.725,0,0,0,.126.618.67.67,0,0,0,.533.26H4.178a.211.211,0,0,0,.208-.174c0-.017.007-.033.011-.05a3.834,3.834,0,0,1,1.526-2.217.211.211,0,0,0-.017-.354C5.866,10.186,5.818,10.161,5.764,10.134Z" transform="translate(-0.561 -3.613)" fill="#fff"/>
</svg>
