<svg id="print" xmlns="http://www.w3.org/2000/svg" width="25.415" height="25.113" viewBox="0 0 25.415 25.113">
  <g id="print-2" data-name="print">
    <path id="Path_46" data-name="Path 46" d="M28.848,11.205a.565.565,0,0,0-.571-.517H24.158V4.164a.565.565,0,0,0-.575-.554H8.706a.564.564,0,0,0-.575.554v6.525H4.011a.564.564,0,0,0-.571.517h0v11.12a.565.565,0,0,0,.575.553H8.131V18.247H24.158v4.631h4.119a.565.565,0,0,0,.575-.553V11.205h0Zm-6.257,1.962H9.7v-7.5a.565.565,0,0,1,.575-.554H22.016a.564.564,0,0,1,.575.554v7.5Z" transform="translate(-3.437 -3.61)" fill="#fff"/>
    <path id="Path_47" data-name="Path 47" d="M10.657,31.731c0,.364.22.659.492.659h9.99c.272,0,.492-.294.492-.659v-8.87H10.657v8.87Z" transform="translate(-3.437 -7.277)" fill="#fff"/>
  </g>
</svg>
