<svg xmlns="http://www.w3.org/2000/svg" width="25.495" height="21.905" viewBox="0 0 25.495 21.905">
  <g id="Group_196" data-name="Group 196" transform="translate(-162.19 -354.142)">
    <path id="Path_130" data-name="Path 130" d="M186.987,354.142h-24.1a.711.711,0,0,0-.7.7v15.512a.711.711,0,0,0,.7.7h11.138v2.308a10.887,10.887,0,0,0-3.838.886.973.973,0,0,0-.484,1.235.938.938,0,0,0,.859.564.955.955,0,0,0,.375-.08,10.2,10.2,0,0,1,4-.752,10.008,10.008,0,0,1,4,.752.938.938,0,1,0,.751-1.719,11.866,11.866,0,0,0-3.838-.886v-2.308h11.138a.711.711,0,0,0,.7-.7V354.84A.711.711,0,0,0,186.987,354.142Zm-.7,15.513h-22.7V355.538h22.7Z" fill="#fff"/>
    <path id="Path_131" data-name="Path 131" d="M184.868,356.961h-19.86V368.2h19.86Zm-18.062,2.978,1.208-1.208a.7.7,0,0,1,.993.993l-1.208,1.208a.722.722,0,0,1-.483.215.676.676,0,0,1-.484-.215A.691.691,0,0,1,166.806,359.939Zm5.4.43-3.785,3.757a.72.72,0,0,1-.483.215.672.672,0,0,1-.483-.215.712.712,0,0,1,0-.993l3.784-3.784a.712.712,0,0,1,.993,0A.775.775,0,0,1,172.2,360.369Z" fill="#fff"/>
  </g>
</svg>
