<svg xmlns="http://www.w3.org/2000/svg" width="22.215" height="22.216" viewBox="0 0 22.215 22.216">
  <path id="search_icon" data-name="search icon" d="M22.841,20.456q-.819-.784-1.593-1.613c-.434-.441-.695-.761-.695-.761L17.29,16.522a8.179,8.179,0,1,0-.767.768l1.559,3.263s.321.261.761.695,1.044,1,1.613,1.593l1.583,1.622.7.753,2.472-2.472-.753-.7c-.442-.434-1.032-1.009-1.622-1.585ZM11.159,16.986a5.828,5.828,0,1,1,5.828-5.828A5.834,5.834,0,0,1,11.159,16.986Z" transform="translate(-3 -3)" fill="#fff"/>
</svg>
