<svg id="share" xmlns="http://www.w3.org/2000/svg" width="27.004" height="22.499" viewBox="0 0 27.004 22.499">
  <path id="share-2" data-name="share" d="M31.268,16.2,21.347,6.919a.507.507,0,0,0-.394-.169c-.309.014-.7.232-.7.563v4.655a.3.3,0,0,1-.253.288c-9.865,1.511-14.02,8.894-15.49,16.558-.056.3.352.584.541.345,3.6-4.535,7.98-7.5,14.906-7.552a.347.347,0,0,1,.3.337v4.57a.6.6,0,0,0,1.02.373l9.991-9.443a.777.777,0,0,0,.246-.591.941.941,0,0,0-.239-.654Z" transform="translate(-4.502 -6.749)" fill="#fff"/>
</svg>
