<svg id="Logotype" xmlns="http://www.w3.org/2000/svg" xmlns:xlink="http://www.w3.org/1999/xlink" width="283.889" height="50.98" viewBox="0 0 283.889 50.98">
  <defs>
    <clipPath id="clip-path">
      <rect id="Rectangle_11" data-name="Rectangle 11" width="51" height="50.981" fill="#fff"/>
    </clipPath>
  </defs>
  <g id="Lion">
    <g id="Group_10" data-name="Group 10" clip-path="url(#clip-path)">
      <path id="Path_15" data-name="Path 15" d="M40.533,7.446a.9.9,0,0,1-.357-.821.93.93,0,0,1,.518-.732A4.477,4.477,0,0,1,43.4,5.777C39.247,2.279,32.578,0,25.891,0S12.535,2.279,8.383,5.777a4.477,4.477,0,0,1,2.705.116.93.93,0,0,1,.518.732.9.9,0,0,1-.357.821C11.142,7.526,1.857,14.791,0,23.09a8.035,8.035,0,0,1,2.794-1.8.942.942,0,0,1,.911.187A.909.909,0,0,1,4,22.349c-.027.134-2.322,11.477,1.42,18.063a13.4,13.4,0,0,1,.437-2.472.949.949,0,0,1,.884-.651.894.894,0,0,1,.893.625c.036.1,3.107,8.781,9.455,12.887a8.262,8.262,0,0,1-.1-3.347.943.943,0,0,1,.679-.7,1.029,1.029,0,0,1,.232-.027.932.932,0,0,1,.7.3c1.206,1.312,4.848,4.73,7.295,4.73s6.089-3.418,7.294-4.73a.927.927,0,0,1,.928-.277.942.942,0,0,1,.679.7,8.261,8.261,0,0,1-.1,3.347c6.348-4.105,9.419-12.788,9.455-12.887a.938.938,0,0,1,1.777.027,13.407,13.407,0,0,1,.437,2.472c3.75-6.586,1.446-17.929,1.42-18.063a.908.908,0,0,1,.295-.874.92.92,0,0,1,.911-.187,8.03,8.03,0,0,1,2.794,1.8C49.925,14.79,40.641,7.526,40.533,7.446Zm.714,12.012c-1.268,6.149-4.758,8.951-6.357,9.933a1.626,1.626,0,0,1-.071-.169,89.621,89.621,0,0,1-4.3-11.084c.277-.982,1.5-1.472,2.527-1.6,1.384-.178,2.669.232,2.973.955h0a.951.951,0,0,0,1.759-.723c-.75-1.8-3.036-2.365-4.973-2.124-2.3.295-3.955,1.624-4.214,3.4a1.1,1.1,0,0,0,.027.419,93.2,93.2,0,0,0,4.491,11.6c1.053,2.106.866,5.479-.321,8.353-3.553-.232-5.018-1.856-5.589-2.927h0a5.821,5.821,0,0,0,4.294-4.614.939.939,0,0,0-.205-.776.979.979,0,0,0-.741-.331h-9.3a.979.979,0,0,0-.741.33.939.939,0,0,0-.205.776,5.8,5.8,0,0,0,4.295,4.605c-.571,1.071-2.044,2.7-5.589,2.936-1.187-2.874-1.375-6.247-.321-8.353h0a76.8,76.8,0,0,0,4.285-11.628A.835.835,0,0,0,23,18.048c-.259-1.785-1.884-3.114-4.143-3.4-1.884-.241-4.107.33-4.848,2.124a.951.951,0,0,0,1.759.723c.295-.714,1.527-1.124,2.848-.964.982.125,2.187.625,2.446,1.615a75.2,75.2,0,0,1-4.1,11.084,1.282,1.282,0,0,1-.072.16c-1.589-1-5.1-3.837-6.357-9.933A7.64,7.64,0,0,1,12.759,12.6c3-3.168,8.116-4.774,13-4.078a.677.677,0,0,0,.268,0c4.9-.7,10,.91,13,4.078a7.64,7.64,0,0,1,2.223,6.854ZM25.891,43.839a7.04,7.04,0,0,1-5.955-3.6,7.978,7.978,0,0,0,5.955-3.266,7.978,7.978,0,0,0,5.955,3.266A7.039,7.039,0,0,1,25.891,43.839ZM22.57,31.675h6.642a3.692,3.692,0,0,1-6.642,0Z" transform="translate(0.004 0.001)" fill="#fff"/>
      <path id="Path_16" data-name="Path 16" d="M370.84,405.957a1.339,1.339,0,1,1-1.339-1.339,1.339,1.339,0,0,1,1.339,1.339" transform="translate(-351.213 -385.997)" fill="#fff"/>
      <path id="Path_17" data-name="Path 17" d="M701.35,405.957a1.339,1.339,0,1,1-1.339-1.339,1.339,1.339,0,0,1,1.339,1.339" transform="translate(-666.51 -385.997)" fill="#fff"/>
    </g>
  </g>
  <path id="Path_18" data-name="Path 18" d="M8.539-32.683c-.112-.165-.421-.5-.421-.744,0-.468.646-.386.954-.386h5.951c.87,0,1.347.138,1.347,1.074a1.234,1.234,0,0,0,1.347,1.294,1.416,1.416,0,0,0,1.46-1.6,3.725,3.725,0,0,0-1.319-2.616,4.025,4.025,0,0,0-2.779-.909H9.129a3.817,3.817,0,0,0-2.33.5,3.056,3.056,0,0,0-1.488,2.644,3.275,3.275,0,0,0,.926,2.258l9.628,12.146c.112.165.505.578.505.8,0,.413-.7.33-.926.33H9.353c-.786,0-1.235-.11-1.235-.936a1.329,1.329,0,0,0-1.319-1.4,1.5,1.5,0,0,0-1.488,1.652A3.46,3.46,0,0,0,6.63-16.02a4.193,4.193,0,0,0,2.835.881h6.176c1.937,0,3.537-1.047,3.537-3.112a3.536,3.536,0,0,0-.982-2.286Zm26.724-1.129h4.126a1.283,1.283,0,0,0,1.4-1.377,1.283,1.283,0,0,0-1.4-1.377H28.329a1.283,1.283,0,0,0-1.4,1.377,1.283,1.283,0,0,0,1.4,1.377h4.126v15.919H28.329a1.283,1.283,0,0,0-1.4,1.377,1.283,1.283,0,0,0,1.4,1.377h11.06a1.283,1.283,0,0,0,1.4-1.377,1.283,1.283,0,0,0-1.4-1.377H35.263Zm20.211,2.093-3.425-4.847H48.54v20.05c0,.881.393,1.377,1.4,1.377s1.4-.5,1.4-1.377V-32.765H51.4l2.667,3.883v.441c0,.854.393,1.652,1.4,1.652,1.067,0,1.4-.8,1.4-1.652v-.441l2.667-3.883H59.6v16.249c0,.881.393,1.377,1.4,1.377s1.4-.5,1.4-1.377v-20.05H58.9Zm14.681,16.58h7.86c3.565,0,6.007-2.121,6.007-5.729,0-2.038-.253-3.5-1.853-4.985A5.281,5.281,0,0,0,84.022-30.2c0-3.883-1.881-6.362-6.007-6.362h-7.86Zm2.807-9.336h5.053c2.554,0,3.2,1.294,3.2,3.608,0,2.093-1.179,2.974-3.2,2.974H72.962Zm0-9.336h5.053c2.554,0,3.2,1.294,3.2,3.608,0,2.093-1.179,2.974-3.2,2.974H72.962Zm18.808,17.3c-.2.661.561,1.377,1.347,1.377a1.66,1.66,0,0,0,1.516-1.377l1.067-3.3h5.979l1.039,3.3a1.66,1.66,0,0,0,1.516,1.377c.786,0,1.544-.716,1.347-1.377l-5.418-18.645c-.2-.716-.533-1.4-1.46-1.4-.9,0-1.207.661-1.432,1.4Zm9.123-6.059H96.485l2.19-7.464h.056Z" transform="translate(72.207 41.645)" fill="#fff"/>
  <path id="Path_19" data-name="Path 19" d="M7.929-19.2H11.1c.552,0,1.3-.116,1.3-.928,0-.793-.67-.928-1.3-.928H7.929v-1.9c0-.638-.138-1.276-.946-1.276s-.946.638-.946,1.276v1.9H5.426c-.631,0-1.3.135-1.3.928,0,.812.749.928,1.3.928h.611v5.047a3.3,3.3,0,0,0,.69,2.591,3.115,3.115,0,0,0,2.444.928h.966a3.1,3.1,0,0,0,2.6-.948,2.743,2.743,0,0,0,.65-1.547.942.942,0,0,0-.966-.928.964.964,0,0,0-.946.754c-.2.754-.552.812-1.321.812H9.19c-1.3,0-1.261-.6-1.261-1.644Zm19.335,8.566c.552,0,1.3-.116,1.3-.928,0-.793-.67-.928-1.3-.928H23.2a1.611,1.611,0,0,1-1.261-.348l-.473-.5a.9.9,0,0,1-.276-.541V-14.5h6.07c1.123,0,1.3-.309,1.3-1.373v-1.489a2.606,2.606,0,0,0-.985-2.417l-.769-.6a2.739,2.739,0,0,0-2.089-.677H22.987a2.573,2.573,0,0,0-2.089.773l-.67.561a2.425,2.425,0,0,0-.926,2.224v3.577a2.292,2.292,0,0,0,.966,2.088l.808.7a2.037,2.037,0,0,0,1.7.5Zm-6.07-7.039a.84.84,0,0,1,.394-.851l.65-.464A1.548,1.548,0,0,1,23.2-19.2h1.6a1.364,1.364,0,0,1,.907.232l.729.619c.256.232.237.522.237.87v1.122H21.193Zm13.737,5.2a1.449,1.449,0,0,0-.453.87.958.958,0,0,0,.946.967c.572,0,.946-.561,1.281-.967l2.4-2.9,2.4,2.9c.335.406.71.967,1.281.967a.958.958,0,0,0,.946-.967,1.449,1.449,0,0,0-.453-.87l-2.9-3.365,2.9-3.365a1.449,1.449,0,0,0,.453-.87.975.975,0,0,0-.946-.986c-.572,0-.946.58-1.281.986l-2.4,2.9-2.4-2.9c-.335-.406-.71-.986-1.281-.986a.975.975,0,0,0-.946.986,1.449,1.449,0,0,0,.453.87l2.9,3.365ZM53.458-19.2h3.173c.552,0,1.3-.116,1.3-.928,0-.793-.67-.928-1.3-.928H53.458v-1.9c0-.638-.138-1.276-.946-1.276s-.946.638-.946,1.276v1.9h-.611c-.631,0-1.3.135-1.3.928,0,.812.749.928,1.3.928h.611v5.047a3.3,3.3,0,0,0,.69,2.591,3.115,3.115,0,0,0,2.444.928h.966a3.1,3.1,0,0,0,2.6-.948,2.743,2.743,0,0,0,.65-1.547.942.942,0,0,0-.966-.928.964.964,0,0,0-.946.754c-.2.754-.552.812-1.321.812h-.966c-1.3,0-1.261-.6-1.261-1.644Zm32.067,0c1.36,0,1.675.232,1.675,1.624v.425H83.14a3.147,3.147,0,0,0-2.207.7,2.4,2.4,0,0,0-.926,2.069v.812a2.571,2.571,0,0,0,.985,2.282,3,3,0,0,0,2.148.657h1.813a1.74,1.74,0,0,0,1.163-.271l1.3-.657a.955.955,0,0,0,.966.928.93.93,0,0,0,.887-1.083l-.2-6.3a2.655,2.655,0,0,0-.848-2.2,3.023,3.023,0,0,0-2.444-.832h-2.6c-.631,0-1.3.135-1.3.928,0,.812.749.928,1.3.928Zm.434,3.906c1.045,0,1.34.309,1.34,1.334v.406l-2.089,1.064H83.12c-.453,0-1.222-.135-1.222-.754v-1.238c0-.677.749-.812,1.261-.812ZM101.292-19.2a1.4,1.4,0,0,1,1.163.367,1.015,1.015,0,0,0,.808.387.955.955,0,0,0,.966-.928c0-.522-.394-.754-.749-1.044a2.776,2.776,0,0,0-2.188-.638H98.06a2.4,2.4,0,0,0-2.6,2.359,2.291,2.291,0,0,0,1.656,2.262l4.454,1.992c.434.193.985.483.985.928,0,1.083-.907,1.025-1.577,1.025H98.415a2.023,2.023,0,0,1-1.518-.406.92.92,0,0,0-.729-.329.96.96,0,0,0-.985.928c0,.464.512.812.867,1.083a3.447,3.447,0,0,0,2.365.58h2.917c1.813,0,3.114-.89,3.114-2.765a2.642,2.642,0,0,0-1.853-2.63l-4.73-2.108c-.276-.116-.512-.232-.512-.541,0-.6.67-.522,1.064-.522Zm15.176,0a1.4,1.4,0,0,1,1.163.367,1.015,1.015,0,0,0,.808.387.955.955,0,0,0,.966-.928c0-.522-.394-.754-.749-1.044a2.776,2.776,0,0,0-2.188-.638h-3.232a2.4,2.4,0,0,0-2.6,2.359,2.291,2.291,0,0,0,1.656,2.262l4.454,1.992c.434.193.985.483.985.928,0,1.083-.907,1.025-1.577,1.025h-2.562a2.023,2.023,0,0,1-1.518-.406.92.92,0,0,0-.729-.329.96.96,0,0,0-.985.928c0,.464.512.812.867,1.083a3.447,3.447,0,0,0,2.365.58h2.917c1.813,0,3.114-.89,3.114-2.765a2.642,2.642,0,0,0-1.853-2.63l-4.73-2.108c-.276-.116-.512-.232-.512-.541,0-.6.67-.522,1.064-.522Zm14.684-.561c0-1.1-.315-1.3-1.4-1.3h-1.991c-.631,0-1.3.135-1.3.928,0,.812.749.928,1.3.928h1.5v6.71h-1.5c-.631,0-1.3.135-1.3.928,0,.812.749.928,1.3.928h4.809c.552,0,1.3-.116,1.3-.928,0-.793-.67-.928-1.3-.928h-1.419Zm-2.858-4.158a.775.775,0,0,0,.887.87h1.084a.775.775,0,0,0,.887-.87v-.89a.775.775,0,0,0-.887-.87h-1.084a.775.775,0,0,0-.887.87ZM146.821-19.2a1.4,1.4,0,0,1,1.163.367,1.015,1.015,0,0,0,.808.387.955.955,0,0,0,.966-.928c0-.522-.394-.754-.749-1.044a2.776,2.776,0,0,0-2.188-.638h-3.232a2.4,2.4,0,0,0-2.6,2.359,2.291,2.291,0,0,0,1.656,2.262l4.454,1.992c.434.193.985.483.985.928,0,1.083-.907,1.025-1.577,1.025h-2.562a2.023,2.023,0,0,1-1.518-.406.92.92,0,0,0-.729-.329.96.96,0,0,0-.985.928c0,.464.512.812.867,1.083a3.447,3.447,0,0,0,2.365.58h2.917c1.813,0,3.114-.89,3.114-2.765a2.642,2.642,0,0,0-1.853-2.63l-4.73-2.108c-.276-.116-.512-.232-.512-.541,0-.6.67-.522,1.064-.522Zm12.87,0h3.173c.552,0,1.3-.116,1.3-.928,0-.793-.67-.928-1.3-.928h-3.173v-1.9c0-.638-.138-1.276-.946-1.276s-.946.638-.946,1.276v1.9h-.611c-.631,0-1.3.135-1.3.928,0,.812.749.928,1.3.928h.611v5.047a3.3,3.3,0,0,0,.69,2.591,3.115,3.115,0,0,0,2.444.928h.966a3.1,3.1,0,0,0,2.6-.948,2.743,2.743,0,0,0,.65-1.547.942.942,0,0,0-.966-.928.964.964,0,0,0-.946.754c-.2.754-.552.812-1.321.812h-.966c-1.3,0-1.261-.6-1.261-1.644Zm16.891,0c1.36,0,1.675.232,1.675,1.624v.425H174.2a3.147,3.147,0,0,0-2.207.7,2.4,2.4,0,0,0-.926,2.069v.812a2.571,2.571,0,0,0,.985,2.282,3,3,0,0,0,2.148.657h1.813a1.74,1.74,0,0,0,1.163-.271l1.3-.657a.955.955,0,0,0,.966.928.93.93,0,0,0,.887-1.083l-.2-6.3a2.655,2.655,0,0,0-.848-2.2,3.023,3.023,0,0,0-2.444-.832h-2.6c-.631,0-1.3.135-1.3.928,0,.812.749.928,1.3.928Zm.434,3.906c1.045,0,1.34.309,1.34,1.334v.406l-2.089,1.064h-2.089c-.453,0-1.222-.135-1.222-.754v-1.238c0-.677.749-.812,1.261-.812Zm13.915-3.732a1.157,1.157,0,0,1,.591-.174h.631c1.143,0,1.242.445,1.281,1.586l.2,5.724c.02.619.177,1.257.946,1.257.847,0,.946-.735.926-1.392l-.2-5.84c-.039-1.006,0-1.8-.848-2.514a2.415,2.415,0,0,0-1.754-.677h-1.4a3.141,3.141,0,0,0-1.636.619l-1.537.986V-19.7c0-.657-.1-1.354-.946-1.354-.867,0-.946.7-.946,1.373v7.774c0,.638.138,1.276.946,1.276s.946-.638.946-1.276v-5.4ZM205.22-19.2h3.173c.552,0,1.3-.116,1.3-.928,0-.793-.67-.928-1.3-.928H205.22v-1.9c0-.638-.138-1.276-.946-1.276s-.946.638-.946,1.276v1.9h-.611c-.631,0-1.3.135-1.3.928,0,.812.749.928,1.3.928h.611v5.047a3.3,3.3,0,0,0,.69,2.591,3.115,3.115,0,0,0,2.444.928h.966a3.1,3.1,0,0,0,2.6-.948,2.743,2.743,0,0,0,.65-1.547.942.942,0,0,0-.966-.928.964.964,0,0,0-.946.754c-.2.754-.552.812-1.321.812h-.966c-1.3,0-1.261-.6-1.261-1.644Z" transform="translate(73.21 58.751)" fill="#fff"/>
</svg>
