<svg xmlns="http://www.w3.org/2000/svg" width="282.921" height="277.991" viewBox="0 0 282.921 277.991">
  <g id="Path_72" data-name="Path 72" transform="translate(5.96)" fill="none">
    <path d="M0,0S20.611,4.539,55.825,6.165,108.432,0,164.286,0H276s2.162,17.519,0,46.652c-.926,12.475-12.722,33.364-5.96,53.921,4.236,12.878,0,34.736,0,46.356,0,70.75,6.921,123.219,6.921,123.219s-22.22,7.842-91.22,7.842c-35.535,0-85.969-9.311-121.416-7.842-33.151,1.374-70.286,0-70.286,0S.961,298.753.961,228c0-27.309-6.921-92.917-6.921-149.528S0,0,0,0Z" stroke="none"/>
    <path d="M 164.2854919433594 1 C 135.6211090087891 1 117.2769927978516 3.036956787109375 101.0923004150391 4.8341064453125 C 88.75030517578125 6.204620361328125 78.09138488769531 7.38818359375 65.37710571289062 7.38818359375 C 62.23085021972656 7.38818359375 59.00164794921875 7.312774658203125 55.77923583984375 7.163970947265625 C 37.55010986328125 6.322357177734375 23.30703735351562 4.686920166015625 14.56854248046875 3.463165283203125 C 7.4051513671875 2.459991455078125 2.65826416015625 1.56011962890625 0.7420654296875 1.174957275390625 C 0.27459716796875 3.1939697265625 -0.85870361328125 8.629058837890625 -1.98699951171875 18.12661743164062 C -2.84967041015625 25.38827514648438 -3.537109375 33.55050659179688 -4.030303955078125 42.38653564453125 C -4.647186279296875 53.43904113769531 -4.959991455078125 65.58100891113281 -4.959991455078125 78.47508239746094 C -4.959991455078125 111.8493499755859 -2.52935791015625 148.7006530761719 -0.57623291015625 178.3111572265625 C 0.78515625 198.9511566162109 1.96087646484375 216.7765045166016 1.96087646484375 228.0029296875 C 1.96087646484375 247.8354797363281 1.41424560546875 261.7288208007812 0.335540771484375 269.3410949707031 C 6.6419677734375 269.5103759765625 18.16921997070312 269.7595520019531 31.36976623535156 269.7595520019531 C 43.44718933105469 269.7595520019531 54.52119445800781 269.5543823242188 64.28422546386719 269.1497802734375 C 66.81460571289062 269.044921875 69.52149963378906 268.9917297363281 72.32962036132812 268.9917297363281 C 89.98007202148438 268.9917297363281 110.6327362060547 271.0682373046875 130.6053771972656 273.0763549804688 C 150.6290740966797 275.0895690917969 169.5422668457031 276.9912109375 185.7412261962891 276.9912109375 C 201.4101104736328 276.9912109375 215.9376220703125 276.5821228027344 228.9201507568359 275.7753601074219 C 239.3086090087891 275.1297302246094 248.7369537353516 274.2294921875 256.9432983398438 273.099609375 C 268.0516662597656 271.5701293945312 273.9022521972656 270.0245361328125 275.8634033203125 269.44482421875 C 275.4603271484375 266.2166137695312 273.9732360839844 253.8031311035156 272.5035705566406 235.1491241455078 C 270.9235229492188 215.0941467285156 269.0400390625 183.5094299316406 269.0400390625 146.9297027587891 C 269.0400390625 143.3645782470703 269.43701171875 138.8120727539062 269.8572692871094 133.9923095703125 C 270.3349914550781 128.5130462646484 270.8765258789062 122.3026885986328 270.919921875 116.4871215820312 C 270.9691772460938 109.8820037841797 270.3706665039062 104.7787780761719 269.0901184082031 100.8856964111328 C 264.3561096191406 86.49334716796875 268.5174255371094 71.99800109863281 271.8611145019531 60.35076904296875 C 273.3949279785156 55.00801086425781 274.7195739746094 50.39384460449219 275.0027160644531 46.57835388183594 C 276.1148681640625 31.59173583984375 276.0570068359375 19.75897216796875 275.8125305175781 12.47146606445312 C 275.6155090332031 6.597198486328125 275.2691040039062 2.65289306640625 275.1023864746094 1 L 164.2854919433594 1 M -4.632232666015625 271.1949462890625 C -4.52471923828125 271.5497436523438 -4.39599609375 271.9498291015625 -4.250579833984375 272.3567199707031 C -3.711273193359375 273.8656005859375 -3.29376220703125 274.4922790527344 -3.079559326171875 274.7400817871094 C -2.976348876953125 274.5848693847656 -2.823211669921875 274.2996215820312 -2.645782470703125 273.7936706542969 C -2.421905517578125 273.1552734375 -2.208648681640625 272.3113708496094 -2.009246826171875 271.2760925292969 C -3.09063720703125 271.2444152832031 -3.974273681640625 271.2165222167969 -4.632232666015625 271.1949462890625 M 0 0 C 0 0 20.61083984375 4.5391845703125 55.82534790039062 6.1650390625 C 91.03968811035156 7.7908935546875 108.4317932128906 0 164.2854919433594 0 C 220.1391906738281 0 276 0 276 0 C 276 0 278.1619873046875 17.51889038085938 276 46.65234375 C 275.0741882324219 59.127197265625 263.2784118652344 80.01654052734375 270.0400390625 100.5732269287109 C 274.2761535644531 113.4516143798828 270.0400390625 135.3091583251953 270.0400390625 146.9297027587891 C 270.0400390625 217.6796875 276.9609069824219 270.14892578125 276.9609069824219 270.14892578125 C 276.9609069824219 270.14892578125 254.7412261962891 277.9912109375 185.7412261962891 277.9912109375 C 150.2062377929688 277.9912109375 99.77268981933594 268.6798706054688 64.32565307617188 270.14892578125 C 38.60868835449219 271.2147216796875 10.49295043945312 270.6268920898438 -0.8228759765625 270.3096923828125 C 0.197265625 264.0445861816406 0.96087646484375 251.5070953369141 0.96087646484375 228.0029296875 C 0.96087646484375 200.6934204101562 -5.959991455078125 135.0855407714844 -5.959991455078125 78.47508239746094 C -5.959991455078125 21.86465454101562 0 0 0 0 Z M -5.9599609375 270.14892578125 C -5.9599609375 270.14892578125 -4.0938720703125 270.2179870605469 -0.8228759765625 270.3096923828125 C -2.873504638671875 282.9034423828125 -5.9599609375 270.14892578125 -5.9599609375 270.14892578125 Z" stroke="none" fill="#707070"/>
  </g>
</svg>
