<svg xmlns="http://www.w3.org/2000/svg" width="282.921" height="287.627" viewBox="0 0 282.921 287.627">
  <g id="Path_69" data-name="Path 69" transform="translate(5.96 0.723)" fill="none">
    <path d="M0,0S17.371-1.626,52.585,0,85,6.5,140.858,6.5,276,0,276,0s2.162,17.519,0,46.652c-1.523,20.518.961,59.717.961,89.361C276.961,206.763,276,283,276,283s-32.831,3.9-101.831,3.9c-35.535,0-83.288-5.373-118.735-3.9C22.284,284.374,0,283,0,283s.961,15.753.961-55c0-27.309-6.921-92.917-6.921-149.528S0,0,0,0Z" stroke="none"/>
    <path d="M 23.30111694335938 0.277374267578125 C 10.56375122070312 0.277374267578125 3.0306396484375 0.767669677734375 0.7974853515625 0.938140869140625 C 0.370025634765625 2.743408203125 -0.8111572265625 8.22882080078125 -1.98699951171875 18.12661743164062 C -2.84967041015625 25.38827514648438 -3.537109375 33.55050659179688 -4.030303955078125 42.38653564453125 C -4.647186279296875 53.43904113769531 -4.959991455078125 65.58099365234375 -4.959991455078125 78.47508239746094 C -4.959991455078125 111.8493499755859 -2.52935791015625 148.7006530761719 -0.57623291015625 178.3111572265625 C 0.78515625 198.9511566162109 1.96087646484375 216.7764892578125 1.96087646484375 228.0029296875 C 1.96087646484375 263.8475341796875 1.710968017578125 277.3077087402344 1.479156494140625 282.0780639648438 C 4.666290283203125 282.236083984375 13.56741333007812 282.6106262207031 26.32876586914062 282.6106262207031 C 35.85127258300781 282.6106262207031 45.62983703613281 282.4054565429688 55.39288330078125 282.0008544921875 C 59.47946166992188 281.8315124511719 63.9613037109375 281.74560546875 68.71383666992188 281.74560546875 C 85.76615905761719 281.74560546875 104.8301544189453 282.8306579589844 123.2664947509766 283.8799743652344 C 141.5578460693359 284.9209899902344 158.8347778320312 285.904296875 174.1689147949219 285.904296875 C 209.7704925537109 285.904296875 235.5298767089844 284.8446044921875 250.8702239990234 283.9556579589844 C 264.4519348144531 283.1685791015625 272.4830932617188 282.3731689453125 275.0109558105469 282.103271484375 C 275.1171264648438 273.3722839355469 275.9608764648438 201.8800659179688 275.9608764648438 136.0131988525391 C 275.9608764648438 124.4938812255859 275.58203125 111.4140014648438 275.2156372070312 98.7647705078125 C 274.6257934570312 78.40003967285156 274.0686645507812 59.16465759277344 275.0027160644531 46.57833862304688 C 276.1148681640625 31.59173583984375 276.0570068359375 19.75897216796875 275.8125305175781 12.47146606445312 C 275.6184387207031 6.6839599609375 275.2793273925781 2.770050048828125 275.1099243164062 1.074981689453125 C 270.802734375 1.419281005859375 252.6338500976562 2.8426513671875 229.4346923828125 4.2498779296875 C 204.9653472900391 5.734100341796875 169.7353057861328 7.50341796875 140.8580017089844 7.50341796875 C 107.0353088378906 7.50341796875 94.501953125 5.693817138671875 82.38130187988281 3.943817138671875 C 74.53707885742188 2.81121826171875 66.42581176757812 1.64007568359375 52.53910827636719 0.998931884765625 C 42.16868591308594 0.5201416015625 32.33161926269531 0.277374267578125 23.30111694335938 0.277374267578125 M 23.30113220214844 -0.72259521484375 C 31.09201049804688 -0.72259521484375 40.84562683105469 -0.542022705078125 52.58523559570312 0 C 87.79972839355469 1.6258544921875 85.00430297851562 6.50341796875 140.8580017089844 6.50341796875 C 196.7117004394531 6.50341796875 276 0 276 0 C 276 0 278.1619873046875 17.51889038085938 276 46.65234375 C 274.4772644042969 67.17019653320312 276.9608764648438 106.3689270019531 276.9608764648438 136.0131988525391 C 276.9608764648438 206.76318359375 276 283 276 283 C 276 283 243.1689147949219 286.904296875 174.1689147949219 286.904296875 C 142.9087982177734 286.904296875 102.1887817382812 282.7456359863281 68.71383666992188 282.7456359863281 C 64.13607788085938 282.7456359863281 59.69856262207031 282.8232727050781 55.43431091308594 283 C 24.94422912597656 284.2636108398438 3.64666748046875 283.2028198242188 0.424407958984375 283.0244140625 C 0.6817626953125 279.1380615234375 0.96087646484375 266.1329650878906 0.96087646484375 228.0029296875 C 0.96087646484375 200.6934204101562 -5.959991455078125 135.0855407714844 -5.959991455078125 78.47508239746094 C -5.959991455078125 21.86465454101562 0 0 0 0 C 0 0 7.72222900390625 -0.72259521484375 23.30113220214844 -0.72259521484375 Z M 0 283 C 0 283 0.143218994140625 283.0088195800781 0.424407958984375 283.0244140625 C 0.204193115234375 286.3493957519531 0 283 0 283 Z" stroke="none" fill="#707070"/>
  </g>
</svg>
