<svg xmlns="http://www.w3.org/2000/svg" width="282.921" height="285.218" viewBox="0 0 282.921 285.218">
  <g id="Path_71" data-name="Path 71" transform="translate(5.96 0.723)" fill="none">
    <path d="M0,0S17.371-1.626,52.585,0s42.522,0,98.376,0H276s2.162,17.519,0,46.652c-1.523,20.518-1.039,63.352-1.039,93,0,70.75,2,130.5,2,130.5H173.341c-35.535,0-82.46,11.382-117.907,12.851C22.284,284.374,0,283,0,283s.961,15.753.961-55c0-27.309-6.921-92.917-6.921-149.528S0,0,0,0Z" stroke="none"/>
    <path d="M 23.30111694335938 0.277374267578125 C 10.56375122070312 0.277374267578125 3.0306396484375 0.767669677734375 0.7974853515625 0.938140869140625 C 0.370025634765625 2.743408203125 -0.8111572265625 8.22882080078125 -1.98699951171875 18.12661743164062 C -2.84967041015625 25.38827514648438 -3.537109375 33.55050659179688 -4.030303955078125 42.38653564453125 C -4.647186279296875 53.43904113769531 -4.959991455078125 65.58099365234375 -4.959991455078125 78.47508239746094 C -4.959991455078125 111.8493499755859 -2.52935791015625 148.7006530761719 -0.57623291015625 178.3111572265625 C 0.78515625 198.9511566162109 1.96087646484375 216.7764892578125 1.96087646484375 228.0029296875 C 1.96087646484375 263.8475341796875 1.710968017578125 277.3077087402344 1.479156494140625 282.0780639648438 C 4.666290283203125 282.236083984375 13.56741333007812 282.6106262207031 26.32876586914062 282.6106262207031 C 35.85127258300781 282.6106262207031 45.62983703613281 282.4054565429688 55.39288330078125 282.0008544921875 C 71.59750366210938 281.3292541503906 90.66104125976562 278.5124206542969 109.096923828125 275.7882995605469 C 131.1875 272.5242004394531 154.0301513671875 269.14892578125 173.3409118652344 269.14892578125 L 275.9281616210938 269.14892578125 C 275.6666564941406 260.9005126953125 273.9609069824219 204.5722503662109 273.9609069824219 139.64892578125 C 273.9609069824219 134.1120300292969 273.9442138671875 128.1739654541016 273.9265441894531 121.8871917724609 C 273.8492431640625 94.42622375488281 273.7616577148438 63.30126953125 275.0027160644531 46.57833862304688 C 276.1148681640625 31.59173583984375 276.0570068359375 19.75897216796875 275.8125305175781 12.47146606445312 C 275.6155090332031 6.597198486328125 275.2691040039062 2.652862548828125 275.1023864746094 1 L 150.9609222412109 1 C 128.6779632568359 1 114.1310729980469 1.258758544921875 102.4424285888672 1.466705322265625 C 94.72250366210938 1.60400390625 88.05531311035156 1.722625732421875 81.32899475097656 1.722625732421875 C 72.25827026367188 1.722625732421875 63.379150390625 1.499420166015625 52.53910827636719 0.998931884765625 C 42.16868591308594 0.5201416015625 32.33161926269531 0.277374267578125 23.30111694335938 0.277374267578125 M 23.30113220214844 -0.72259521484375 C 31.09201049804688 -0.72259521484375 40.84562683105469 -0.542022705078125 52.58523559570312 0 C 87.79974365234375 1.625823974609375 95.10722351074219 3.0517578125e-05 150.9609222412109 0 C 206.8146057128906 0 276 0 276 0 C 276 0 278.1619873046875 17.51889038085938 276 46.65234375 C 274.4772644042969 67.17019653320312 274.9609069824219 110.0046539306641 274.9609069824219 139.64892578125 C 274.9609069824219 210.39892578125 276.9609069824219 270.14892578125 276.9609069824219 270.14892578125 C 276.9609069824219 270.14892578125 242.3409271240234 270.14892578125 173.3409118652344 270.14892578125 C 137.8059234619141 270.14892578125 90.88107299804688 281.5309753417969 55.43431091308594 283 C 24.94422912597656 284.2636108398438 3.64666748046875 283.2028198242188 0.424407958984375 283.0244140625 C 0.6817626953125 279.1380615234375 0.96087646484375 266.1329650878906 0.96087646484375 228.0029296875 C 0.96087646484375 200.6934204101562 -5.959991455078125 135.0855407714844 -5.959991455078125 78.47508239746094 C -5.959991455078125 21.86465454101562 0 0 0 0 C 0 0 7.72222900390625 -0.72259521484375 23.30113220214844 -0.72259521484375 Z M 0 283 C 0 283 0.143218994140625 283.0088195800781 0.424407958984375 283.0244140625 C 0.204193115234375 286.3493957519531 0 283 0 283 Z" stroke="none" fill="#707070"/>
  </g>
</svg>
