<svg xmlns="http://www.w3.org/2000/svg" width="284.163" height="291.068" viewBox="0 0 284.163 291.068">
  <g id="Path_70" data-name="Path 70" transform="translate(0 282.18) rotate(-90)" fill="none">
    <path d="M0,0H52.585S287.792,14.979,282.078,3.6,278.162,17.519,276,46.652c-1.523,20.518-7.568,47.38-7.568,77.024C268.432,194.427,276,283,276,283s-33.172-5.691-102.172-5.691c-35.535,0-82.947,4.222-118.394,5.691C22.284,284.374,0,283,0,283V226.442c0-27.309-8.888-98.84-8.888-98.84Z" stroke="none"/>
    <path d="M 0.9327392578125 1 L -7.883880615234375 127.5742645263672 C -7.704803466796875 129.0227355957031 -5.5638427734375 146.4124908447266 -3.449493408203125 166.6767272949219 C -1.419677734375 186.1310119628906 0.999969482421875 212.2915802001953 0.999969482421875 226.4418029785156 L 0.999969482421875 282.0534362792969 C 3.83843994140625 282.2004089355469 12.96206665039062 282.6106262207031 26.32879638671875 282.6106262207031 C 35.85128784179688 282.6106262207031 45.62986755371094 282.4054565429688 55.39289855957031 282.0008544921875 C 68.34779357910156 281.4639587402344 82.70420837402344 280.5713806152344 97.90351867675781 279.6263732910156 C 124.1351013183594 277.9955139160156 151.2597045898438 276.30908203125 173.8282775878906 276.30908203125 C 209.5062103271484 276.30908203125 235.4180908203125 277.8583374023438 250.8729400634766 279.1580505371094 C 263.9464721679688 280.2574768066406 271.9612426757812 281.3703308105469 274.8972778320312 281.8139953613281 C 274.4714050292969 276.6703491210938 272.8354187011719 256.4229736328125 271.2178344726562 229.9305725097656 C 269.49072265625 201.6443786621094 267.4319458007812 160.2491912841797 267.4319458007812 123.6767730712891 C 267.4319458007812 104.6863555908203 269.9024047851562 86.84381103515625 272.08203125 71.10165405273438 C 273.3019714355469 62.29061889648438 274.4542846679688 53.96827697753906 275.0027160644531 46.57835388183594 C 275.6583557128906 37.74327087402344 275.944091796875 29.4005126953125 276.1961669921875 22.03985595703125 C 276.3965759277344 16.18756103515625 276.5726928710938 11.04507446289062 276.8973693847656 7.30322265625 C 270.5864562988281 8.341796875 258.8517150878906 8.867889404296875 241.966552734375 8.867889404296875 C 207.9361724853516 8.867889404296875 158.2367858886719 6.727874755859375 122.5365600585938 4.932708740234375 C 84.41400146484375 3.015655517578125 53.71864318847656 1.073944091796875 52.55374145507812 1 L 0.9327392578125 1 M 279.8709106445312 1.962860107421875 C 279.7821350097656 2.13970947265625 279.6592102050781 2.4490966796875 279.5269775390625 2.975738525390625 C 279.403564453125 3.46734619140625 279.29150390625 4.064605712890625 279.1884460449219 4.782318115234375 C 280.5280151367188 4.41717529296875 280.9917907714844 4.099853515625 281.1402587890625 3.96343994140625 C 280.5148620605469 2.731536865234375 280.0961608886719 2.193023681640625 279.8709106445312 1.962860107421875 M -3.0517578125e-05 0 L 52.585205078125 0 C 52.585205078125 0 176.1289672851562 7.867889404296875 241.9665679931641 7.867889404296875 C 258.7115173339844 7.867889404296875 271.7218322753906 7.358856201171875 278.0198364257812 6.082275390625 C 277.1739196777344 13.93923950195312 277.2624206542969 29.64065551757812 275.9999694824219 46.65234375 C 274.4772644042969 67.17019653320312 268.4319458007812 94.03250122070312 268.4319458007812 123.6767730712891 C 268.4319458007812 194.4267730712891 275.9999694824219 283 275.9999694824219 283 C 275.9999694824219 283 242.8282928466797 277.30908203125 173.8282775878906 277.30908203125 C 138.2932891845703 277.30908203125 90.88105773925781 281.5309753417969 55.434326171875 283 C 22.28363037109375 284.3738403320312 0 283 -3.0517578125e-05 283 L -3.0517578125e-05 284.1634216308594 C -3.0517578125e-05 284.1634216308594 -3.0517578125e-05 276.9349670410156 -3.0517578125e-05 226.4418029785156 C -3.0517578125e-05 199.1323089599609 -8.88818359375 127.6013031005859 -8.88818359375 127.6013031005859 L -3.0517578125e-05 0 Z M 279.7823486328125 0.816436767578125 C 280.3721008300781 0.816436767578125 281.1195373535156 1.693695068359375 282.07763671875 3.601318359375 C 282.5973205566406 4.636016845703125 281.1271362304688 5.452423095703125 278.0198364257812 6.082275390625 C 278.3796997070312 2.73974609375 278.9085388183594 0.816436767578125 279.7823486328125 0.816436767578125 Z" stroke="none" fill="#707070"/>
  </g>
</svg>
