<svg xmlns="http://www.w3.org/2000/svg" width="276.961" height="284.164" viewBox="0 0 276.961 284.164">
  <g id="Path_68" data-name="Path 68" fill="none">
    <path d="M0,0H52.585a69.833,69.833,0,0,0,20,3.181C83.229,3.181,95.154,0,95.154,0H276s2.162,17.519,0,46.652c-1.523,20.518-7.568,47.38-7.568,77.024C268.432,194.427,276,283,276,283s-33.172-5.691-102.172-5.691c-35.535,0-82.947,4.222-118.394,5.691C22.284,284.374,0,283,0,283V226.442c0-27.309,7.342-106.174,7.342-106.174Z" stroke="none"/>
    <path d="M 1.06292724609375 1 L 8.344940185546875 120.2835388183594 L 8.337799072265625 120.3602600097656 C 8.3194580078125 120.557373046875 6.481719970703125 140.336181640625 4.667724609375 163.195068359375 C 2.994537353515625 184.2796936035156 1 212.3677215576172 1 226.4418029785156 L 1 282.0534362792969 C 3.83843994140625 282.2003784179688 12.9620361328125 282.610595703125 26.32876586914062 282.610595703125 C 35.85130310058594 282.610595703125 45.6298828125 282.4054565429688 55.39291381835938 282.0008544921875 C 68.34780883789062 281.4639587402344 82.7042236328125 280.5713806152344 97.90353393554688 279.6263732910156 C 124.1351165771484 277.9954833984375 151.2597351074219 276.30908203125 173.8283081054688 276.30908203125 C 209.5062255859375 276.30908203125 235.4181060791016 277.8583374023438 250.8729553222656 279.1580200195312 C 263.9464721679688 280.2574768066406 271.9612731933594 281.3703002929688 274.8973083496094 281.8139953613281 C 274.471435546875 276.6703491210938 272.8354187011719 256.4229736328125 271.2178344726562 229.9305725097656 C 269.49072265625 201.6443786621094 267.4319458007812 160.2491912841797 267.4319458007812 123.6767578125 C 267.4319458007812 104.6863403320312 269.9024047851562 86.84379577636719 272.08203125 71.10165405273438 C 273.302001953125 62.29060363769531 274.4543151855469 53.96826171875 275.0027160644531 46.57833862304688 C 276.1148681640625 31.59173583984375 276.0570068359375 19.75894165039062 275.8125305175781 12.47146606445312 C 275.6155090332031 6.597198486328125 275.2691040039062 2.652862548828125 275.1023864746094 1 L 95.28330993652344 1 C 94.66062927246094 1.1619873046875 91.89569091796875 1.863311767578125 88.04292297363281 2.574005126953125 C 84.06814575195312 3.307159423828125 78.16018676757812 4.18115234375 72.58714294433594 4.18115234375 C 67.00119018554688 4.18115234375 61.77999877929688 3.3038330078125 58.38357543945312 2.56787109375 C 55.19830322265625 1.877685546875 53.01873779296875 1.19390869140625 52.42399597167969 1 L 1.06292724609375 1 M 0 0 L 52.58522033691406 0 C 52.58522033691406 0 61.94491577148438 3.18115234375 72.58714294433594 3.18115234375 C 83.22941589355469 3.18115234375 95.15422058105469 0 95.15422058105469 0 L 276 0 C 276 0 278.1619873046875 17.51889038085938 276 46.65234375 C 274.4772644042969 67.17018127441406 268.4319458007812 94.03250122070312 268.4319458007812 123.6767578125 C 268.4319458007812 194.4267578125 276 283 276 283 C 276 283 242.8283081054688 277.30908203125 173.8283081054688 277.30908203125 C 138.2933044433594 277.30908203125 90.88107299804688 281.5309448242188 55.43434143066406 283 C 22.28352355957031 284.3738708496094 0 283 0 283 L 0 284.1633911132812 C 0 284.1633911132812 0 276.9349670410156 0 226.4418029785156 C 0 199.1323394775391 7.34210205078125 120.267578125 7.34210205078125 120.267578125 L 0 0 Z" stroke="none" fill="#707070"/>
  </g>
</svg>
