<svg xmlns="http://www.w3.org/2000/svg" width="22.814" height="21.417" viewBox="0 0 22.814 21.417">
  <path id="Path_110" data-name="Path 110" d="M165.567,7.969h14.9a3.969,3.969,0,0,1,3.958,3.957v8.226a3.97,3.97,0,0,1-3.958,3.958h-14.9a3.97,3.97,0,0,1-3.958-3.958V11.926A3.969,3.969,0,0,1,165.567,7.969ZM162.88,27.906a.554.554,0,0,1,0-1.109H168.9a.554.554,0,1,1,0,1.109Zm7.962-2.033a.555.555,0,1,1,1.109,0V26.8h11.2a.554.554,0,0,1,0,1.109h-11.2v.926a.555.555,0,0,1-1.109,0Zm.178-13.9,6.041,3.6a.55.55,0,0,1-.005.951l-6.087,3.624a.551.551,0,0,1-.755-.193.558.558,0,0,1-.078-.282h0V12.411a.554.554,0,0,1,.885-.444ZM175.7,16.04l-4.459-2.656V18.7Z" transform="translate(-161.609 -7.969)" fill="#fff" fill-rule="evenodd"/>
</svg>
