<svg xmlns="http://www.w3.org/2000/svg" width="58.474" height="58.5" viewBox="0 0 58.474 58.5">
  <g id="data-unstructured" transform="translate(-2.25 -2.25)">
    <path id="Path_213" data-name="Path 213" d="M10.6,28.927A4.177,4.177,0,1,1,6.427,33.1,4.177,4.177,0,0,1,10.6,28.927m0-4.177A8.353,8.353,0,1,0,18.957,33.1,8.353,8.353,0,0,0,10.6,24.75Z" transform="translate(0 19.267)" fill="#fff"/>
    <path id="Path_214" data-name="Path 214" d="M21.853,6.427A4.177,4.177,0,1,1,17.677,10.6a4.177,4.177,0,0,1,4.177-4.177m0-4.177A8.353,8.353,0,1,0,30.207,10.6,8.353,8.353,0,0,0,21.853,2.25Z" transform="translate(9.634)" fill="#fff"/>
    <path id="Path_215" data-name="Path 215" d="M33.1,6.427A4.177,4.177,0,1,1,28.927,10.6,4.177,4.177,0,0,1,33.1,6.427m0-4.177A8.353,8.353,0,1,0,41.457,10.6,8.353,8.353,0,0,0,33.1,2.25Z" transform="translate(19.267)" fill="#fff"/>
    <path id="Path_216" data-name="Path 216" d="M26.03,28.927V37.28H17.677V28.927H26.03m4.177-4.177H13.5V41.457H30.207Z" transform="translate(9.634 19.267)" fill="#fff"/>
    <path id="Path_217" data-name="Path 217" d="M54.459,44.308V33.575A4.177,4.177,0,0,0,50.282,29.4H12.692V18.957h6.265V2.25H2.25V18.957H8.515V29.4a4.177,4.177,0,0,0,4.177,4.177h37.59V44.308a8.353,8.353,0,1,0,4.177,0ZM6.427,6.427H14.78V14.78H6.427ZM52.37,56.547a4.177,4.177,0,1,1,4.177-4.177A4.177,4.177,0,0,1,52.37,56.547Z" fill="#fff"/>
  </g>
</svg>
