<svg xmlns="http://www.w3.org/2000/svg" width="18.258" height="17.528" viewBox="0 0 18.258 17.528">
  <path id="thumbs-down" d="M2.921,3.652a.74.74,0,0,1-.73.73.7.7,0,0,1-.519-.217.727.727,0,0,1,.519-1.244.711.711,0,0,1,.513.211.7.7,0,0,1,.217.519ZM4.747,9.494v-7.3a.7.7,0,0,0-.217-.513.7.7,0,0,0-.513-.217H.73a.7.7,0,0,0-.513.217A.7.7,0,0,0,0,2.191v7.3a.7.7,0,0,0,.217.513.7.7,0,0,0,.513.217H4.016a.74.74,0,0,0,.73-.73Zm12.883-1.7a2.448,2.448,0,0,1,.628,1.7,2.156,2.156,0,0,1-.656,1.541,2.085,2.085,0,0,1-1.535.65H12.906a2.872,2.872,0,0,0,.091.274,1.942,1.942,0,0,0,.125.251q.08.137.114.205.205.422.308.65a4.441,4.441,0,0,1,.217.667,3.464,3.464,0,0,1,.114.873q0,.274-.006.445a4.888,4.888,0,0,1-.057.513,2.847,2.847,0,0,1-.137.571,2.648,2.648,0,0,1-.274.513,1.6,1.6,0,0,1-.456.462,2.5,2.5,0,0,1-.685.3,3.444,3.444,0,0,1-.941.121.7.7,0,0,1-.513-.217,1.983,1.983,0,0,1-.388-.571,3.4,3.4,0,0,1-.223-.593q-.063-.251-.143-.7-.1-.479-.154-.69a3.716,3.716,0,0,0-.2-.554,1.731,1.731,0,0,0-.354-.548A16.827,16.827,0,0,1,8.193,12.29q-.559-.73-1.152-1.381t-.867-.673A.747.747,0,0,1,5.683,10a.694.694,0,0,1-.206-.5V2.191a.683.683,0,0,1,.217-.508.756.756,0,0,1,.513-.223,8.339,8.339,0,0,0,1.8-.5q.878-.3,1.375-.451T10.772.177A8.523,8.523,0,0,1,12.415,0h1.472a2.836,2.836,0,0,1,2.248.89,2.741,2.741,0,0,1,.559,2.065,2.226,2.226,0,0,1,.616,1.073,2.341,2.341,0,0,1,0,1.335,2.369,2.369,0,0,1,.49,1.564,2.76,2.76,0,0,1-.171.867Z" fill="#fff"/>
</svg>
