<svg xmlns="http://www.w3.org/2000/svg" width="20.49" height="20.49" viewBox="0 0 20.49 20.49">
  <path id="transgender" d="M17.97,2.25V3.714h2.272L15.557,8.4a5.084,5.084,0,0,0-6.124,0L8.407,7.373,9.433,6.338,8.4,5.3,7.373,6.338,4.749,3.714H6.794V2.25H2.25V6.913H3.714V4.749L6.338,7.373,5.3,8.4,6.338,9.433,7.373,8.407,8.4,9.433a5.107,5.107,0,0,0,3.366,8.126v1.522H10.3v1.464h1.464v2.2h1.464v-2.2H14.5V19.081H13.227V17.559a5.107,5.107,0,0,0,3.365-8.126l4.685-4.685V6.913H22.74V2.25ZM12.5,16.154A3.659,3.659,0,1,1,16.154,12.5,3.659,3.659,0,0,1,12.5,16.154Z" transform="translate(-2.25 -2.25)" fill="#fff"/>
</svg>
