<svg xmlns="http://www.w3.org/2000/svg" width="15.224" height="17.763"><path fill="#fff" fill-rule="evenodd" d="M0 8.881a.634.634 0 0 1 .634-.634h13.955a.634.634 0 1 1 0 1.269H.634A.634.634 0 0 1 0 8.881Zm7.612-1.9a.634.634 0 0 0 .634-.634V.635a.634.634 0 0 0-1.269 0v5.709a.634.634 0 0 0 .635.634Z"/><path fill="#fff" fill-rule="evenodd" d="M10.598 3.622a.634.634 0 0 0 0-.9L8.061.187a.634.634 0 0 0-.9 0L4.625 2.724a.636.636 0 0 0 .9.9l2.087-2.091L9.7 3.623a.634.634 0 0 0 .9 0Zm-2.986 7.163a.634.634 0 0 1 .634.634v5.709a.634.634 0 0 1-1.269 0v-5.709a.634.634 0 0 1 .635-.634Z"/><path fill="#fff" fill-rule="evenodd" d="M10.598 14.141a.634.634 0 0 1 0 .9l-2.537 2.536a.634.634 0 0 1-.9 0L4.624 15.04a.636.636 0 0 1 .9-.9l2.088 2.089 2.088-2.09a.634.634 0 0 1 .9 0Z"/></svg>