<svg xmlns="http://www.w3.org/2000/svg" width="15.148" height="17.672"><path fill="#fff" fill-rule="evenodd" d="M0 8.836a.63.63 0 0 1 .631-.631h13.886a.631.631 0 1 1 0 1.262H.631A.63.63 0 0 1 0 8.836M7.574 0a.63.63 0 0 1 .631.631v5.68a.631.631 0 0 1-1.262 0V.631A.63.63 0 0 1 7.574 0"/><path fill="#fff" fill-rule="evenodd" d="M10.544 3.34a.63.63 0 0 1 0 .894L8.019 6.759a.63.63 0 0 1-.894 0L4.602 4.234a.632.632 0 0 1 .894-.894l2.078 2.079L9.652 3.34a.63.63 0 0 1 .894 0Zm-2.97 14.332a.63.63 0 0 0 .631-.631v-5.68a.631.631 0 0 0-1.262 0v5.68a.63.63 0 0 0 .631.631"/><path fill="#fff" fill-rule="evenodd" d="M10.544 14.332a.63.63 0 0 0 0-.894l-2.525-2.525a.63.63 0 0 0-.894 0L4.6 13.438a.632.632 0 0 0 .894.894l2.08-2.076 2.078 2.079a.63.63 0 0 0 .894 0Z"/></svg>