<svg xmlns="http://www.w3.org/2000/svg" width="1505.006" height="549.168"><g fill="none"><path d="M16.006.682s185.148-1.535 282.709 0 104.325 6.075 161.54 6.075S609.546.682 609.546.682l315.489 10.062L1499.84.682s11.623 33.815 0 90.047c-8.187 39.6-6.225 164.664-6.225 221.883 0 136.56 6.225 234.31 6.225 234.31s-178.338-10.984-549.3-10.984c-191.044 0-445.942 8.149-636.511 10.984-178.223 2.652-298.023.004-298.023.004V437.755C16.006 385.042 0 300.193 0 190.926S16.006.682 16.006.682Z"/><path d="M182.06 1c-78.372 0-156.408.605-165.226.675-.772 4.08-4.327 23.518-7.841 53.296a1163.98 1163.98 0 0 0-5.496 60.214C1.84 140.547 1 166.03 1 190.925c0 28.672 1.097 58.136 3.355 90.076 1.964 27.777 4.524 53.488 6.783 76.173 3.149 31.619 5.868 58.926 5.868 80.58v108.189c7.657.157 59.699 1.158 140.549 1.158 51.268 0 103.91-.397 156.463-1.179 69.699-1.037 146.905-2.76 228.646-4.585 140.95-3.146 286.7-6.4 407.88-6.4 84.618 0 166.154.578 242.34 1.717 60.95.911 118.634 2.182 171.448 3.776 82.118 2.48 126.935 4.989 134.44 5.427-.32-5.272-1.69-28.72-3.044-64.842a4411.65 4411.65 0 0 1-2.14-74.16c-.645-31.38-.973-63.087-.973-94.243 0-8.35-.042-18.338-.088-28.912-.27-63.415-.679-159.249 6.334-193.173 2.636-12.754 4.278-25.397 4.88-37.577.483-9.743.304-19.214-.53-28.15-1.19-12.764-3.401-20.799-4.1-23.105l-574.083 10.05-.025-.001-315.44-10.061c-1.201.079-23.978 1.566-53.156 3.035-49.894 2.511-79.827 3.039-96.152 3.039-26.863 0-42.298-.98-61.839-2.22-21.354-1.354-47.931-3.04-99.717-3.855-28.77-.453-68.013-.683-116.639-.683m0-1c41.888 0 84.131.17 116.655.683 97.561 1.535 104.325 6.075 161.54 6.075 57.215 0 149.291-6.075 149.291-6.075l315.489 10.062L1499.84.682s11.623 33.814 0 90.047c-8.186 39.603-6.225 164.664-6.225 221.883 0 136.56 6.225 234.31 6.225 234.31s-178.338-10.985-549.296-10.985c-191.044 0-445.942 8.15-636.512 10.985-59.404.884-112.327 1.179-156.477 1.179-88.309 0-141.55-1.179-141.55-1.179v2.246-111.413C16.006 385.043 0 300.194 0 190.925 0 81.657 16.006.682 16.006.682S98.299-.001 182.06-.001Z" fill="#707070"/></g></svg>