<svg xmlns="http://www.w3.org/2000/svg" width="32" height="29"><path fill="none" d="M0 0h32v29H0z"/><path fill="#1d9f9d" d="M15.464 5.441a1.9 1.9 0 0 1 .7.135l7.786 3.11a.79.79 0 0 1 .5.739v9.461a1.34 1.34 0 0 1-.844 1.246l-7.847 3.142a.8.8 0 0 1-.592 0L7.32 20.136a1.33 1.33 0 0 1-.845-1.246V9.429a.79.79 0 0 1 .5-.743l7.786-3.11a1.9 1.9 0 0 1 .703-.135m0 17.39a.3.3 0 0 0 .11-.021l7.847-3.142a.84.84 0 0 0 .53-.782V9.425a.3.3 0 0 0-.186-.275l-7.786-3.11a1.4 1.4 0 0 0-1.032 0L7.161 9.15a.29.29 0 0 0-.186.277v9.463a.84.84 0 0 0 .53.782l7.847 3.138a.3.3 0 0 0 .112.021m0-16.3a.8.8 0 0 1 .3.057l7.1 2.844-7.394 2.957-7.394-2.958 7.1-2.843a.8.8 0 0 1 .288-.059Zm6.047 2.9-5.937-2.38a.3.3 0 0 0-.22 0L9.415 9.43l6.048 2.42Zm1.848.433v9.191l-7.6 3.04v-9.191Zm-.5 8.852v-8.119l-6.6 2.64v8.113ZM7.567 9.868l7.6 3.039v9.19l-7.6-3.041Zm7.1 3.378-6.6-2.639v8.115l6.6 2.641Z"/></svg>