<svg xmlns="http://www.w3.org/2000/svg" width="13.945" height="13.88"><g fill="#1cadad"><path d="M7.129 1.12a.42.42 0 0 0-.313 0L1.801 3.126l5.171 2.068 5.171-2.068Zm5.721 2.627L7.392 5.932v6.657l5.458-2.184V3.748Zm-6.3 8.843V5.931L1.09 3.747v6.658ZM6.504.34a1.26 1.26 0 0 1 .936 0l5.99 2.4a.42.42 0 0 1 .264.39v7.279a.84.84 0 0 1-.528.78L7.129 13.6a.42.42 0 0 1-.313 0L.779 11.185a.84.84 0 0 1-.529-.78V3.126a.42.42 0 0 1 .264-.39Z" fill-rule="evenodd"/><path d="M6.973 0a1.5 1.5 0 0 1 .561.108l5.99 2.4a.667.667 0 0 1 .421.622v7.279a1.085 1.085 0 0 1-.686 1.012l-6.037 2.411a.673.673 0 0 1-.5 0L.686 11.417A1.085 1.085 0 0 1 0 10.405V3.126a.667.667 0 0 1 .421-.622l5.99-2.4A1.5 1.5 0 0 1 6.973 0Zm0 13.381a.169.169 0 0 0 .063-.012l6.038-2.415a.588.588 0 0 0 .371-.548v-7.28a.169.169 0 0 0-.107-.158L7.35.572a1.015 1.015 0 0 0-.751 0l-5.99 2.4a.169.169 0 0 0-.107.158v7.279a.587.587 0 0 0 .372.548l6.037 2.415a.17.17 0 0 0 .062.005Zm0-12.54a.667.667 0 0 1 .249.048l5.595 2.238-5.845 2.336-5.844-2.337L6.723.888a.667.667 0 0 1 .25-.048Zm4.5 2.286L7.036 1.352a.171.171 0 0 0-.127 0L2.475 3.126l4.5 1.8Zm1.634.252v7.2l-5.965 2.38v-7.2Zm-.5 6.857V4.117L7.642 6.101v6.119ZM.84 3.377l5.962 2.385v7.2L.84 10.577Zm5.462 2.724L1.34 4.117v6.119l4.962 1.985Z"/></g></svg>