<svg xmlns="http://www.w3.org/2000/svg" width="27.003" height="22.503"><path d="M26.98 8.774a1.1 1.1 0 0 0-.07-.217l-2.656-6.2a4.061 4.061 0 0 0-3.8-2.358h-13.9a4.058 4.058 0 0 0-3.8 2.358l-2.659 6.2A1.091 1.091 0 0 0 .004 9v12.374a1.125 1.125 0 0 0 1.125 1.125h2.253a1.125 1.125 0 0 0 1.119-1.125v-1.121h18v1.121a1.125 1.125 0 0 0 1.125 1.125h2.25a1.125 1.125 0 0 0 1.125-1.125V9.003a1.138 1.138 0 0 0-.022-.226ZM5.628 15.75a2.25 2.25 0 1 1 2.25-2.25 2.25 2.25 0 0 1-2.25 2.25m15.75 0a2.25 2.25 0 1 1 2.25-2.25 2.25 2.25 0 0 1-2.25 2.25M2.834 7.874l1.985-4.63a1.848 1.848 0 0 1 1.731-.995h13.906a1.85 1.85 0 0 1 1.731.995l1.985 4.63Z" fill="#fff"/></svg>