<svg xmlns="http://www.w3.org/2000/svg" width="25.653" height="21.378"><path fill="#fff" d="M25.631 8.338a1 1 0 0 0-.067-.206l-2.523-5.89a3.86 3.86 0 0 0-3.61-2.24H6.222a3.86 3.86 0 0 0-3.61 2.24L.086 8.132A1.05 1.05 0 0 0 0 8.553v11.756a1.07 1.07 0 0 0 1.068 1.069h2.141a1.07 1.07 0 0 0 1.069-1.069V19.24h17.1v1.069a1.07 1.07 0 0 0 1.068 1.069h2.138a1.07 1.07 0 0 0 1.069-1.069V8.553a1 1 0 0 0-.021-.215ZM5.346 14.965a2.138 2.138 0 1 1 2.138-2.137 2.137 2.137 0 0 1-2.138 2.137m14.963 0a2.138 2.138 0 1 1 2.137-2.137 2.14 2.14 0 0 1-2.137 2.137M2.692 7.484l1.886-4.4a1.76 1.76 0 0 1 1.644-.945h13.211a1.76 1.76 0 0 1 1.644.945l1.886 4.4Z"/></svg>