<svg xmlns="http://www.w3.org/2000/svg" width="35.359" height="36.703"><path fill="#fff" d="M17.617 0A17.45 17.45 0 0 0 3.92 6.828l5.444 8.686a9.09 9.09 0 0 1 9.453-6.242l14.644.81A18 18 0 0 0 26.52 2.46 17.1 17.1 0 0 0 17.617 0M2.887 8.3A18.77 18.77 0 0 0 0 18.353a18.16 18.16 0 0 0 14.943 18.132l4.523-9.236a9.03 9.03 0 0 1-9.933-5.379Zm31.287 3.444-9.969.551a9.73 9.73 0 0 1 .48 11.618l-8 12.759a17.07 17.07 0 0 0 9.829-2.43 18.7 18.7 0 0 0 7.657-22.5Zm-16.5.417a6.08 6.08 0 0 0-5.962 6.189 6.08 6.08 0 0 0 5.962 6.189 6.08 6.08 0 0 0 5.962-6.189 6.08 6.08 0 0 0-5.958-6.187Z"/></svg>