<svg xmlns="http://www.w3.org/2000/svg" width="35.359" height="36.703"><path fill="#fff" d="M17.617 0A17.453 17.453 0 0 0 3.92 6.828l5.444 8.686a9.092 9.092 0 0 1 9.453-6.242l14.644.81A18 18 0 0 0 26.52 2.46 17.1 17.1 0 0 0 17.617 0ZM2.887 8.3A18.77 18.77 0 0 0 0 18.353a18.161 18.161 0 0 0 14.943 18.132l4.523-9.236a9.028 9.028 0 0 1-9.933-5.379Zm31.287 3.444-9.969.551a9.729 9.729 0 0 1 .48 11.618l-8 12.759a17.073 17.073 0 0 0 9.829-2.43 18.7 18.7 0 0 0 7.657-22.5Zm-16.5.417a6.079 6.079 0 0 0-5.962 6.189 6.079 6.079 0 0 0 5.962 6.189 6.079 6.079 0 0 0 5.962-6.189 6.079 6.079 0 0 0-5.958-6.187Z"/></svg>