<svg xmlns="http://www.w3.org/2000/svg" width="17.326" height="13"><path fill="#fff" d="m5.416 10.661-.473.473a.3.3 0 0 1-.435 0L.095 6.718a.3.3 0 0 1 0-.435L4.507 1.87a.3.3 0 0 1 .435 0l.473.473a.3.3 0 0 1 0 .435L1.695 6.5l3.721 3.721a.3.3 0 0 1 0 .435Zm5.6-10.1L7.479 12.777a.3.3 0 0 1-.147.185.26.26 0 0 1-.222.024l-.587-.161a.3.3 0 0 1-.185-.147.28.28 0 0 1-.023-.232L9.848.223a.3.3 0 0 1 .147-.185.26.26 0 0 1 .222-.023l.587.161a.3.3 0 0 1 .185.147.28.28 0 0 1 .022.231Zm6.221 6.164-4.412 4.412a.3.3 0 0 1-.435 0l-.479-.476a.3.3 0 0 1 0-.435l3.721-3.721-3.721-3.726a.3.3 0 0 1 0-.435l.473-.473a.3.3 0 0 1 .435 0l4.412 4.412a.3.3 0 0 1 0 .435Z"/></svg>