<svg xmlns="http://www.w3.org/2000/svg" width="41.018" height="41.018"><defs><clipPath id="a"><path fill="none" d="M0 0h41.018v41.018H0z"/></clipPath></defs><g clip-path="url(#a)"><g fill="none" stroke="#fff" stroke-linejoin="round" stroke-width="2.25"><path d="M8.582 4.107h23.855a4.473 4.473 0 0 1 4.473 4.475v23.855a4.473 4.473 0 0 1-4.473 4.473H8.582a4.473 4.473 0 0 1-4.473-4.473V8.582a4.473 4.473 0 0 1 4.473-4.475Z"/><path d="M11.562 10.071h17.893a1.491 1.491 0 0 1 1.491 1.491v17.893a1.491 1.491 0 0 1-1.491 1.491H11.562a1.491 1.491 0 0 1-1.491-1.491V11.562a1.491 1.491 0 0 1 1.491-1.491Z"/><path d="M20.509 4.107V1.125M27.964 4.107V1.125M13.053 4.107V1.125M20.509 39.892V36.91M27.964 39.892V36.91M13.053 39.892V36.91M36.91 20.509h2.982M36.91 27.964h2.982M36.91 13.053h2.982M1.125 20.509h2.982M1.125 27.964h2.982M1.125 13.053h2.982" stroke-linecap="round"/></g><path d="m27.221 19.461-1.539-.459a5.351 5.351 0 0 0-.436-1.07l.753-1.41a.28.28 0 0 0-.051-.331l-1.1-1.1a.28.28 0 0 0-.331-.051l-1.4.749a5.337 5.337 0 0 0-1.084-.459l-.459-1.52a.28.28 0 0 0-.269-.191h-1.549a.28.28 0 0 0-.266.2l-.463 1.513a5.341 5.341 0 0 0-1.093.459l-1.378-.744a.28.28 0 0 0-.331.051l-1.115 1.088a.28.28 0 0 0-.054.333l.744 1.378a5.342 5.342 0 0 0-.459 1.089l-1.52.459a.28.28 0 0 0-.2.266v1.552a.28.28 0 0 0 .2.266l1.529.459a5.337 5.337 0 0 0 .459 1.07l-.753 1.442a.28.28 0 0 0 .051.331l1.1 1.1a.28.28 0 0 0 .331.051l1.418-.763a5.351 5.351 0 0 0 1.056.432l.459 1.548a.28.28 0 0 0 .266.2h1.552a.28.28 0 0 0 .266-.2l.459-1.552a5.342 5.342 0 0 0 1.047-.432l1.428.762a.28.28 0 0 0 .331-.051l1.1-1.1a.28.28 0 0 0 .051-.331l-.762-1.424a5.342 5.342 0 0 0 .437-1.052l1.548-.459a.28.28 0 0 0 .2-.266v-1.562a.28.28 0 0 0-.17-.271Zm-6.692 3.573a2.526 2.526 0 1 1 2.527-2.526 2.526 2.526 0 0 1-2.526 2.526Z" fill="#fff"/></g></svg>