<svg xmlns="http://www.w3.org/2000/svg" width="35.966" height="35.966"><path fill="#fff" d="M31.469 35.965H4.495a4.334 4.334 0 0 1-3.179-1.317A4.323 4.323 0 0 1 0 31.469V4.5a4.334 4.334 0 0 1 1.317-3.183A4.327 4.327 0 0 1 4.496 0H31.47a4.334 4.334 0 0 1 3.179 1.317A4.327 4.327 0 0 1 35.966 4.5v26.97a4.5 4.5 0 0 1-4.5 4.5ZM4.513 33.717a2.121 2.121 0 0 0 1.58-.667 2.214 2.214 0 0 0 .65-1.6 2.144 2.144 0 0 0-.65-1.58 2.179 2.179 0 0 0-1.6-.65 2.169 2.169 0 0 0-1.6.65 2.148 2.148 0 0 0-.65 1.58 2.189 2.189 0 0 0 .667 1.6 2.168 2.168 0 0 0 1.6.667ZM4.495 2.248a2.172 2.172 0 0 0-1.6.65 2.151 2.151 0 0 0-.65 1.58 2.211 2.211 0 0 0 .65 1.6 2.139 2.139 0 0 0 1.6.667 2.149 2.149 0 0 0 1.6-.667 2.207 2.207 0 0 0 .65-1.6 2.147 2.147 0 0 0-.65-1.58 2.183 2.183 0 0 0-1.6-.65ZM17.985 4.5a13.205 13.205 0 0 0-6.764 1.8 13.39 13.39 0 0 0-4.917 4.917 13.539 13.539 0 0 0 0 13.522 13.39 13.39 0 0 0 4.917 4.917 13.539 13.539 0 0 0 13.522 0 13.39 13.39 0 0 0 4.917-4.917 13.539 13.539 0 0 0 0-13.522A13.39 13.39 0 0 0 24.743 6.3a13.205 13.205 0 0 0-6.758-1.8Zm13.484-2.252a2.22 2.22 0 0 0-2.248 2.23 2.211 2.211 0 0 0 .65 1.6 2.248 2.248 0 0 0 3.2 0 2.207 2.207 0 0 0 .65-1.6 2.147 2.147 0 0 0-.65-1.58 2.183 2.183 0 0 0-1.6-.65Zm0 26.974a2.22 2.22 0 0 0-2.248 2.23 2.211 2.211 0 0 0 .65 1.6 2.248 2.248 0 0 0 3.2 0 2.207 2.207 0 0 0 .65-1.6 2.147 2.147 0 0 0-.65-1.58 2.183 2.183 0 0 0-1.602-.65Zm-8.991-11.239a4.461 4.461 0 0 1-.527 2.072 17.568 17.568 0 0 1 3.7 1.177 8.409 8.409 0 0 1 2.441 1.528 10.1 10.1 0 0 1-5.62 5.339 16.453 16.453 0 0 0-.4-4.039 6.071 6.071 0 0 0-1.316-2.56 4.326 4.326 0 0 1-2.771.979 4.461 4.461 0 0 1-2.072-.527 17.568 17.568 0 0 1-1.177 3.7 8.409 8.409 0 0 1-1.532 2.448 10.1 10.1 0 0 1-5.339-5.62 16.453 16.453 0 0 0 4.039-.4 6.071 6.071 0 0 0 2.564-1.317 4.326 4.326 0 0 1-.983-2.775 4.461 4.461 0 0 1 .527-2.072 17.568 17.568 0 0 1-3.7-1.177 8.409 8.409 0 0 1-2.441-1.528 10.1 10.1 0 0 1 5.614-5.345 16.452 16.452 0 0 0 .4 4.039 6.071 6.071 0 0 0 1.317 2.564 4.326 4.326 0 0 1 2.783-.983 4.461 4.461 0 0 1 2.072.527 17.568 17.568 0 0 1 1.177-3.7 8.409 8.409 0 0 1 1.528-2.441 10.1 10.1 0 0 1 5.339 5.62 16.452 16.452 0 0 0-4.039.4 6.071 6.071 0 0 0-2.564 1.317 4.326 4.326 0 0 1 .983 2.775Z"/></svg>