<svg xmlns="http://www.w3.org/2000/svg" width="35.966" height="35.966"><path fill="#fff" d="M31.469 35.965H4.495a4.33 4.33 0 0 1-3.179-1.317A4.32 4.32 0 0 1 0 31.469V4.5a4.33 4.33 0 0 1 1.317-3.183A4.33 4.33 0 0 1 4.496 0H31.47a4.33 4.33 0 0 1 3.179 1.317A4.33 4.33 0 0 1 35.966 4.5v26.97a4.5 4.5 0 0 1-4.5 4.5ZM4.513 33.717a2.12 2.12 0 0 0 1.58-.667 2.21 2.21 0 0 0 .65-1.6 2.14 2.14 0 0 0-.65-1.58 2.18 2.18 0 0 0-1.6-.65 2.17 2.17 0 0 0-1.6.65 2.15 2.15 0 0 0-.65 1.58 2.2 2.2 0 0 0 .667 1.6 2.17 2.17 0 0 0 1.6.667ZM4.495 2.248a2.17 2.17 0 0 0-1.6.65 2.15 2.15 0 0 0-.65 1.58 2.2 2.2 0 0 0 .65 1.6 2.14 2.14 0 0 0 1.6.667 2.15 2.15 0 0 0 1.6-.667 2.2 2.2 0 0 0 .65-1.6 2.15 2.15 0 0 0-.65-1.58 2.18 2.18 0 0 0-1.6-.65M17.985 4.5a13.2 13.2 0 0 0-6.764 1.8 13.4 13.4 0 0 0-4.917 4.917 13.54 13.54 0 0 0 0 13.522 13.4 13.4 0 0 0 4.917 4.917 13.54 13.54 0 0 0 13.522 0 13.4 13.4 0 0 0 4.917-4.917 13.54 13.54 0 0 0 0-13.522A13.4 13.4 0 0 0 24.743 6.3a13.2 13.2 0 0 0-6.758-1.8m13.484-2.252a2.22 2.22 0 0 0-2.248 2.23 2.2 2.2 0 0 0 .65 1.6 2.25 2.25 0 0 0 3.2 0 2.2 2.2 0 0 0 .65-1.6 2.15 2.15 0 0 0-.65-1.58 2.18 2.18 0 0 0-1.6-.65Zm0 26.974a2.22 2.22 0 0 0-2.248 2.23 2.2 2.2 0 0 0 .65 1.6 2.25 2.25 0 0 0 3.2 0 2.2 2.2 0 0 0 .65-1.6 2.15 2.15 0 0 0-.65-1.58 2.18 2.18 0 0 0-1.602-.65m-8.991-11.239a4.46 4.46 0 0 1-.527 2.072 17.6 17.6 0 0 1 3.7 1.177 8.4 8.4 0 0 1 2.441 1.528 10.1 10.1 0 0 1-5.62 5.339 16.5 16.5 0 0 0-.4-4.039 6.1 6.1 0 0 0-1.316-2.56 4.33 4.33 0 0 1-2.771.979 4.46 4.46 0 0 1-2.072-.527 17.6 17.6 0 0 1-1.177 3.7 8.4 8.4 0 0 1-1.532 2.448 10.1 10.1 0 0 1-5.339-5.62 16.5 16.5 0 0 0 4.039-.4 6.1 6.1 0 0 0 2.564-1.317 4.33 4.33 0 0 1-.983-2.775 4.46 4.46 0 0 1 .527-2.072 17.6 17.6 0 0 1-3.7-1.177 8.4 8.4 0 0 1-2.441-1.528 10.1 10.1 0 0 1 5.614-5.345 16.5 16.5 0 0 0 .4 4.039 6.1 6.1 0 0 0 1.317 2.564 4.33 4.33 0 0 1 2.783-.983 4.46 4.46 0 0 1 2.072.527 17.6 17.6 0 0 1 1.177-3.7 8.4 8.4 0 0 1 1.528-2.441 10.1 10.1 0 0 1 5.339 5.62 16.5 16.5 0 0 0-4.039.4 6.1 6.1 0 0 0-2.564 1.317 4.33 4.33 0 0 1 .983 2.775Z"/></svg>