<svg xmlns="http://www.w3.org/2000/svg" width="35.36" height="35.577"><path fill="#fff" d="M17.816 35.577a16.85 16.85 0 0 1-9.955-3.082 18.54 18.54 0 0 1-6.5-8.163 18 18 0 0 1-1.325-6.165 26.7 26.7 0 0 1 2.7-13.2A16.9 16.9 0 0 1 6.272 0l-.217 5.755q.217-.286 1.342-.317t1.381.317a6.7 6.7 0 0 1 3.167-2.826 10.7 10.7 0 0 1 4.628-1.208 13.2 13.2 0 0 0-2.358 3.041 5.84 5.84 0 0 0-1.154 3.348 7.6 7.6 0 0 0 1.234.276q.741.112 1.244.154t1.342.082 1 .061q.3.1.188.932a3.5 3.5 0 0 1-.6 1.548 3 3 0 0 1-.325.379 5.7 5.7 0 0 1-1.115.727 6.6 6.6 0 0 1-1.993.7l.3 3.871-2.742-1.372a2.6 2.6 0 0 0-.148 1.669 3.3 3.3 0 0 0 .71 1.362 3 3 0 0 0 1.293.85 3.1 3.1 0 0 0 1.6.134 6.2 6.2 0 0 0 1.934-.707q.927-.522 1.647-.922a2.66 2.66 0 0 1 1.451-.36 2.59 2.59 0 0 1 1.766.676 1.37 1.37 0 0 1 .385 1.332q-.02.041-.049.112a1.5 1.5 0 0 1-.186.254 1.2 1.2 0 0 1-.356.317 2 2 0 0 1-.622.215 2.8 2.8 0 0 1-.917.02 7.1 7.1 0 0 1-2.851 2.775 7.63 7.63 0 0 1-4.134.6 7.85 7.85 0 0 0 3.207 1.689 7.46 7.46 0 0 0 3.325.123 11.8 11.8 0 0 0 3.048-1.059 10 10 0 0 0 2.525-1.792 8 8 0 0 0 1.588-2.13 8.6 8.6 0 0 0 .769-3.943 12.4 12.4 0 0 0-.74-3.861 6.25 6.25 0 0 0-1.549-2.56 11.3 11.3 0 0 1 2.707 1.628 5.44 5.44 0 0 1 1.52 2.3 15.15 15.15 0 0 0-1.135-7.022 14.57 14.57 0 0 0-4.133-5.817 14.8 14.8 0 0 1 8.13 5.725 18.5 18.5 0 0 1 2.979 10.6 16.3 16.3 0 0 1-.8 5.223 17.7 17.7 0 0 1-2.437 4.874 20.8 20.8 0 0 1-3.73 4.015 16.6 16.6 0 0 1-4.884 2.775 16.4 16.4 0 0 1-5.691 1.014"/></svg>