<svg xmlns="http://www.w3.org/2000/svg" width="20.638" height="20.638"><path d="M10.319 0A10.1 10.1 0 0 1 15.5 1.384a10.271 10.271 0 0 1 3.755 3.755 10.1 10.1 0 0 1 1.384 5.179 10.1 10.1 0 0 1-1.385 5.182 10.271 10.271 0 0 1-3.754 3.754 10.1 10.1 0 0 1-5.179 1.384 10.1 10.1 0 0 1-5.179-1.384A10.271 10.271 0 0 1 1.384 15.5 10.1 10.1 0 0 1 0 10.319a10.1 10.1 0 0 1 1.384-5.18 10.271 10.271 0 0 1 3.755-3.755A10.1 10.1 0 0 1 10.319 0ZM14 7a.744.744 0 0 0-.128.128.342.342 0 0 1-.181.127q.027 0 .06-.067t.067-.148a.419.419 0 0 1 .047-.094.979.979 0 0 1 .3-.2 3.361 3.361 0 0 1 .7-.161.653.653 0 0 1 .685.148q-.027-.027.128-.175a.92.92 0 0 1 .195-.161.716.716 0 0 1 .2-.06.3.3 0 0 0 .2-.1l.027-.3a.239.239 0 0 1-.235-.094.565.565 0 0 1-.087-.282q0 .027-.081.108 0-.094-.06-.108a.321.321 0 0 0-.155.013.209.209 0 0 1-.121.013.528.528 0 0 1-.2-.1.441.441 0 0 1-.108-.222q-.04-.161-.054-.2a.4.4 0 0 0-.128-.148.483.483 0 0 1-.128-.134l-.034-.074-.04-.087a.268.268 0 0 0-.054-.074.1.1 0 0 0-.074-.034q-.04 0-.094.067t-.1.134q-.046.067-.06.067a.109.109 0 0 0-.081-.02.464.464 0 0 0-.06.013.224.224 0 0 0-.06.04.38.38 0 0 1-.067.047.3.3 0 0 1-.114.04.81.81 0 0 0-.114.027q.2-.067-.013-.148a.42.42 0 0 0-.215-.04.14.14 0 0 0 .1-.161.324.324 0 0 0-.114-.188h.067q-.013-.054-.114-.114a1.551 1.551 0 0 0-.236-.112.925.925 0 0 1-.175-.081 1.5 1.5 0 0 0-.457-.128.829.829 0 0 0-.443-.007.2.2 0 0 0-.06.141.926.926 0 0 0 .054.188.65.65 0 0 1 .047.169.214.214 0 0 1-.074.175.263.263 0 0 0-.087.161q0 .094.188.208a.237.237 0 0 1 .134.289.484.484 0 0 1-.215.215.888.888 0 0 0-.215.161.282.282 0 0 0-.02.249.488.488 0 0 0 .141.222.056.056 0 0 1 .02.054.13.13 0 0 1-.047.06.644.644 0 0 1-.074.054q-.034.021-.087.047l-.04.027a.22.22 0 0 1-.275-.081.879.879 0 0 1-.182-.35q-.094-.336-.215-.4-.309-.108-.39.013-.067-.175-.551-.349a1.583 1.583 0 0 0-.779-.054q.081-.013 0-.2t-.255-.161a.683.683 0 0 0 .054-.235q.014-.154.013-.181a.682.682 0 0 1 .161-.309q.013-.013.094-.114a1.553 1.553 0 0 0 .128-.181q.047-.08.007-.081a.793.793 0 0 0 .672-.148 1.041 1.041 0 0 0 .155-.228 1.726 1.726 0 0 1 .141-.228.324.324 0 0 1 .184-.083.608.608 0 0 1 .195.074.475.475 0 0 0 .195.067q.188.013.208-.148a.292.292 0 0 0-.1-.269q.161.013.04-.228a.293.293 0 0 0-.108-.121.431.431 0 0 0-.363.067q-.108.054.027.108-.013-.013-.128.141a1.143 1.143 0 0 1-.222.234q-.107.08-.215-.067a1.1 1.1 0 0 1-.074-.181q-.061-.168-.127-.182-.108 0-.215.2.04-.108-.148-.2a.973.973 0 0 0-.323-.108q.255-.161-.108-.363a.663.663 0 0 0-.275-.067.366.366 0 0 0-.262.054.364.364 0 0 0-.074.155.114.114 0 0 0 .067.108.858.858 0 0 0 .142.074q.068.027.155.054a.979.979 0 0 1 .114.04q.188.134.108.188-.027.013-.114.047l-.155.06q-.068.026-.081.054a.221.221 0 0 0 0 .188q.04.134-.027.188a.6.6 0 0 1-.121-.235.868.868 0 0 0-.094-.222q.094.121-.336.081l-.134-.013a1.641 1.641 0 0 0-.215.027.985.985 0 0 1-.275.013.25.25 0 0 1-.181-.108.346.346 0 0 1 0-.269q.013-.054.054-.027A1.911 1.911 0 0 1 7.7 2.29a1.245 1.245 0 0 0-.134-.114 7.647 7.647 0 0 0-1.266.551.336.336 0 0 0 .161-.013 1.618 1.618 0 0 0 .175-.087l.134-.074q.457-.188.564-.094l.066-.067a3.615 3.615 0 0 1 .269.336.76.76 0 0 0-.4-.013q-.269.081-.3.161a.329.329 0 0 1 .067.242q-.054-.04-.155-.134a1.111 1.111 0 0 0-.194-.148.515.515 0 0 0-.2-.067 2.176 2.176 0 0 0-.3.013 8.479 8.479 0 0 0-3.151 2.982.359.359 0 0 0 .161.108q.054.013.067.121a.5.5 0 0 0 .036.147q.021.04.155-.04a.188.188 0 0 1 .04.255 5.022 5.022 0 0 1 .591.363 1.828 1.828 0 0 1 .28.282q.04.148-.134.242a.671.671 0 0 0-.121-.121Q4 7.027 3.99 7.067a.36.36 0 0 0 .01.249q.047.182.142.168-.094 0-.128.215a3.082 3.082 0 0 0-.034.477 2.044 2.044 0 0 1-.013.316l.027.013a.84.84 0 0 0 .074.464q.114.3.289.262-.175.04.269.578a.519.519 0 0 0 .108.121q.04.027.161.1t.2.134a.559.559 0 0 1 .134.141 1.17 1.17 0 0 1 .134.3.655.655 0 0 0 .188.316q-.027.081.128.269a.459.459 0 0 1 .141.309.068.068 0 0 0-.034.013.068.068 0 0 1-.034.013.457.457 0 0 0 .208.188.5.5 0 0 1 .208.175.9.9 0 0 1 .027.134.514.514 0 0 0 .04.148q.026.054.108.027a1.579 1.579 0 0 0-.323-.833q-.2-.336-.228-.39a.78.78 0 0 1-.074-.208 1.073 1.073 0 0 0-.06-.195.26.26 0 0 1 .081.02q.054.02.114.047a.71.71 0 0 1 .1.054q.041.027.027.04a.285.285 0 0 0 .027.235 1.084 1.084 0 0 0 .161.249q.094.108.228.255t.161.175a1.376 1.376 0 0 1 .188.262q.107.181 0 .181a.416.416 0 0 1 .269.141 1.588 1.588 0 0 1 .228.262 1.014 1.014 0 0 1 .108.349 2.766 2.766 0 0 0 .067.323.425.425 0 0 0 .114.181.672.672 0 0 0 .168.128l.215.108.175.094a1.993 1.993 0 0 1 .249.141 1.783 1.783 0 0 0 .289.155.617.617 0 0 0 .215.054.7.7 0 0 0 .195-.034q.114-.034.181-.047a.437.437 0 0 1 .39.2 1.311 1.311 0 0 0 .282.282.922.922 0 0 0 .739.148q-.027.013.007.1a1.322 1.322 0 0 0 .108.208l.121.195q.047.075.074.114a1.265 1.265 0 0 0 .242.2 1.265 1.265 0 0 1 .242.2.2.2 0 0 0 .094-.121q-.04.108.094.269t.242.134q.188-.04.188-.43a.452.452 0 0 1-.658-.242.266.266 0 0 0-.034-.074.859.859 0 0 1-.054-.114.868.868 0 0 1-.034-.114.187.187 0 0 1 0-.1.062.062 0 0 1 .067-.04q.121 0 .134-.047a.339.339 0 0 0-.027-.168q-.04-.121-.054-.175a.576.576 0 0 0-.148-.269q-.135-.161-.161-.2a.2.2 0 0 1-.215.108.264.264 0 0 1-.215-.121.379.379 0 0 1-.02.074.324.324 0 0 0-.02.087.782.782 0 0 1-.2-.013 1.721 1.721 0 0 0 .034-.235 2.4 2.4 0 0 1 .047-.3.723.723 0 0 1 .074-.161q.061-.107.1-.195a.683.683 0 0 0 .054-.168.119.119 0 0 0-.06-.128.389.389 0 0 0-.236-.034.37.37 0 0 0-.349.269q-.013.04-.04.141a.46.46 0 0 1-.067.155.33.33 0 0 1-.121.094.791.791 0 0 1-.323.027.788.788 0 0 1-.323-.067.851.851 0 0 1-.3-.39 1.245 1.245 0 0 1-.128-.5 2.483 2.483 0 0 1 .034-.356q.034-.222.04-.336a.9.9 0 0 0-.074-.33.692.692 0 0 0 .121-.128.844.844 0 0 1 .134-.141.253.253 0 0 1 .06-.02.133.133 0 0 1 .06 0 .056.056 0 0 0 .054-.02.169.169 0 0 0 .04-.081.4.4 0 0 0-.054-.04q-.04-.04-.054-.04a.774.774 0 0 0 .383-.02q.289-.06.371.02.2.148.3-.027a1.086 1.086 0 0 0-.034-.128.281.281 0 0 1-.007-.181q.067.363.39.121a.436.436 0 0 0 .208.067.718.718 0 0 1 .235.067.977.977 0 0 1 .094.074.874.874 0 0 0 .074.06q.02.013.067-.007a.4.4 0 0 0 .114-.087.9.9 0 0 1 .161.323q.148.538.255.591a.249.249 0 0 0 .148.027q.054-.013.06-.128a1.386 1.386 0 0 0 0-.188q-.006-.073-.019-.167l-.013-.108v-.242l-.013-.108a.3.3 0 0 1-.249-.161.289.289 0 0 1 .02-.249.906.906 0 0 1 .2-.249.446.446 0 0 1 .108-.047q.095-.034.208-.087a.6.6 0 0 0 .168-.108q.282-.255.2-.47.094 0 .148-.121a.2.2 0 0 1-.067-.04 1.021 1.021 0 0 0-.1-.067.183.183 0 0 0-.06-.027q.121-.067.027-.215a.25.25 0 0 0 .1-.148.193.193 0 0 1 .1-.134.172.172 0 0 0 .282.027.14.14 0 0 0 .013-.215.452.452 0 0 1 .275-.141q.208-.047.249-.128.094.027.108-.027a.685.685 0 0 0 .013-.161.263.263 0 0 1 .04-.161.46.46 0 0 1 .2-.121q.148-.054.175-.067l.228-.148q.04-.054 0-.054a.487.487 0 0 0 .417-.148q.134-.148-.081-.269a.087.087 0 0 0-.04-.128.7.7 0 0 0-.2-.074.5.5 0 0 1 .155-.007q.115.006.141-.02.2-.134-.094-.215A.729.729 0 0 0 14 7Zm-2.19 11.784a8.316 8.316 0 0 0 4.716-2.54.32.32 0 0 0-.168-.06.479.479 0 0 1-.168-.047 2.152 2.152 0 0 0-.323-.108.265.265 0 0 0-.034-.175.355.355 0 0 0-.108-.121l-.168-.108-.148-.094q-.027-.027-.094-.081l-.094-.074a.962.962 0 0 0-.1-.06.156.156 0 0 0-.114-.027.478.478 0 0 1-.134.013l-.04.013a.353.353 0 0 0-.074.034q-.034.021-.074.04a.134.134 0 0 0-.054.04q-.014.021 0 .034a1.673 1.673 0 0 0-.484-.3.376.376 0 0 1-.147-.069 1.245 1.245 0 0 0-.141-.094.2.2 0 0 0-.134-.02.305.305 0 0 0-.155.094.323.323 0 0 0-.081.2 1.054 1.054 0 0 1-.027.175q-.094-.067 0-.235t.027-.249a.115.115 0 0 0-.141-.06.463.463 0 0 0-.161.06q-.06.04-.155.114a.973.973 0 0 1-.121.087 1.128 1.128 0 0 0-.114.074.461.461 0 0 0-.114.1.685.685 0 0 0-.081.161.879.879 0 0 1-.067.148q-.027-.054-.155-.087t-.128-.074a4.655 4.655 0 0 1 .054.47 3.81 3.81 0 0 0 .067.511.62.62 0 0 1-.161.645 1.108 1.108 0 0 0-.39.538q-.054.3.161.349a.62.62 0 0 1-.108.275.494.494 0 0 0-.094.289 1.15 1.15 0 0 0 .027.215Z" fill="#fff"/></svg>