<svg xmlns="http://www.w3.org/2000/svg" width="20.638" height="20.638"><path fill="#fff" d="M10.319 0A10.1 10.1 0 0 1 15.5 1.384a10.27 10.27 0 0 1 3.755 3.755 10.1 10.1 0 0 1 1.384 5.179 10.1 10.1 0 0 1-1.385 5.182 10.27 10.27 0 0 1-3.754 3.754 10.1 10.1 0 0 1-5.179 1.384 10.1 10.1 0 0 1-5.179-1.384A10.27 10.27 0 0 1 1.384 15.5 10.1 10.1 0 0 1 0 10.319a10.1 10.1 0 0 1 1.384-5.18 10.27 10.27 0 0 1 3.755-3.755A10.1 10.1 0 0 1 10.319 0M14 7a.7.7 0 0 0-.128.128.34.34 0 0 1-.181.127q.027 0 .06-.067t.067-.148a.4.4 0 0 1 .047-.094 1 1 0 0 1 .3-.2 3.4 3.4 0 0 1 .7-.161.65.65 0 0 1 .685.148q-.027-.027.128-.175a1 1 0 0 1 .195-.161.7.7 0 0 1 .2-.06.3.3 0 0 0 .2-.1l.027-.3a.24.24 0 0 1-.235-.094.56.56 0 0 1-.087-.282q0 .027-.081.108 0-.094-.06-.108a.3.3 0 0 0-.155.013.2.2 0 0 1-.121.013.5.5 0 0 1-.2-.1.44.44 0 0 1-.108-.222q-.04-.161-.054-.2a.4.4 0 0 0-.128-.148.5.5 0 0 1-.128-.134l-.034-.074-.04-.087a.3.3 0 0 0-.054-.074.1.1 0 0 0-.074-.034q-.04 0-.094.067t-.1.134-.06.067a.1.1 0 0 0-.081-.02 1 1 0 0 0-.06.013.2.2 0 0 0-.06.04.4.4 0 0 1-.067.047.3.3 0 0 1-.114.04 1 1 0 0 0-.114.027q.2-.067-.013-.148a.4.4 0 0 0-.215-.04.14.14 0 0 0 .1-.161.32.32 0 0 0-.114-.188h.067q-.013-.054-.114-.114a1.6 1.6 0 0 0-.236-.112 1 1 0 0 1-.175-.081 1.5 1.5 0 0 0-.457-.128.83.83 0 0 0-.443-.007.2.2 0 0 0-.06.141 1 1 0 0 0 .054.188.7.7 0 0 1 .047.169.21.21 0 0 1-.074.175.26.26 0 0 0-.087.161q0 .094.188.208a.237.237 0 0 1 .134.289.5.5 0 0 1-.215.215.9.9 0 0 0-.215.161.28.28 0 0 0-.02.249.5.5 0 0 0 .141.222.06.06 0 0 1 .02.054.13.13 0 0 1-.047.06 1 1 0 0 1-.074.054q-.034.021-.087.047l-.04.027a.22.22 0 0 1-.275-.081.9.9 0 0 1-.182-.35q-.094-.336-.215-.4-.309-.108-.39.013-.067-.175-.551-.349a1.6 1.6 0 0 0-.779-.054q.081-.013 0-.2t-.255-.161a.7.7 0 0 0 .054-.235q.014-.154.013-.181a.7.7 0 0 1 .161-.309q.013-.013.094-.114a2 2 0 0 0 .128-.181q.047-.08.007-.081a.8.8 0 0 0 .672-.148 1 1 0 0 0 .155-.228 2 2 0 0 1 .141-.228.32.32 0 0 1 .184-.083.6.6 0 0 1 .195.074.5.5 0 0 0 .195.067q.188.013.208-.148a.29.29 0 0 0-.1-.269q.161.013.04-.228a.3.3 0 0 0-.108-.121.43.43 0 0 0-.363.067q-.108.054.027.108-.013-.013-.128.141a1.1 1.1 0 0 1-.222.234q-.107.08-.215-.067a1 1 0 0 1-.074-.181q-.061-.168-.127-.182-.108 0-.215.2.04-.108-.148-.2a1 1 0 0 0-.323-.108q.255-.161-.108-.363a.7.7 0 0 0-.275-.067.37.37 0 0 0-.262.054.4.4 0 0 0-.074.155.11.11 0 0 0 .067.108 1 1 0 0 0 .142.074q.068.027.155.054a1 1 0 0 1 .114.04q.188.134.108.188-.027.013-.114.047l-.155.06q-.068.026-.081.054a.22.22 0 0 0 0 .188q.04.134-.027.188a.6.6 0 0 1-.121-.235.9.9 0 0 0-.094-.222q.094.121-.336.081l-.134-.013a2 2 0 0 0-.215.027 1 1 0 0 1-.275.013.25.25 0 0 1-.181-.108.35.35 0 0 1 0-.269q.013-.054.054-.027A2 2 0 0 1 7.7 2.29a1 1 0 0 0-.134-.114 7.7 7.7 0 0 0-1.266.551.34.34 0 0 0 .161-.013 2 2 0 0 0 .175-.087l.134-.074q.457-.188.564-.094l.066-.067a4 4 0 0 1 .269.336.76.76 0 0 0-.4-.013q-.269.081-.3.161a.33.33 0 0 1 .067.242q-.054-.04-.155-.134a1 1 0 0 0-.194-.148.5.5 0 0 0-.2-.067 2 2 0 0 0-.3.013 8.5 8.5 0 0 0-3.151 2.982.36.36 0 0 0 .161.108q.054.013.067.121a.5.5 0 0 0 .036.147q.021.04.155-.04a.19.19 0 0 1 .04.255 5 5 0 0 1 .591.363 2 2 0 0 1 .28.282q.04.148-.134.242a.7.7 0 0 0-.121-.121Q4 7.027 3.99 7.067a.36.36 0 0 0 .01.249q.047.182.142.168-.094 0-.128.215a3 3 0 0 0-.034.477 2 2 0 0 1-.013.316l.027.013a.84.84 0 0 0 .074.464q.114.3.289.262-.175.04.269.578a.5.5 0 0 0 .108.121q.04.027.161.1t.2.134a.6.6 0 0 1 .134.141 1.2 1.2 0 0 1 .134.3.66.66 0 0 0 .188.316q-.027.081.128.269a.46.46 0 0 1 .141.309.1.1 0 0 0-.034.013.1.1 0 0 1-.034.013.46.46 0 0 0 .208.188.5.5 0 0 1 .208.175 1 1 0 0 1 .027.134.5.5 0 0 0 .04.148q.026.054.108.027a1.6 1.6 0 0 0-.323-.833q-.2-.336-.228-.39a.8.8 0 0 1-.074-.208 1 1 0 0 0-.06-.195.3.3 0 0 1 .081.02q.054.02.114.047a1 1 0 0 1 .1.054q.041.027.027.04a.28.28 0 0 0 .027.235 1 1 0 0 0 .161.249q.094.108.228.255t.161.175a1.4 1.4 0 0 1 .188.262q.107.181 0 .181a.42.42 0 0 1 .269.141 1.6 1.6 0 0 1 .228.262 1 1 0 0 1 .108.349 3 3 0 0 0 .067.323.4.4 0 0 0 .114.181.7.7 0 0 0 .168.128l.215.108.175.094a2 2 0 0 1 .249.141 2 2 0 0 0 .289.155.6.6 0 0 0 .215.054.7.7 0 0 0 .195-.034q.114-.034.181-.047a.44.44 0 0 1 .39.2 1.3 1.3 0 0 0 .282.282.92.92 0 0 0 .739.148q-.027.013.007.1a1.3 1.3 0 0 0 .108.208l.121.195q.047.075.074.114a1.3 1.3 0 0 0 .242.2 1.3 1.3 0 0 1 .242.2.2.2 0 0 0 .094-.121q-.04.108.094.269t.242.134q.188-.04.188-.43a.452.452 0 0 1-.658-.242.3.3 0 0 0-.034-.074 1 1 0 0 1-.054-.114 1 1 0 0 1-.034-.114.2.2 0 0 1 0-.1.06.06 0 0 1 .067-.04q.121 0 .134-.047a.34.34 0 0 0-.027-.168q-.04-.121-.054-.175a.6.6 0 0 0-.148-.269q-.135-.161-.161-.2a.2.2 0 0 1-.215.108.26.26 0 0 1-.215-.121.4.4 0 0 1-.02.074.3.3 0 0 0-.02.087.8.8 0 0 1-.2-.013 2 2 0 0 0 .034-.235 2 2 0 0 1 .047-.3.7.7 0 0 1 .074-.161q.061-.107.1-.195a.7.7 0 0 0 .054-.168.12.12 0 0 0-.06-.128.4.4 0 0 0-.236-.034.37.37 0 0 0-.349.269q-.013.04-.04.141a.5.5 0 0 1-.067.155.3.3 0 0 1-.121.094.8.8 0 0 1-.323.027.8.8 0 0 1-.323-.067.85.85 0 0 1-.3-.39 1.25 1.25 0 0 1-.128-.5 2.5 2.5 0 0 1 .034-.356q.034-.222.04-.336a.9.9 0 0 0-.074-.33.7.7 0 0 0 .121-.128 1 1 0 0 1 .134-.141.3.3 0 0 1 .06-.02.13.13 0 0 1 .06 0 .06.06 0 0 0 .054-.02.2.2 0 0 0 .04-.081.4.4 0 0 0-.054-.04q-.04-.04-.054-.04a.8.8 0 0 0 .383-.02q.289-.06.371.02.2.148.3-.027a1 1 0 0 0-.034-.128.3.3 0 0 1-.007-.181q.067.363.39.121a.44.44 0 0 0 .208.067.7.7 0 0 1 .235.067 1 1 0 0 1 .094.074 1 1 0 0 0 .074.06q.02.013.067-.007a.4.4 0 0 0 .114-.087.9.9 0 0 1 .161.323q.148.538.255.591a.25.25 0 0 0 .148.027q.054-.013.06-.128a1.4 1.4 0 0 0 0-.188q-.006-.073-.019-.167l-.013-.108v-.242l-.013-.108a.3.3 0 0 1-.249-.161.29.29 0 0 1 .02-.249.9.9 0 0 1 .2-.249.5.5 0 0 1 .108-.047q.095-.034.208-.087a.6.6 0 0 0 .168-.108q.282-.255.2-.47.094 0 .148-.121a.2.2 0 0 1-.067-.04 1 1 0 0 0-.1-.067.2.2 0 0 0-.06-.027q.121-.067.027-.215a.25.25 0 0 0 .1-.148.2.2 0 0 1 .1-.134.172.172 0 0 0 .282.027.14.14 0 0 0 .013-.215.45.45 0 0 1 .275-.141q.208-.047.249-.128.094.027.108-.027a.7.7 0 0 0 .013-.161.26.26 0 0 1 .04-.161.46.46 0 0 1 .2-.121q.148-.054.175-.067l.228-.148q.04-.054 0-.054a.49.49 0 0 0 .417-.148q.134-.148-.081-.269a.087.087 0 0 0-.04-.128.7.7 0 0 0-.2-.074.5.5 0 0 1 .155-.007q.115.006.141-.02.2-.134-.094-.215A.73.73 0 0 0 14 7m-2.19 11.784a8.3 8.3 0 0 0 4.716-2.54.3.3 0 0 0-.168-.06.5.5 0 0 1-.168-.047 2 2 0 0 0-.323-.108.27.27 0 0 0-.034-.175.36.36 0 0 0-.108-.121l-.168-.108-.148-.094q-.027-.027-.094-.081l-.094-.074a1 1 0 0 0-.1-.06.16.16 0 0 0-.114-.027.5.5 0 0 1-.134.013l-.04.013a.4.4 0 0 0-.074.034q-.034.021-.074.04a.13.13 0 0 0-.054.04q-.014.021 0 .034a1.7 1.7 0 0 0-.484-.3.4.4 0 0 1-.147-.069 1 1 0 0 0-.141-.094.2.2 0 0 0-.134-.02.3.3 0 0 0-.155.094.32.32 0 0 0-.081.2 1 1 0 0 1-.027.175q-.094-.067 0-.235t.027-.249a.115.115 0 0 0-.141-.06.5.5 0 0 0-.161.06q-.06.04-.155.114a1 1 0 0 1-.121.087 1 1 0 0 0-.114.074.5.5 0 0 0-.114.1.7.7 0 0 0-.081.161 1 1 0 0 1-.067.148q-.027-.054-.155-.087t-.128-.074a5 5 0 0 1 .054.47 4 4 0 0 0 .067.511.62.62 0 0 1-.161.645 1.1 1.1 0 0 0-.39.538q-.054.3.161.349a.6.6 0 0 1-.108.275.5.5 0 0 0-.094.289 1 1 0 0 0 .027.215Z"/></svg>