<svg xmlns="http://www.w3.org/2000/svg" width="21.11" height="21.102" viewBox="0 0 21.11 21.102"><path fill="#fff" d="M12.178 10.548c2.936 3.321 4.02 7.065 2.483 8.612-1.7 1.687-5.933.221-9.426-3.293S.255 8.14 1.955 6.44c1.535-1.538 5.279-.453 8.6 2.483l-.872.864C7.47 7.97 5.123 7.429 4.037 8.52a2.76 2.76 0 0 0-.312 2.913 9.6 9.6 0 0 0 2.353 3.592 9.6 9.6 0 0 0 3.589 2.362 4.4 4.4 0 0 0 1.39.253 2.09 2.09 0 0 0 1.52-.56c1.086-1.084.544-3.435-1.267-5.649Zm-7.326 5.7c-2.981-2.979-4.5-6.4-4.053-8.656l-.1.1c-.8.8-.917 2.207-.331 3.96a14.7 14.7 0 0 0 3.6 5.479 14.7 14.7 0 0 0 5.479 3.6c1.753.585 3.158.466 3.959-.331l.1-.1a4 4 0 0 1-.829.081c-2.216 0-5.195-1.494-7.83-4.131Zm2.007-4.9c-.3.3 0 1.249.818 2.08s1.773 1.114 2.08.818c.2-.2.14-.656-.127-1.166a1.145 1.145 0 0 1-1.516-.091 1.146 1.146 0 0 1-.093-1.515c-.507-.265-.965-.324-1.163-.127Zm9.831-8.56L16.354.002l-2.67 2.663.336 2.786Zm1.627 1.627-2.668 2.67 2.786.336 2.675-2.67Zm-9.008 5.752C7.351 8.576 5.276 8.024 4.409 8.9a2.29 2.29 0 0 0-.185 2.376 9.06 9.06 0 0 0 2.226 3.376 9.1 9.1 0 0 0 3.384 2.229 2.29 2.29 0 0 0 2.376-.185c.869-.867.317-2.941-1.267-4.9l-.922.912c.458.788.507 1.52.107 1.908a.98.98 0 0 1-.717.253 3.3 3.3 0 0 1-2.108-1.081c-1.013-1.013-1.38-2.262-.818-2.824.4-.4 1.12-.349 1.908.107Zm-1 2a.6.6 0 0 0 .183.44.64.64 0 0 0 .884 0l9.551-9.547a.626.626 0 0 0-.06-.82.625.625 0 0 0-.826-.047l-9.547 9.535a.62.62 0 0 0-.183.443Z"/></svg>