<svg xmlns="http://www.w3.org/2000/svg" width="41.018" height="41.018"><g fill="none" stroke="#fff" stroke-linejoin="round" stroke-width="2.25"><path d="M8.582 4.107h23.855a4.473 4.473 0 0 1 4.473 4.475v23.855a4.473 4.473 0 0 1-4.473 4.473H8.582a4.473 4.473 0 0 1-4.473-4.473V8.582a4.473 4.473 0 0 1 4.473-4.475Z"/><path d="M11.562 10.071h17.893a1.49 1.49 0 0 1 1.491 1.491v17.893a1.49 1.49 0 0 1-1.491 1.491H11.562a1.49 1.49 0 0 1-1.491-1.491V11.562a1.49 1.49 0 0 1 1.491-1.491Z"/><path stroke-linecap="round" d="M20.509 4.107V1.125M27.964 4.107V1.125M13.053 4.107V1.125M20.509 39.892V36.91M27.964 39.892V36.91M13.053 39.892V36.91M36.91 20.509h2.982M36.91 27.964h2.982M36.91 13.053h2.982M1.125 20.509h2.982M1.125 27.964h2.982M1.125 13.053h2.982"/></g><path fill="#fff" d="M26.751 25.133H14.242L17.5 17.85l2.862 1.838 2.3-4.494.413 1Zm-10.966-1h9.474l-2.692-6.553-1.817 3.545-.464-.3-2.348-1.508Z"/><path fill="#fff" d="m15.014 24.633 2.789-6.07 2.5 3.9 1.391 2.17Z"/></svg>