<svg xmlns="http://www.w3.org/2000/svg" width="35.999" height="34.878"><g fill="#fff" fill-rule="evenodd"><path d="M9 32.628a2.25 2.25 0 1 0-2.25-2.25A2.25 2.25 0 0 0 9 32.628m0 2.25a4.5 4.5 0 1 0-4.5-4.5 4.5 4.5 0 0 0 4.5 4.5m18-2.25a2.25 2.25 0 1 0-2.25-2.25 2.25 2.25 0 0 0 2.25 2.25m0 2.25a4.5 4.5 0 1 0-4.5-4.5 4.5 4.5 0 0 0 4.5 4.5M.259 6.033a1.13 1.13 0 0 1 .866-.405h33.75a1.125 1.125 0 0 1 1.1 1.332l-3.375 18a1.125 1.125 0 0 1-1.1.918h-27a1.125 1.125 0 0 1-1.105-.918L.02 6.96a1.13 1.13 0 0 1 .238-.925ZM2.48 7.878l2.954 15.75h25.133l2.954-15.75Z"/><path d="M13.5 2.253a5.62 5.62 0 0 1 9 0 5.62 5.62 0 0 1 4.5 2.25 5.62 5.62 0 0 1 3.89 1.561l-1.557 1.624A3.36 3.36 0 0 0 27 6.753a2.26 2.26 0 0 1-1.8-.9 3.37 3.37 0 0 0-2.7-1.35 2.26 2.26 0 0 1-1.8-.9 3.368 3.368 0 0 0-5.4 0 2.26 2.26 0 0 1-1.8.9 3.37 3.37 0 0 0-2.763 1.435A6 6 0 0 1 9.31 7.365a3.4 3.4 0 0 0-.592.531L7.03 6.406a5.6 5.6 0 0 1 .983-.88 3.7 3.7 0 0 0 .887-.884 5.62 5.62 0 0 1 4.6-2.389"/></g></svg>