<svg xmlns="http://www.w3.org/2000/svg" width="35.999" height="34.878"><g fill="#fff" fill-rule="evenodd"><path d="M9 32.628a2.25 2.25 0 1 0-2.25-2.25A2.25 2.25 0 0 0 9 32.628Zm0 2.25a4.5 4.5 0 1 0-4.5-4.5 4.5 4.5 0 0 0 4.5 4.5Zm18-2.25a2.25 2.25 0 1 0-2.25-2.25 2.25 2.25 0 0 0 2.25 2.25Zm0 2.25a4.5 4.5 0 1 0-4.5-4.5 4.5 4.5 0 0 0 4.5 4.5ZM.259 6.033a1.125 1.125 0 0 1 .866-.405h33.75a1.125 1.125 0 0 1 1.1 1.332l-3.375 18a1.125 1.125 0 0 1-1.1.918h-27a1.125 1.125 0 0 1-1.105-.918L.02 6.96a1.125 1.125 0 0 1 .238-.925ZM2.48 7.878l2.954 15.75h25.133l2.954-15.75Z"/><path d="M13.5 2.253a5.621 5.621 0 0 1 9 0 5.622 5.622 0 0 1 4.5 2.25 5.618 5.618 0 0 1 3.89 1.561l-1.557 1.624A3.359 3.359 0 0 0 27 6.753a2.262 2.262 0 0 1-1.8-.9 3.369 3.369 0 0 0-2.7-1.35 2.262 2.262 0 0 1-1.8-.9 3.368 3.368 0 0 0-5.4 0 2.262 2.262 0 0 1-1.8.9 3.373 3.373 0 0 0-2.763 1.435A5.962 5.962 0 0 1 9.31 7.365a3.4 3.4 0 0 0-.592.531L7.03 6.406a5.625 5.625 0 0 1 .983-.88 3.667 3.667 0 0 0 .887-.884 5.621 5.621 0 0 1 4.6-2.389Z"/></g></svg>