<svg xmlns="http://www.w3.org/2000/svg" width="30.642" height="26.811"><path fill="#fff" d="M26.811 7.66h-3.83a87 87 0 0 1-.419 9.455 20 20 0 0 1-1.392 5.865 6.48 6.48 0 0 1-2.349 2.993 6.64 6.64 0 0 1-3.5.838 13.2 13.2 0 0 1-3.68-.509A8.1 8.1 0 0 1 8.768 24.9a2.5 2.5 0 0 1-1.108-1.919q0-.778.015-1.167t.1-1.047a3.4 3.4 0 0 1 .284-1.047 3.9 3.9 0 0 1 .584-.823 3.1 3.1 0 0 1 .928-.7q-.18-.808-.763-2.618A24 24 0 0 1 7.946 12a28 28 0 0 1-.284-4.339H3.83A7.8 7.8 0 0 1 1 7.257a1.5 1.5 0 0 1-1-1.512 3.8 3.8 0 0 1 1.167-2.558A3.53 3.53 0 0 1 3.83 1.915a5.5 5.5 0 0 1 2.02.464 9.3 9.3 0 0 1 2.11 1.182A5.25 5.25 0 0 1 10.653 1a10.4 10.4 0 0 1 4.668-1 10.4 10.4 0 0 1 4.668 1 5.25 5.25 0 0 1 2.693 2.559 9.3 9.3 0 0 1 2.11-1.182 5.5 5.5 0 0 1 2.02-.464 3.53 3.53 0 0 1 2.663 1.272 3.8 3.8 0 0 1 1.167 2.559 1.5 1.5 0 0 1-1 1.511 7.9 7.9 0 0 1-2.831.405M14.363 1.915a7.3 7.3 0 0 0-1.556.134 1.6 1.6 0 0 0-.868.434 1.6 1.6 0 0 0-.359.584 2.6 2.6 0 0 0-.089.763 3.4 3.4 0 0 0 .3 1.287q.3.718.658 1.556a13.6 13.6 0 0 1 .658 3.112 43 43 0 0 1 .3 5.536 9.5 9.5 0 0 1-.314 2.439 2.62 2.62 0 0 1-.643 1.392q-2.873 1.406-2.873 2.873 0 1.287 1.93 2.079a11.6 11.6 0 0 0 4.443.793 4 4 0 0 0 .359-.344 4.4 4.4 0 0 0 .569-.973 3.56 3.56 0 0 0 .359-1.556 67 67 0 0 1 .479-7.242q.479-4.28.958-7.481t.479-3.471q0-.808-1.406-1.362a9.2 9.2 0 0 0-3.384-.553"/></svg>