<svg xmlns="http://www.w3.org/2000/svg" width="499.458" height="32.971"><defs><clipPath id="a"><path fill="none" d="M0 0h499.458v32.971H0z"/></clipPath></defs><g clip-path="url(#a)"><path d="M416.779 16.2a1.1 1.1 0 0 0-.07-.217l-2.656-6.2a4.061 4.061 0 0 0-3.8-2.358h-13.9a4.058 4.058 0 0 0-3.8 2.358l-2.659 6.2a1.091 1.091 0 0 0-.091.443V28.8a1.125 1.125 0 0 0 1.125 1.125h2.253A1.125 1.125 0 0 0 394.3 28.8v-1.121h18V28.8a1.125 1.125 0 0 0 1.125 1.125h2.25A1.125 1.125 0 0 0 416.8 28.8V16.429a1.138 1.138 0 0 0-.022-.226Zm-21.352 6.976a2.25 2.25 0 1 1 2.25-2.25 2.25 2.25 0 0 1-2.25 2.25m15.75 0a2.25 2.25 0 1 1 2.25-2.25 2.25 2.25 0 0 1-2.25 2.25M392.633 15.3l1.985-4.63a1.848 1.848 0 0 1 1.731-.995h13.906a1.85 1.85 0 0 1 1.731.995l1.985 4.63Z" fill="#fff"/><path d="M327.319 11.138a.548.548 0 0 0-.406 0l-6.519 2.611 6.721 2.689 6.721-2.688Zm7.442 3.414-7.1 2.84v8.652l7.1-2.84v-8.652Zm-8.192 11.5V17.4l-7.1-2.839v8.653Zm-.062-15.922a1.641 1.641 0 0 1 1.217 0l7.786 3.11a.547.547 0 0 1 .343.507v9.461a1.092 1.092 0 0 1-.687 1.014l-7.847 3.142a.548.548 0 0 1-.406 0l-7.847-3.138a1.092 1.092 0 0 1-.688-1.014v-9.463a.545.545 0 0 1 .343-.511Z" fill="#1d9f9d" fill-rule="evenodd"/><path d="M327.319 11.138a.548.548 0 0 0-.406 0l-6.519 2.611 6.721 2.689 6.721-2.688Zm7.442 3.414-7.1 2.84v8.652l7.1-2.84v-8.652Zm-8.192 11.5V17.4l-7.1-2.839v8.653Zm-.062-15.922a1.641 1.641 0 0 1 1.217 0l7.786 3.11a.547.547 0 0 1 .343.507v9.461a1.092 1.092 0 0 1-.687 1.014l-7.847 3.142a.548.548 0 0 1-.406 0l-7.847-3.138a1.092 1.092 0 0 1-.688-1.014v-9.463a.545.545 0 0 1 .343-.511Z" fill="none" stroke="#1d9f9d" stroke-width=".5"/><path d="M485.437 6.256a.9.9 0 0 0-.668 0L474.06 10.54l11.04 4.416 11.044-4.416Zm12.227 5.61L486 16.531v14.216l11.664-4.666V11.867ZM484.2 30.749V16.53l-11.664-4.664v14.217Zm-.1-26.16a2.69 2.69 0 0 1 2 0l12.79 5.118a.9.9 0 0 1 .563.833v15.543a1.794 1.794 0 0 1-1.129 1.665l-12.892 5.158a.9.9 0 0 1-.668 0l-12.892-5.157a1.794 1.794 0 0 1-1.13-1.666V10.54a.9.9 0 0 1 .564-.833Z" fill="#1d9f9d" fill-rule="evenodd"/><path d="M244.532.986A1.322 1.322 0 0 1 245.667.5l3.224 3.475h.265L252.4.5a1.3 1.3 0 0 1 1.118.49c.4.566.161-.985-.727-.985h-7.532c-.889-.005-1.132 1.545-.727.981ZM249.024.5h2.657l-2.607 2.722v-.014l-.05.057-.049-.057v.016L246.431.5Zm-7.88 30.106h1.63l1.291-2.6h-.907ZM254.125 28l1.2 2.6h1.631l-1.925-2.6Zm-8.164-1.017h6.239v-1.809h-6.241Zm12.515-19.602c0-1.6-6.6-1.716-6.6-1.716l-1.109-1.184-3.426-.019-1.43 1.193s-5.483.1-6.281 1.725c0 0 .023 16.048.023 16.876s1.622 2.733 2.731 2.733c1.6 0 2.686.008 2.686.008l-.024-2.7h8.118v2.718s1.422-.027 2.777-.027 2.568-2.392 2.568-2.726c0-1.211-.033-16.881-.033-16.881Zm-12.225.143a.433.433 0 0 0 .006.063.509.509 0 0 1 .5-.449h4.59a.51.51 0 0 1 .5.449.468.468 0 0 0 .007-.063v.125a.408.408 0 0 0-.007-.061.551.551 0 0 1-.5.5h-4.59a.549.549 0 0 1-.5-.5.406.406 0 0 0-.006.061Zm-3.431 16.117a.732.732 0 1 1 .723-.732.727.727 0 0 1-.723.732m5.845-6.666a1.018 1.018 0 0 1-1.02 1.019H241.6a1.019 1.019 0 0 1-1.02-1.019v-6.969a1.018 1.018 0 0 1 1.02-1.019h6.047a1.019 1.019 0 0 1 1.02 1.019Zm6.771 6.722a.732.732 0 1 1 .723-.731.727.727 0 0 1-.723.731m2.229-6.722a1.019 1.019 0 0 1-1.02 1.019h-6.075a1.018 1.018 0 0 1-1.019-1.019v-6.967a1.018 1.018 0 0 1 1.019-1.02h6.076a1.019 1.019 0 0 1 1.02 1.02ZM165.567 7.969h14.9a3.969 3.969 0 0 1 3.958 3.957v8.226a3.97 3.97 0 0 1-3.958 3.958h-14.9a3.97 3.97 0 0 1-3.958-3.958v-8.226a3.969 3.969 0 0 1 3.958-3.957Zm-2.687 19.937a.554.554 0 0 1 0-1.109h6.02a.554.554 0 1 1 0 1.109Zm7.962-2.033a.555.555 0 1 1 1.109 0v.927h11.2a.554.554 0 0 1 0 1.109h-11.2v.926a.555.555 0 0 1-1.109 0Zm.178-13.9 6.041 3.6a.55.55 0 0 1-.005.951l-6.087 3.624a.551.551 0 0 1-.755-.193.558.558 0 0 1-.078-.282v-7.262a.554.554 0 0 1 .885-.444Zm4.68 4.067-4.459-2.656V18.7Z" fill="#fff" fill-rule="evenodd"/><path d="M4.369 24.606ZM16.83 24.8a1.769 1.769 0 0 1-.027.377 1.769 1.769 0 0 0 .027-.377" fill="#fff"/><path d="M18.879 5.323h-.89c-.729-.809-3.021-.917-5.745-.917-3.21 0-6.069.459-7.039 1.322a3.436 3.436 0 0 0-.755.89C2.831 7.211 0 8.371 0 12.551c0 6.041 4.1 9.979 4.1 10.868v2.158A2.436 2.436 0 0 0 6.447 28h8.333a2.586 2.586 0 0 0 2.454-2.13l1.159-14.37c.271-2.59 2.833-6.176 2.833-6.176ZM4.1 19.212c-1.348 0-3.615-9.547 0-10.086Zm10.788 3.21a.406.406 0 1 1-.81 0V10.1a.406.406 0 1 1 .81 0ZM106.639 8.26H82.54a.711.711 0 0 0-.7.7v15.511a.711.711 0 0 0 .7.7h11.137v2.308a10.892 10.892 0 0 0-3.838.886.972.972 0 0 0-.483 1.235.937.937 0 0 0 .859.564.955.955 0 0 0 .375-.08 10.2 10.2 0 0 1 4-.752 10 10 0 0 1 4 .752.938.938 0 0 0 .752-1.719 11.872 11.872 0 0 0-3.838-.886v-2.31h11.138a.711.711 0 0 0 .7-.7V8.958a.711.711 0 0 0-.703-.698Zm-.7 15.513H83.237V9.656h22.705Z" fill="#fff"/><path d="M104.52 11.078H84.66v11.244h19.86Zm-18.062 2.978 1.208-1.208a.7.7 0 0 1 .993.993l-1.208 1.208a.725.725 0 0 1-.484.215.678.678 0 0 1-.484-.215.69.69 0 0 1-.025-.993Zm5.395.43-3.786 3.757a.718.718 0 0 1-.482.215.671.671 0 0 1-.483-.215.712.712 0 0 1 0-.993l3.783-3.784a.713.713 0 0 1 .994 0 .778.778 0 0 1-.026 1.02Z" fill="#fff"/></g></svg>