<svg xmlns="http://www.w3.org/2000/svg" width="22.123" height="20.767"><g opacity=".6"><path d="M19.982 0H8.564v3.568h1.427V1.427h9.991a.674.674 0 0 1 .714.714v7.85a.674.674 0 0 1-.714.714H10.7v5H6.922l-2.64 2.07V15.7H2.141a.674.674 0 0 1-.714-.714v-7.85a.674.674 0 0 1 .714-.714h9.277V5H2.141A2.1 2.1 0 0 0 0 7.136v7.85a2.1 2.1 0 0 0 2.141 2.141h.714v3.64l4.5-3.64h4.781v-5h7.85a2.1 2.1 0 0 0 2.141-2.141V2.141A2.1 2.1 0 0 0 19.982 0"/><path d="M2.997 14.201H4.71l.428-1.142H7.35l.428 1.142h1.713L7.065 7.85H5.352Zm3.211-4.567.714 2.216H5.497ZM12.845 9.991a6.7 6.7 0 0 0 2.855-.714 6.96 6.96 0 0 0 2.855.714V8.564a4.9 4.9 0 0 1-1.5-.285 5.42 5.42 0 0 0 1.5-4v-.711h-2.142V2.141h-1.427v1.427h-2.141v1.428h4.21a3.59 3.59 0 0 1-1.356 2.569 4.2 4.2 0 0 1-1.142-1.5h-1.5a5.2 5.2 0 0 0 1.288 2.213 4.1 4.1 0 0 1-1.5.285z"/></g></svg>