<svg xmlns="http://www.w3.org/2000/svg" width="29.332" height="22.47"><g fill="#fff"><path d="M7.433 15.457V4.84h12.79l1.366-1.383H6.05v12h1.383Z"/><path d="M4.321 1.728h20.742v13.828h1.73V1.3a1.3 1.3 0 0 0-1.3-1.3h-21.6a1.3 1.3 0 0 0-1.3 1.3v14.26h1.728ZM0 17.285v2.938a2.247 2.247 0 0 0 2.247 2.247h24.838a2.247 2.247 0 0 0 2.247-2.247v-2.938Zm27.655 2.938a.519.519 0 0 1-.519.519H2.212a.519.519 0 0 1-.519-.519v-1.616h8.6a1.417 1.417 0 0 0 1.3.864h6.162a1.417 1.417 0 0 0 1.3-.864h8.608Z"/></g></svg>