<svg xmlns="http://www.w3.org/2000/svg" width="19.486" height="19.488"><path d="M5.706 8.937a3.507 3.507 0 0 1 4.844 0l.807.807 1.614-1.615-.807-.807a5.706 5.706 0 0 0-8.074 0L1.669 9.745a5.71 5.71 0 0 0 8.074 8.075l.807-.807-1.615-1.615-.807.807a3.426 3.426 0 0 1-4.845-4.846l2.423-2.422Z" fill="#fff"/><path d="m9.742 1.67-.807.807 1.615 1.615.807-.807a3.426 3.426 0 1 1 4.845 4.845l-2.423 2.422a3.507 3.507 0 0 1-4.844 0l-.808-.808-1.615 1.615.807.807a5.706 5.706 0 0 0 8.074 0l2.423-2.422a5.71 5.71 0 1 0-8.075-8.075Z" fill="#fff"/></svg>