<svg xmlns="http://www.w3.org/2000/svg" width="29.813" height="20.25"><g fill="#fff"><path d="M28.125 3.938H7.875a1.688 1.688 0 0 1 0-3.375h20.25a1.688 1.688 0 0 1 0 3.375ZM28.125 11.813H7.875a1.688 1.688 0 0 1 0-3.375h20.25a1.688 1.688 0 0 1 0 3.375ZM28.125 19.688H7.875a1.688 1.688 0 0 1 0-3.375h20.25a1.688 1.688 0 0 1 0 3.375ZM2.25 0A2.25 2.25 0 1 1 0 2.25 2.253 2.253 0 0 1 2.25 0ZM2.25 7.875A2.25 2.25 0 1 1 0 10.125a2.253 2.253 0 0 1 2.25-2.25ZM2.25 15.75A2.25 2.25 0 1 1 0 18a2.253 2.253 0 0 1 2.25-2.25Z"/></g></svg>