<svg xmlns="http://www.w3.org/2000/svg" width="16.875" height="13.5"><path d="M14.625 0H0v11.25h14.625ZM13.5 10.125H1.125v-9H13.5Z" fill="#fff"/><path d="M15.75 2.812v9.563H2.812V13.5h14.063V2.812Z" fill="#fff"/><path d="M7.313 8.383A2.653 2.653 0 0 0 9.844 5.63a2.653 2.653 0 0 0-2.531-2.753A2.653 2.653 0 0 0 4.782 5.63a2.653 2.653 0 0 0 2.531 2.753Zm0-4.382a1.532 1.532 0 0 1 1.406 1.628 1.532 1.532 0 0 1-1.406 1.628 1.532 1.532 0 0 1-1.406-1.628 1.532 1.532 0 0 1 1.406-1.628ZM2.25 2.532h1.125v6.187H2.25ZM11.25 2.532h1.125v6.187H11.25Z" fill="#fff"/></svg>