<svg xmlns="http://www.w3.org/2000/svg" width="18.878" height="30.607"><path fill="#fff" fill-rule="evenodd" d="M4.9.986a1.32 1.32 0 0 1 1.135-.49l3.224 3.475.132-.005.133.005L12.767.496a1.3 1.3 0 0 1 1.118.49c.4.566.161-.985-.727-.985H5.626C4.738 0 4.495 1.55 4.9.986M9.392.501h2.657L9.442 3.223v-.016l-.05.057-.049-.057v.016L6.799.501Zm-7.88 30.106h1.63l1.291-2.6h-.907Zm12.981-2.6 1.2 2.6h1.627l-1.926-2.6ZM6.329 26.99h6.241v-1.813H6.329ZM18.844 7.384c0-1.6-6.6-1.716-6.6-1.716l-1.109-1.184-3.426-.019-1.43 1.193s-5.483.1-6.281 1.725c0 0 .023 16.048.023 16.876s1.622 2.733 2.731 2.733c1.6 0 2.686.008 2.686.008l-.024-2.7h8.118v2.718s1.422-.027 2.777-.027 2.568-2.392 2.568-2.726c0-1.214-.033-16.884-.033-16.884Zm-12.225.143a.4.4 0 0 0 .006.063.51.51 0 0 1 .5-.449h4.59a.51.51 0 0 1 .5.449 1 1 0 0 0 .007-.063v.125a.4.4 0 0 0-.007-.061.55.55 0 0 1-.5.5h-4.59a.55.55 0 0 1-.5-.5.4.4 0 0 0-.006.061ZM3.188 23.644a.732.732 0 1 1 .723-.732.727.727 0 0 1-.723.732m5.845-6.666a1.02 1.02 0 0 1-1.02 1.019H1.966a1.02 1.02 0 0 1-1.02-1.019v-6.969a1.02 1.02 0 0 1 1.02-1.019h6.047a1.02 1.02 0 0 1 1.02 1.019Zm6.771 6.722a.732.732 0 1 1 .723-.731.727.727 0 0 1-.723.731m2.229-6.722a1.02 1.02 0 0 1-1.02 1.019h-6.075a1.02 1.02 0 0 1-1.019-1.019v-6.97a1.02 1.02 0 0 1 1.019-1.02h6.076a1.02 1.02 0 0 1 1.02 1.02Z"/></svg>