<svg xmlns="http://www.w3.org/2000/svg" width="13.963" height="10.238"><path fill="#fff" d="M9.422 4.655a2.03 2.03 0 0 1-1.481-.683 2.64 2.64 0 0 1-.688-1.614A2.21 2.21 0 0 1 7.812.671a2.257 2.257 0 0 1 3.216 0 2.2 2.2 0 0 1 .562 1.683 2.65 2.65 0 0 1-.688 1.614 2.03 2.03 0 0 1-1.48.687M13.217 10.238H6.244a.73.73 0 0 1-.582-.282.8.8 0 0 1-.139-.682 3.48 3.48 0 0 1 1.6-2.144 5 5 0 0 1 2.612-.7 4.97 4.97 0 0 1 2.611.689 3.47 3.47 0 0 1 1.6 2.157.8.8 0 0 1-.141.682.73.73 0 0 1-.581.281ZM3.465 4.76A1.99 1.99 0 0 1 1.64 2.831a1.87 1.87 0 0 1 .476-1.418A1.82 1.82 0 0 1 3.465.846a1.81 1.81 0 0 1 1.347.57 1.85 1.85 0 0 1 .476 1.416A1.99 1.99 0 0 1 3.466 4.76ZM5.203 6.521a4 4 0 0 0-1.736-.342 4.1 4.1 0 0 0-2.131.572A2.87 2.87 0 0 0 .023 8.515a.73.73 0 0 0 .126.618.67.67 0 0 0 .533.26h2.935a.21.21 0 0 0 .208-.174c0-.017.007-.033.011-.05a3.83 3.83 0 0 1 1.526-2.217.21.21 0 0 0-.017-.354 2 2 0 0 0-.142-.077"/></svg>