<svg xmlns="http://www.w3.org/2000/svg" width="13.963" height="10.238"><path d="M9.422 4.655a2.033 2.033 0 0 1-1.481-.683 2.64 2.64 0 0 1-.688-1.614A2.211 2.211 0 0 1 7.812.671a2.257 2.257 0 0 1 3.216 0 2.2 2.2 0 0 1 .562 1.683 2.653 2.653 0 0 1-.688 1.614 2.028 2.028 0 0 1-1.48.687Zm1.742-2.328ZM13.217 10.238H6.244a.733.733 0 0 1-.582-.282.8.8 0 0 1-.139-.682 3.483 3.483 0 0 1 1.6-2.144 5.007 5.007 0 0 1 2.612-.7 4.965 4.965 0 0 1 2.611.689 3.468 3.468 0 0 1 1.6 2.157.8.8 0 0 1-.141.682.732.732 0 0 1-.581.281ZM3.465 4.76A1.989 1.989 0 0 1 1.64 2.831a1.865 1.865 0 0 1 .476-1.418A1.816 1.816 0 0 1 3.465.846a1.811 1.811 0 0 1 1.347.57 1.848 1.848 0 0 1 .476 1.416A1.988 1.988 0 0 1 3.466 4.76ZM5.203 6.521a4.017 4.017 0 0 0-1.736-.342 4.092 4.092 0 0 0-2.131.572A2.872 2.872 0 0 0 .023 8.515a.725.725 0 0 0 .126.618.67.67 0 0 0 .533.26h2.935a.211.211 0 0 0 .208-.174c0-.017.007-.033.011-.05a3.834 3.834 0 0 1 1.526-2.217.211.211 0 0 0-.017-.354 1.764 1.764 0 0 0-.142-.077Z" fill="#fff"/></svg>