<svg xmlns="http://www.w3.org/2000/svg" width="25.415" height="25.113"><g fill="#fff"><path d="M25.411 7.595a.565.565 0 0 0-.571-.517h-4.119V.554A.565.565 0 0 0 20.146 0H5.269a.564.564 0 0 0-.575.554v6.525H.574a.564.564 0 0 0-.571.517v11.12a.565.565 0 0 0 .575.553h4.116v-4.632h16.027v4.631h4.119a.565.565 0 0 0 .575-.553V7.595Zm-6.257 1.962H6.263v-7.5a.565.565 0 0 1 .575-.554h11.741a.564.564 0 0 1 .575.554v7.5Z"/><path d="M7.22 24.454c0 .364.22.659.492.659h9.99c.272 0 .492-.294.492-.659v-8.87H7.22v8.87Z"/></g></svg>