<svg xmlns="http://www.w3.org/2000/svg" width="20.811" height="20.42" viewBox="0 0 20.811 20.42"><path fill="#fff" d="M0 10.205A10.22 10.22 0 0 1 10.211-.004a10.22 10.22 0 0 1 7.387 3.16l.036.042.393.457 1.49-1.49a.759.759 0 0 1 1.294.537v5.233a.76.76 0 0 1-.759.757h-5.233a.757.757 0 0 1-.535-1.292l2.148-2.149-.484-.562a7.97 7.97 0 0 0-5.737-2.442 7.97 7.97 0 0 0-7.962 7.959 7.97 7.97 0 0 0 7.962 7.961 7.98 7.98 0 0 0 7.508-5.306 1.124 1.124 0 0 1 1.434-.687 1.127 1.127 0 0 1 .686 1.438 10.23 10.23 0 0 1-9.628 6.8A10.223 10.223 0 0 1 0 10.205"/></svg>