<svg xmlns="http://www.w3.org/2000/svg" width="25.495" height="21.905"><g fill="#fff"><path d="M24.797 0H.697a.71.71 0 0 0-.7.7v15.512a.71.71 0 0 0 .7.7h11.138v2.308a10.9 10.9 0 0 0-3.838.886.973.973 0 0 0-.484 1.235.94.94 0 0 0 .859.564 1 1 0 0 0 .375-.08 10.2 10.2 0 0 1 4-.752 10 10 0 0 1 4 .752.938.938 0 1 0 .751-1.719 11.9 11.9 0 0 0-3.838-.886v-2.308h11.138a.71.71 0 0 0 .7-.7V.698A.71.71 0 0 0 24.797 0m-.7 15.513h-22.7V1.396h22.7Z"/><path d="M22.678 2.819H2.818v11.239h19.86ZM4.616 5.797l1.208-1.208a.702.702 0 0 1 .993.993L5.609 6.79a.72.72 0 0 1-.483.215.68.68 0 0 1-.484-.215.69.69 0 0 1-.026-.993m5.4.43L6.231 9.984a.72.72 0 0 1-.483.215.67.67 0 0 1-.483-.215.71.71 0 0 1 0-.993l3.784-3.784a.71.71 0 0 1 .993 0 .775.775 0 0 1-.032 1.02Z"/></g></svg>