<svg xmlns="http://www.w3.org/2000/svg" width="60.148" height="60.177"><defs><clipPath id="a"><path fill="none" d="M0 0h60.148v60.177H0z"/></clipPath></defs><g clip-path="url(#a)"><path d="M6.572 60.177a.5.5 0 0 1-.433-.25.549.549 0 0 1 .144-.7 3.58 3.58 0 0 1 .272-.238c.214-.174.529-.411.961-.725a185.29 185.29 0 0 1 3.554-2.489c3.015-2.074 7.127-4.851 11.888-8.067 7.729-5.221 16.489-11.138 23.569-16.08 3.867-2.7 6.771-4.786 8.879-6.378q.348-.263.653-.5L.756 56.684a.5.5 0 0 1-.534-.845C13.417 46.753 34.506 32.2 47.59 23.094a2673.198 2673.198 0 0 1-16.371 9.832C2.089 50.265.979 49.983.445 49.848a.591.591 0 0 1-.372-.276.5.5 0 0 1 .151-.663c12.3-8.416 39.869-27.331 52.492-36.21C40.558 19.666 15.609 34.171.758 42.826a.5.5 0 0 1-.685-.182.516.516 0 0 1 .127-.658c.03-.027.069-.059.123-.1.093-.072.227-.172.41-.3.343-.249.861-.618 1.541-1.1 1.263-.886 3.09-2.157 5.592-3.886 4.67-3.229 10.965-7.559 17.63-12.142C35.98 17.247 48.292 8.78 54.765 4.246c-1.811 1.01-4.1 2.328-6.967 4-6.434 3.761-14.5 8.6-22.3 13.271-6.387 3.827-12.419 7.442-16.947 10.1a274.516 274.516 0 0 1-5.5 3.17C.766 36.056.626 36.019.395 35.959a.518.518 0 0 1-.322-.244.5.5 0 0 1 .145-.658c14.773-10.434 35.394-25.1 44.2-31.574-1.179.671-2.64 1.514-4.447 2.567-5.015 2.924-11.411 6.724-17.6 10.4-5.557 3.3-10.806 6.419-14.788 8.747a295.334 295.334 0 0 1-4.841 2.784c-.609.339-1.086.6-1.418.765-.53.268-.716.338-.933.281a.509.509 0 0 1-.315-.239c-.242-.42.156-.818.394-1.057s.61-.568 1.113-.986C2.481 26 3.8 24.971 5.617 23.6c3.367-2.537 8-5.912 12.485-9.176C22.511 11.216 27.071 7.9 30.527 5.3c.951-.714 1.755-1.326 2.434-1.851L.756 22.043a.5.5 0 0 1-.683-.183.614.614 0 0 1 .22-.769c.1-.1.247-.231.447-.407.361-.317.893-.77 1.628-1.385a998.318 998.318 0 0 1 5.442-4.5c3.544-2.918 7.56-6.226 10.833-9A208.434 208.434 0 0 0 22.4 2.541C17.64 5.257 7.828 10.974.759 15.112a.5.5 0 0 1-.685-.18.567.567 0 0 1 .117-.671c.055-.068.134-.161.242-.286.193-.222.477-.542.869-.977.734-.815 1.729-1.908 2.882-3.173C6.207 7.6 9.149 4.373 10.957 2.308c-1.119.651-2.52 1.465-3.915 2.274-1.811 1.05-3.257 1.886-4.3 2.485-.619.356-1.1.631-1.431.817-.179.1-.318.179-.413.23a.65.65 0 0 1-.52.122.5.5 0 0 1-.371-.518l.443-6.4A.5.5 0 0 1 .245.4c.563-.346.664-.408.891-.347A.5.5 0 0 1 1.5.571l-.437 6.3C3.115 5.71 8.794 2.412 12.765.1a.5.5 0 0 1 .685.18c.186.322-.033.617-.209.855-.133.179-.326.42-.593.738-.47.56-1.143 1.333-2.058 2.36A754.79 754.79 0 0 1 4.922 10.5c-.7.767-1.384 1.52-1.985 2.182 2.347-1.371 5.928-3.462 9.491-5.533 3.543-2.06 6.376-3.7 8.421-4.871 1.215-.7 2.162-1.235 2.814-1.6.353-.2.628-.347.816-.447.329-.174.465-.246.675-.19a.5.5 0 0 1 .306.233c.236.409-.135.817-.406 1.115s-.646.666-1.178 1.159c-.94.872-2.289 2.056-4.127 3.62-3.351 2.853-7.577 6.333-11.3 9.4C7.2 16.6 5.978 17.6 4.892 18.5L36.788.085a.5.5 0 0 1 .683.183c.246.426-.162.839-.406 1.085s-.64.6-1.17 1.042c-.947.788-2.333 1.869-4.237 3.306-3.526 2.66-8.325 6.155-12.967 9.535-4.256 3.1-8.656 6.3-11.958 8.78-1.16.87-2.09 1.58-2.835 2.16 4.163-2.389 11.363-6.666 17.96-10.585C28.219 11.811 34.8 7.9 39.874 4.948c2.746-1.6 4.8-2.77 6.264-3.58.8-.443 1.436-.779 1.88-1 .731-.361.935-.406 1.143-.351a.52.52 0 0 1 .322.244.607.607 0 0 1-.206.757c-.093.087-.227.2-.412.352-.338.275-.85.671-1.521 1.178a405.098 405.098 0 0 1-5.469 4.029c-4.016 2.92-9.636 6.956-16.7 12A8547.306 8547.306 0 0 1 7.942 30.816l.5-.294c4.478-2.635 10.336-6.145 16.538-9.862 7.982-4.783 16.235-9.729 22.736-13.524 11.17-6.52 11.627-6.4 12-6.306a.549.549 0 0 1 .341.256.518.518 0 0 1-.134.668c-.041.038-.1.086-.173.146-.133.107-.327.253-.593.449-.5.365-1.243.9-2.223 1.593a1087.481 1087.481 0 0 1-7.867 5.487c-6.461 4.476-14.87 10.258-23 15.851-5.498 3.779-11.077 7.62-15.585 10.728 5.394-3.139 12.308-7.158 19.19-11.15a7149.69 7149.69 0 0 1 20.3-11.739 1072.88 1072.88 0 0 1 6.751-3.855c2.762-1.556 2.777-1.553 3.027-1.485a.5.5 0 0 1 .306.234c.219.38-.125.675-.254.786-.112.1-.274.225-.5.4-.413.316-1.038.776-1.856 1.366a617.025 617.025 0 0 1-6.668 4.716 3924.602 3924.602 0 0 1-20.337 14.1c-9.983 6.881-20.07 13.8-25.525 17.534a245.628 245.628 0 0 0 6.092-3.346c5.026-2.836 11.791-6.786 20.109-11.74 14.165-8.436 28.106-16.973 28.245-17.058a.5.5 0 0 1 .694.176.514.514 0 0 1-.137.665c-.034.03-.082.069-.145.119-.112.088-.274.209-.5.372-.417.306-1.044.756-1.865 1.338a1120.137 1120.137 0 0 1-6.681 4.687A6279.157 6279.157 0 0 1 30.4 36.225c-6.916 4.783-13.88 9.59-19.315 13.338L59.38 21.682a.5.5 0 0 1 .683.183c.285.494-.212 1.013-.84 1.593-.546.5-1.388 1.193-2.505 2.052-2.016 1.55-4.913 3.646-8.857 6.407-7.2 5.044-16.308 11.194-24.342 16.62-2.146 1.45-4.261 2.878-6.225 4.209 4.458-2.634 9.814-5.79 15.162-8.924 7.626-4.469 13.744-8.022 18.192-10.55a352.02 352.02 0 0 1 6.159-3.441c2.564-1.381 2.705-1.344 2.94-1.283a.517.517 0 0 1 .32.242.5.5 0 0 1-.134.651L24.5 55.88c8.364-4.776 23.68-13.74 34.885-20.343a.5.5 0 0 1 .686.179.507.507 0 0 1-.1.63 13.3 13.3 0 0 1-.326.286c-.206.175-.515.434-.919.769-.75.622-1.855 1.53-3.284 2.7-2.407 1.97-5.767 4.709-9.988 8.142-3.626 2.949-7.278 5.914-10.016 8.136 6.047-3.475 16.331-9.462 23.951-13.916a.5.5 0 0 1 .686.183c.191.333-.041.582-.246.8-.121.129-.3.317-.54.559-.438.445-1.085 1.092-1.924 1.923-1.411 1.4-3.383 3.334-5.863 5.758-2.006 1.961-4.026 3.93-5.6 5.461 1.442-.843 3.174-1.854 4.9-2.859a1141.01 1141.01 0 0 1 5.851-3.386c2.855-1.636 2.855-1.636 3.116-1.566a.5.5 0 0 1 .317.714c-1.413 2.725-3.36 6.5-4.36 8.467.97-.561 2.364-1.4 3.657-2.2a.5.5 0 0 1 .525.851c-.012.007-1.22.751-2.438 1.479-2.637 1.575-2.729 1.552-2.974 1.49a.513.513 0 0 1-.317-.238.582.582 0 0 1 .03-.583c.036-.077.088-.185.16-.329.129-.26.32-.64.567-1.127.416-.819 1-1.956 1.732-3.379.65-1.261 1.3-2.529 1.786-3.458-3.023 1.71-10.4 6.013-15.6 9.064a.5.5 0 0 1-.6-.79c4.633-4.5 10.939-10.649 14.418-14.094-2.783 1.624-7.01 4.088-11.214 6.53s-7.556 4.38-9.976 5.769a431.766 431.766 0 0 1-3.327 1.894c-.416.233-.739.411-.96.529-.387.207-.518.277-.73.22a.5.5 0 0 1-.187-.872 8907.266 8907.266 0 0 0 24.261-19.729c-3.9 2.289-9.439 5.54-14.962 8.762-5.919 3.452-10.658 6.2-14.088 8.158a346.8 346.8 0 0 1-4.734 2.669c-.6.328-1.063.577-1.386.742-.536.273-.7.336-.908.279a.5.5 0 0 1-.177-.888l36.243-27.038c-3.9 2.182-10.621 6.041-22.1 12.77-12.8 7.5-25.474 15.034-25.6 15.11a.5.5 0 0 1-.255.069Z" fill="#fff"/></g></svg>