<svg xmlns="http://www.w3.org/2000/svg" width="276.961" height="284.164"><g fill="none"><path d="M0 0h52.585a69.833 69.833 0 0 0 20 3.181C83.229 3.181 95.154 0 95.154 0H276s2.162 17.519 0 46.652c-1.523 20.518-7.568 47.38-7.568 77.024C268.432 194.427 276 283 276 283s-33.172-5.691-102.172-5.691c-35.535 0-82.947 4.222-118.394 5.691C22.284 284.374 0 283 0 283v-56.558c0-27.309 7.342-106.174 7.342-106.174Z"/><path d="m1.063 1 7.282 119.284-.007.076c-.019.197-1.856 19.976-3.67 42.835C2.995 184.28 1 212.368 1 226.442v55.611c2.838.147 11.962.558 25.329.558 9.522 0 19.3-.206 29.064-.61 12.955-.537 27.311-1.43 42.51-2.375 26.232-1.63 53.357-3.317 75.925-3.317 35.678 0 61.59 1.55 77.045 2.849 13.073 1.1 21.088 2.212 24.024 2.656-.426-5.144-2.062-25.391-3.68-51.883-1.726-28.287-3.785-69.682-3.785-106.254 0-18.99 2.47-36.833 4.65-52.575 1.22-8.811 2.372-17.134 2.92-24.524 1.113-14.986 1.055-26.82.81-34.107-.196-5.874-.543-9.818-.71-11.471H95.283c-.622.162-3.387.863-7.24 1.574-3.975.733-9.883 1.607-15.456 1.607-5.586 0-10.807-.877-14.203-1.613-3.186-.69-5.365-1.374-5.96-1.568H1.063M0 0h52.585s9.36 3.181 20.002 3.181S95.154 0 95.154 0H276s2.162 17.519 0 46.652c-1.523 20.518-7.568 47.38-7.568 77.025C268.432 194.427 276 283 276 283s-33.172-5.69-102.172-5.69c-35.535 0-82.947 4.22-118.394 5.69C22.284 284.374 0 283 0 283v1.163-57.721c0-27.31 7.342-106.174 7.342-106.174L0 0Z" fill="#707070"/></g></svg>