<svg xmlns="http://www.w3.org/2000/svg" width="282.921" height="285.218"><g fill="none"><path d="M5.96.723s17.371-1.626 52.585 0 42.522 0 98.376 0H281.96s2.162 17.519 0 46.652c-1.523 20.518-1.039 63.352-1.039 93 0 70.75 2 130.5 2 130.5h-103.62c-35.535 0-82.46 11.382-117.907 12.851-33.15 1.371-55.434-.003-55.434-.003s.961 15.753.961-55C6.921 201.414 0 135.806 0 79.195S5.96.723 5.96.723Z"/><path d="M29.261 1c-12.737 0-20.27.49-22.504.661C6.33 3.466 5.15 8.951 3.973 18.85 3.11 26.11 2.423 34.274 1.93 43.11 1.313 54.162 1 66.304 1 79.198c0 33.374 2.43 70.226 4.384 99.836 1.361 20.64 2.537 38.465 2.537 49.692 0 35.845-.25 49.305-.482 54.075 3.187.158 12.088.533 24.85.533 9.522 0 19.3-.206 29.064-.61 16.205-.672 35.268-3.489 53.704-6.213 22.09-3.264 44.933-6.64 64.244-6.64h102.587c-.261-8.247-1.967-64.576-1.967-129.5 0-5.536-.017-11.474-.034-17.76-.078-27.462-.165-58.587 1.076-75.31 1.112-14.986 1.054-26.819.81-34.107-.197-5.874-.544-9.818-.71-11.471H156.92c-22.283 0-36.83.259-48.519.467-7.72.137-14.387.256-21.113.256-9.07 0-17.95-.224-28.79-.724C48.13 1.243 38.292 1 29.261 1m0-1c7.791 0 17.545.181 29.284.723 35.215 1.626 42.522 0 98.376 0H281.96s2.162 17.519 0 46.652c-1.523 20.518-1.04 63.353-1.04 92.997 0 70.75 2 130.5 2 130.5H179.3c-35.534 0-82.459 11.382-117.906 12.851-30.49 1.264-51.787.203-55.01.024.258-3.886.537-16.891.537-55.021C6.92 201.416 0 135.809 0 79.198 0 22.588 5.96.723 5.96.723S13.682 0 29.261 0ZM5.96 283.723l.424.024c-.22 3.325-.424-.024-.424-.024Z" fill="#707070"/></g></svg>