<svg xmlns="http://www.w3.org/2000/svg" width="284.163" height="291.068"><g fill="none"><path d="M0 282.18v-52.585S14.979-5.612 3.6.102 17.519 4.018 46.652 6.18c20.518 1.523 47.38 7.568 77.024 7.568C194.427 13.748 283 6.18 283 6.18s-5.691 33.172-5.691 102.172c0 35.535 4.222 82.947 5.691 118.394 1.374 33.15 0 55.434 0 55.434h-56.558c-27.309 0-98.84 8.888-98.84 8.888Z"/><path d="m1 281.247 126.574 8.817c1.449-.18 18.838-2.32 39.103-4.435 19.454-2.03 45.615-4.449 59.765-4.449h55.611c.147-2.838.558-11.962.558-25.329 0-9.522-.206-19.3-.61-29.064-.537-12.955-1.43-27.311-2.375-42.51-1.63-26.232-3.317-53.357-3.317-75.925 0-35.678 1.55-61.59 2.85-77.045 1.098-13.073 2.211-21.088 2.655-24.024-5.144.426-25.391 2.062-51.883 3.68-28.287 1.726-69.682 3.785-106.254 3.785-18.99 0-36.833-2.47-52.575-4.65-8.811-1.22-17.134-2.372-24.524-2.92-8.835-.656-17.177-.942-24.538-1.194-5.852-.2-10.995-.377-14.737-.701 1.039 6.31 1.565 18.045 1.565 34.93 0 34.03-2.14 83.73-3.935 119.43A5917.504 5917.504 0 0 1 1 229.626v51.621M1.963 2.31c.177.089.486.212 1.013.344.491.123 1.089.235 1.806.339-.365-1.34-.682-1.804-.819-1.952-1.231.625-1.77 1.044-2 1.27M0 282.18v-52.585S7.868 106.05 7.868 40.213c0-16.745-.51-29.755-1.786-36.053 7.857.846 23.559.758 40.57 2.02 20.518 1.523 47.38 7.568 77.025 7.568C194.427 13.748 283 6.18 283 6.18s-5.69 33.172-5.69 102.172c0 35.535 4.221 82.947 5.69 118.394 1.374 33.15 0 55.434 0 55.434h1.163-57.721c-27.31 0-98.84 8.888-98.84 8.888L0 282.18ZM.816 2.398c0-.59.878-1.338 2.785-2.296 1.035-.52 1.851.95 2.481 4.058C2.74 3.8.816 3.271.816 2.398Z" fill="#707070"/></g></svg>