<svg xmlns="http://www.w3.org/2000/svg" width="282.921" height="277.991"><g fill="none"><path d="M5.96 0s20.611 4.539 55.825 6.165S114.392 0 170.246 0H281.96s2.162 17.519 0 46.652c-.926 12.475-12.722 33.364-5.96 53.921 4.236 12.878 0 34.736 0 46.356 0 70.75 6.921 123.219 6.921 123.219s-22.22 7.842-91.22 7.842c-35.535 0-85.969-9.311-121.416-7.842-33.151 1.374-70.286 0-70.286 0S6.921 298.753 6.921 228C6.921 200.691 0 135.083 0 78.472S5.96 0 5.96 0Z"/><path d="M170.245 1c-28.664 0-47.008 2.037-63.193 3.834-12.342 1.37-23 2.554-35.715 2.554-3.146 0-6.375-.075-9.598-.224-18.229-.842-32.472-2.477-41.21-3.7C13.365 2.46 8.619 1.56 6.702 1.174c-.467 2.019-1.6 7.454-2.729 16.952-.863 7.261-1.55 15.424-2.043 24.26C1.313 53.439 1 65.58 1 78.475c0 33.374 2.43 70.226 4.384 99.836 1.361 20.64 2.537 38.466 2.537 49.692 0 19.832-.547 33.726-1.625 41.338 6.306.17 17.833.419 31.034.419 12.077 0 23.151-.206 32.914-.61 2.53-.105 5.237-.158 8.046-.158 17.65 0 38.303 2.076 58.275 4.084 20.024 2.014 38.937 3.915 55.136 3.915 15.67 0 30.197-.409 43.18-1.216 10.388-.645 19.816-1.546 28.022-2.675 11.109-1.53 16.96-3.075 18.92-3.655-.403-3.228-1.89-15.642-3.36-34.296-1.58-20.055-3.463-51.64-3.463-88.22 0-3.564.397-8.117.817-12.937.478-5.479 1.02-11.69 1.063-17.505.05-6.605-.55-11.708-1.83-15.601-4.734-14.393-.573-28.888 2.771-40.535 1.534-5.343 2.859-9.957 3.142-13.773 1.112-14.986 1.054-26.819.81-34.107-.197-5.874-.544-9.818-.71-11.471H170.244M1.328 271.195c.107.355.236.755.381 1.162.54 1.509.957 2.135 1.171 2.383.104-.155.257-.44.434-.946.224-.639.437-1.483.637-2.518-1.082-.032-1.965-.06-2.623-.081M5.96 0s20.61 4.54 55.825 6.165C97 7.791 114.392 0 170.245 0H281.96s2.162 17.519 0 46.652c-.926 12.475-12.722 33.365-5.96 53.921 4.236 12.879 0 34.736 0 46.357 0 70.75 6.92 123.219 6.92 123.219s-22.219 7.842-91.219 7.842c-35.535 0-85.968-9.311-121.415-7.842-25.717 1.066-53.833.478-65.149.16 1.02-6.264 1.784-18.802 1.784-42.306C6.92 200.693 0 135.086 0 78.475 0 21.865 5.96 0 5.96 0ZM0 270.149s1.866.069 5.137.16C3.087 282.904 0 270.15 0 270.15Z" fill="#707070"/></g></svg>