<svg xmlns="http://www.w3.org/2000/svg" width="282.921" height="287.627"><g fill="none"><path d="M5.96.723s17.371-1.626 52.585 0 32.415 6.5 88.273 6.5S281.96.723 281.96.723s2.162 17.519 0 46.652c-1.523 20.518.961 59.717.961 89.361 0 70.75-.961 146.987-.961 146.987s-32.831 3.9-101.831 3.9c-35.535 0-83.288-5.373-118.735-3.9-33.15 1.374-55.434 0-55.434 0s.961 15.753.961-55C6.921 201.414 0 135.806 0 79.195S5.96.723 5.96.723Z"/><path d="M29.261 1c-12.737 0-20.27.49-22.504.661C6.33 3.466 5.15 8.951 3.973 18.85 3.11 26.11 2.423 34.274 1.93 43.11 1.313 54.162 1 66.304 1 79.198c0 33.374 2.43 70.226 4.384 99.836 1.361 20.64 2.537 38.465 2.537 49.692 0 35.845-.25 49.305-.482 54.075 3.187.158 12.088.533 24.85.533 9.522 0 19.3-.206 29.064-.61 4.086-.17 8.568-.255 13.32-.255 17.053 0 36.117 1.085 54.553 2.134 18.292 1.041 35.569 2.024 50.903 2.024 35.601 0 61.36-1.06 76.701-1.948 13.582-.787 21.613-1.583 24.141-1.853.106-8.73.95-80.223.95-146.09 0-11.52-.379-24.599-.745-37.248-.59-20.365-1.147-39.6-.213-52.187 1.112-14.986 1.054-26.819.81-34.107-.195-5.787-.534-9.7-.703-11.396-4.307.344-22.476 1.768-45.675 3.175-24.47 1.484-59.7 3.253-88.577 3.253-33.823 0-46.356-1.81-58.477-3.56C80.497 3.535 72.386 2.364 58.5 1.723 48.13 1.243 38.292 1 29.261 1m0-1c7.791 0 17.545.181 29.284.723 35.215 1.626 32.42 6.503 88.273 6.503C202.672 7.226 281.96.723 281.96.723s2.162 17.519 0 46.652c-1.523 20.518.96 59.717.96 89.361 0 70.75-.96 146.987-.96 146.987s-32.831 3.904-101.831 3.904c-31.26 0-71.98-4.158-105.455-4.158-4.578 0-9.015.077-13.28.254-30.49 1.264-51.787.203-55.01.024.258-3.886.537-16.891.537-55.021C6.92 201.416 0 135.809 0 79.198 0 22.588 5.96.723 5.96.723S13.682 0 29.261 0ZM5.96 283.723l.424.024c-.22 3.325-.424-.024-.424-.024Z" fill="#707070"/></g></svg>