<svg xmlns="http://www.w3.org/2000/svg" width="22.814" height="21.417"><path d="M3.958 0h14.9a3.969 3.969 0 0 1 3.958 3.957v8.226a3.97 3.97 0 0 1-3.958 3.958h-14.9A3.97 3.97 0 0 1 0 12.183V3.957A3.969 3.969 0 0 1 3.958 0ZM1.271 19.937a.554.554 0 0 1 0-1.109h6.02a.554.554 0 1 1 0 1.109Zm7.962-2.033a.555.555 0 1 1 1.109 0v.927h11.2a.554.554 0 0 1 0 1.109h-11.2v.926a.555.555 0 0 1-1.109 0Zm.178-13.9 6.041 3.6a.55.55 0 0 1-.005.951L9.36 12.179a.551.551 0 0 1-.755-.193.558.558 0 0 1-.078-.282V4.442a.554.554 0 0 1 .885-.444Zm4.68 4.067L9.632 5.415v5.316Z" fill="#fff" fill-rule="evenodd"/></svg>