<svg xmlns="http://www.w3.org/2000/svg" width="20.49" height="20.49"><path d="M15.72 0v1.464h2.272L13.307 6.15a5.084 5.084 0 0 0-6.124 0L6.157 5.123l1.026-1.035L6.15 3.05 5.123 4.088 2.499 1.464h2.045V0H0v4.663h1.464V2.499l2.624 2.624L3.05 6.15l1.038 1.033 1.035-1.026L6.15 7.183a5.107 5.107 0 0 0 3.366 8.126v1.522H8.05v1.464h1.464v2.2h1.464v-2.2h1.272v-1.464h-1.273v-1.522a5.107 5.107 0 0 0 3.365-8.126l4.685-4.685v2.165h1.463V0Zm-5.47 13.904a3.659 3.659 0 1 1 3.654-3.654 3.659 3.659 0 0 1-3.654 3.654Z" fill="#fff"/></svg>